<svg width="87" height="85" viewBox="0 0 87 85" fill="none" xmlns="http://www.w3.org/2000/svg">
<path d="M43.5142 0C25.3533 0 20.042 0.0187424 19.0095 0.1044C15.2826 0.414279 12.9635 1.00125 10.437 2.25948C8.48988 3.22663 6.95427 4.34768 5.43874 5.91917C2.6787 8.78506 1.00593 12.3108 0.40038 16.5019C0.105989 18.5366 0.0203307 18.9515 0.00293616 29.3442C-0.00373886 32.8085 0.00293616 37.3676 0.00293616 43.4829C0.00293616 61.634 0.022994 66.9414 0.11 67.9722C0.411099 71.5997 0.979824 73.882 2.18422 76.3784C4.48595 81.1571 8.88194 84.7445 14.0608 86.0831C15.854 86.5449 17.8346 86.7992 20.3772 86.9197C21.4545 86.9665 32.4344 87 43.4211 87C54.4079 87 65.3946 86.9866 66.445 86.9331C69.3891 86.7945 71.0987 86.565 72.9889 86.0764C78.2012 84.7311 82.517 81.1973 84.8655 76.3516C86.0465 73.9154 86.6453 71.5461 86.9164 68.108C86.9752 67.3584 87 55.4069 87 43.4716C87 31.5341 86.9732 19.6047 86.9143 18.8551C86.64 15.3615 86.0411 13.0123 84.822 10.5292C83.8217 8.49658 82.711 6.97862 81.0985 5.4266C78.2207 2.67714 74.7012 1.00392 70.5072 0.39889C68.4751 0.105058 68.0703 0.0180522 57.6724 0H43.5142Z" fill="url(#paint0_radial_33_344)"/>
<path d="M43.5142 0C25.3533 0 20.042 0.0187424 19.0095 0.1044C15.2826 0.414279 12.9635 1.00125 10.437 2.25948C8.48988 3.22663 6.95427 4.34768 5.43874 5.91917C2.6787 8.78506 1.00593 12.3108 0.40038 16.5019C0.105989 18.5366 0.0203307 18.9515 0.00293616 29.3442C-0.00373886 32.8085 0.00293616 37.3676 0.00293616 43.4829C0.00293616 61.634 0.022994 66.9414 0.11 67.9722C0.411099 71.5997 0.979824 73.882 2.18422 76.3784C4.48595 81.1571 8.88194 84.7445 14.0608 86.0831C15.854 86.5449 17.8346 86.7992 20.3772 86.9197C21.4545 86.9665 32.4344 87 43.4211 87C54.4079 87 65.3946 86.9866 66.445 86.9331C69.3891 86.7945 71.0987 86.565 72.9889 86.0764C78.2012 84.7311 82.517 81.1973 84.8655 76.3516C86.0465 73.9154 86.6453 71.5461 86.9164 68.108C86.9752 67.3584 87 55.4069 87 43.4716C87 31.5341 86.9732 19.6047 86.9143 18.8551C86.64 15.3615 86.0411 13.0123 84.822 10.5292C83.8217 8.49658 82.711 6.97862 81.0985 5.4266C78.2207 2.67714 74.7012 1.00392 70.5072 0.39889C68.4751 0.105058 68.0703 0.0180522 57.6724 0H43.5142Z" fill="url(#paint1_radial_33_344)"/>
<path d="M43.5142 0C25.3533 0 20.042 0.0187424 19.0095 0.1044C15.2826 0.414279 12.9635 1.00125 10.437 2.25948C8.48988 3.22663 6.95427 4.34768 5.43874 5.91917C2.6787 8.78506 1.00593 12.3108 0.40038 16.5019C0.105989 18.5366 0.0203307 18.9515 0.00293616 29.3442C-0.00373886 32.8085 0.00293616 37.3676 0.00293616 43.4829C0.00293616 61.634 0.022994 66.9414 0.11 67.9722C0.411099 71.5997 0.979824 73.882 2.18422 76.3784C4.48595 81.1571 8.88194 84.7445 14.0608 86.0831C15.854 86.5449 17.8346 86.7992 20.3772 86.9197C21.4545 86.9665 32.4344 87 43.4211 87C54.4079 87 65.3946 86.9866 66.445 86.9331C69.3891 86.7945 71.0987 86.565 72.9889 86.0764C78.2012 84.7311 82.517 81.1973 84.8655 76.3516C86.0465 73.9154 86.6453 71.5461 86.9164 68.108C86.9752 67.3584 87 55.4069 87 43.4716C87 31.5341 86.9732 19.6047 86.9143 18.8551C86.64 15.3615 86.0411 13.0123 84.822 10.5292C83.8217 8.49658 82.711 6.97862 81.0985 5.4266C78.2207 2.67714 74.7012 1.00392 70.5072 0.39889C68.4751 0.105058 68.0703 0.0180522 57.6724 0H43.5142Z" fill="url(#paint2_radial_33_344)"/>
<path d="M43.5142 0C25.3533 0 20.042 0.0187424 19.0095 0.1044C15.2826 0.414279 12.9635 1.00125 10.437 2.25948C8.48988 3.22663 6.95427 4.34768 5.43874 5.91917C2.6787 8.78506 1.00593 12.3108 0.40038 16.5019C0.105989 18.5366 0.0203307 18.9515 0.00293616 29.3442C-0.00373886 32.8085 0.00293616 37.3676 0.00293616 43.4829C0.00293616 61.634 0.022994 66.9414 0.11 67.9722C0.411099 71.5997 0.979824 73.882 2.18422 76.3784C4.48595 81.1571 8.88194 84.7445 14.0608 86.0831C15.854 86.5449 17.8346 86.7992 20.3772 86.9197C21.4545 86.9665 32.4344 87 43.4211 87C54.4079 87 65.3946 86.9866 66.445 86.9331C69.3891 86.7945 71.0987 86.565 72.9889 86.0764C78.2012 84.7311 82.517 81.1973 84.8655 76.3516C86.0465 73.9154 86.6453 71.5461 86.9164 68.108C86.9752 67.3584 87 55.4069 87 43.4716C87 31.5341 86.9732 19.6047 86.9143 18.8551C86.64 15.3615 86.0411 13.0123 84.822 10.5292C83.8217 8.49658 82.711 6.97862 81.0985 5.4266C78.2207 2.67714 74.7012 1.00392 70.5072 0.39889C68.4751 0.105058 68.0703 0.0180522 57.6724 0H43.5142Z" fill="url(#paint3_radial_33_344)"/>
<path d="M43.5176 11.1709C34.7326 11.1709 33.6301 11.2093 30.1797 11.3662C26.7361 11.5238 24.3856 12.0685 22.3288 12.8679C20.2013 13.6935 18.3966 14.7978 16.5986 16.5951C14.7993 18.3918 13.6941 20.1951 12.8652 22.3204C12.0633 24.3763 11.5174 26.7258 11.3624 30.1655C11.2081 33.6133 11.1677 34.7157 11.1677 43.4941C11.1677 52.2726 11.2068 53.3709 11.3631 56.8187C11.5215 60.2598 12.0667 62.6086 12.8659 64.6638C13.6928 66.7898 14.798 68.5931 16.5966 70.3897C18.3939 72.1877 20.1986 73.2948 22.3248 74.1204C24.3828 74.9197 26.7341 75.4645 30.177 75.6221C33.6274 75.779 34.7293 75.8174 43.5136 75.8174C52.2992 75.8174 53.3983 75.779 56.8487 75.6221C60.2924 75.4645 62.6456 74.9197 64.7037 74.1204C66.8305 73.2948 68.6326 72.1877 70.4299 70.3897C72.2292 68.5931 73.3344 66.7898 74.1633 64.6645C74.9584 62.6086 75.5043 60.2591 75.6661 56.8194C75.821 53.3716 75.8615 52.2726 75.8615 43.4941C75.8615 34.7156 75.821 33.614 75.6661 30.1662C75.5043 26.7251 74.9584 24.3763 74.1633 22.3211C73.3344 20.1951 72.2292 18.3918 70.4299 16.5951C68.6305 14.7971 66.8312 13.6928 64.7017 12.8679C62.6395 12.0685 60.2876 11.5238 56.844 11.3662C53.3936 11.2093 52.2952 11.1709 43.5075 11.1709H43.5176ZM40.6158 16.9958C41.477 16.9945 42.438 16.9958 43.5176 16.9958C52.1543 16.9958 53.178 17.0268 56.5886 17.1817C59.7424 17.3258 61.4541 17.8524 62.5944 18.2948C64.1039 18.8807 65.1802 19.581 66.3116 20.7123C67.4438 21.8436 68.1446 22.9211 68.7323 24.4295C69.175 25.5675 69.7027 27.278 69.8462 30.4295C70.0012 33.8369 70.0349 34.8605 70.0349 43.4867C70.0349 52.113 70.0012 53.1366 69.8462 56.544C69.702 59.6955 69.175 61.4059 68.7323 62.544C68.146 64.0524 67.4438 65.1265 66.3116 66.2571C65.1795 67.3884 64.1046 68.0887 62.5944 68.6746C61.4555 69.119 59.7424 69.6443 56.5886 69.7884C53.1787 69.9433 52.1543 69.9769 43.5176 69.9769C34.8802 69.9769 33.8566 69.9433 30.4466 69.7884C27.2928 69.643 25.5811 69.1164 24.4401 68.6739C22.9306 68.0881 21.8523 67.3877 20.7202 66.2564C19.5881 65.1251 18.8872 64.0504 18.2995 62.5413C17.8568 61.4032 17.3291 59.6928 17.1856 56.5413C17.0306 53.1338 16.9996 52.1103 16.9996 43.4786C16.9996 34.847 17.0306 33.8288 17.1856 30.4214C17.3298 27.2699 17.8568 25.5595 18.2995 24.4201C18.8858 22.9116 19.5881 21.8342 20.7202 20.7029C21.8523 19.5716 22.9306 18.8712 24.4401 18.284C25.5804 17.8396 27.2928 17.3144 30.4466 17.1695C33.4306 17.0349 34.5871 16.9945 40.6158 16.9877L40.6158 16.9958ZM60.7843 22.3628C58.6413 22.3628 56.9026 24.0982 56.9026 26.2402C56.9026 28.3817 58.6413 30.1191 60.7843 30.1191C62.9273 30.1191 64.666 28.3817 64.666 26.2402C64.666 24.0988 62.9273 22.3615 60.7843 22.3615L60.7843 22.3628ZM43.5176 26.8948C34.3438 26.8948 26.906 34.3271 26.906 43.4941C26.906 52.6611 34.3438 60.0901 43.5176 60.0901C52.6914 60.0901 60.1266 52.6611 60.1266 43.4941C60.1266 34.3271 52.6908 26.8948 43.5169 26.8948H43.5176ZM43.5176 32.7197C49.4722 32.7197 54.3 37.5433 54.3 43.4941C54.3 49.4443 49.4722 54.2685 43.5176 54.2685C37.5624 54.2685 32.7352 49.4443 32.7352 43.4941C32.7352 37.5433 37.5624 32.7197 43.5176 32.7197Z" fill="white"/>
<defs>
<radialGradient id="paint0_radial_33_344" cx="0" cy="0" r="1" gradientUnits="userSpaceOnUse" gradientTransform="translate(84.1908 40.778) rotate(164.25) scale(55.5881 40.0485)">
<stop stop-color="#FF005F"/>
<stop offset="1" stop-color="#FC01D8"/>
</radialGradient>
<radialGradient id="paint1_radial_33_344" cx="0" cy="0" r="1" gradientUnits="userSpaceOnUse" gradientTransform="translate(23.1087 93.7008) rotate(-90) scale(69.445 73.6797)">
<stop stop-color="#FFCC00"/>
<stop offset="0.1242" stop-color="#FFCC00"/>
<stop offset="0.5672" stop-color="#FE4A05"/>
<stop offset="0.6942" stop-color="#FF0F3F"/>
<stop offset="1" stop-color="#FE0657" stop-opacity="0"/>
</radialGradient>
<radialGradient id="paint2_radial_33_344" cx="0" cy="0" r="1" gradientUnits="userSpaceOnUse" gradientTransform="translate(45.6984 85.7731) rotate(-59.8703) scale(28.7161 37.3852)">
<stop stop-color="#FFCC00"/>
<stop offset="1" stop-color="#FFCC00" stop-opacity="0"/>
</radialGradient>
<radialGradient id="paint3_radial_33_344" cx="0" cy="0" r="1" gradientUnits="userSpaceOnUse" gradientTransform="translate(11.804 3.54262) rotate(164.274) scale(54.9715 18.7287)">
<stop stop-color="#780CFF"/>
<stop offset="1" stop-color="#820BFF" stop-opacity="0"/>
</radialGradient>
</defs>
</svg>
