<svg width="87" height="87" viewBox="0 0 87 87" fill="none" xmlns="http://www.w3.org/2000/svg">
<path d="M43.3903 86.7807C67.3542 86.7807 86.7807 67.3542 86.7807 43.3903C86.7807 19.4265 67.3542 0 43.3903 0C19.4265 0 0 19.4265 0 43.3903C0 67.3542 19.4265 86.7807 43.3903 86.7807Z" fill="url(#paint0_linear_33_351)"/>
<path fill-rule="evenodd" clip-rule="evenodd" d="M19.6178 42.9208C32.2628 37.4293 40.6807 33.7803 44.9077 32.01C56.9385 26.9882 59.4675 26.1211 61.0933 26.085C61.4546 26.085 62.2494 26.1572 62.7913 26.5908C63.2249 26.952 63.3333 27.4217 63.4055 27.783C63.4778 28.1443 63.55 28.903 63.4778 29.481C62.8275 36.3455 60.0094 53.0007 58.5643 60.6599C57.9501 63.9115 56.7579 64.9954 55.6018 65.1037C53.0728 65.3205 51.158 63.4418 48.7374 61.8522C44.9077 59.3593 42.7761 57.8058 39.0549 55.3491C34.7556 52.531 37.5375 50.9775 39.9943 48.4485C40.6446 47.7982 51.736 37.6822 51.9528 36.779C51.9889 36.6706 51.9889 36.2371 51.736 36.0203C51.4831 35.8035 51.1218 35.8758 50.8328 35.948C50.4354 36.0203 44.3658 40.0667 32.5518 48.0511C30.8176 49.2433 29.2641 49.8214 27.8551 49.7853C26.3016 49.7491 23.339 48.9182 21.099 48.1956C18.3894 47.3285 16.2217 46.8589 16.4023 45.3415C16.5107 44.5466 17.5946 43.7518 19.6178 42.9208Z" fill="white"/>
<defs>
<linearGradient id="paint0_linear_33_351" x1="43.3542" y1="0" x2="43.3542" y2="86.0942" gradientUnits="userSpaceOnUse">
<stop stop-color="#2AABEE"/>
<stop offset="1" stop-color="#229ED9"/>
</linearGradient>
</defs>
</svg>
