<svg width="87" height="87" viewBox="0 0 87 87" fill="none" xmlns="http://www.w3.org/2000/svg">
<g id="VK_Full_Logo_(2021-present)" clip-path="url(#clip0_151_290)">
<path id="Vector" d="M0 41.76C0 22.0741 0 12.2312 6.11561 6.11561C12.2312 0 22.0741 0 41.76 0H45.24C64.9259 0 74.7687 0 80.8844 6.11561C87 12.2312 87 22.0741 87 41.76V45.24C87 64.9259 87 74.7687 80.8844 80.8844C74.7687 87 64.9259 87 45.24 87H41.76C22.0741 87 12.2312 87 6.11561 80.8844C0 74.7687 0 64.9259 0 45.24V41.76Z" fill="#0077FF"/>
<path id="Vector_2" d="M46.2912 62.6776C26.4625 62.6776 15.1527 49.0839 14.6814 26.4639H24.6139C24.9402 43.0664 32.2625 50.0989 38.0625 51.5489V26.4639H47.4154V40.7826C53.1429 40.1664 59.1596 33.6414 61.1896 26.4639H70.5423C68.9836 35.3089 62.4586 41.8339 57.8186 44.5164C62.4586 46.6914 69.8902 52.3826 72.7177 62.6776H62.4223C60.2111 55.7901 54.7016 50.4614 47.4154 49.7364V62.6776H46.2912Z" fill="white"/>
</g>
<defs>
<clipPath id="clip0_151_290">
<rect width="87" height="87" fill="white"/>
</clipPath>
</defs>
</svg>
