<svg width="106" height="105" viewBox="0 0 106 105" fill="none" xmlns="http://www.w3.org/2000/svg">
<g clip-path="url(#clip0_131_1525)">
<path d="M36.3362 92.975L29.0168 88.7451L70.9075 64.5425L78.2185 68.7725L36.3362 92.975Z" fill="#EEF1F5"/>
<path d="M49.9916 72.0095L66.0421 81.2854C66.5463 81.5797 66.5463 82.3112 66.0421 82.6055L53.0755 90.1489C52.1093 90.7123 50.916 90.7123 49.9412 90.1489L33.8908 80.8733C33.3866 80.579 33.3866 79.8471 33.8908 79.5528L46.8572 72.0095C47.8236 71.4461 49.0168 71.4461 49.9916 72.0095Z" fill="#EEF1F5"/>
<path d="M37.4707 78.6617L49.2774 71.7995C50.2438 71.2361 51.4371 71.2361 52.4118 71.7995L66.958 80.2088L68.8403 80.3098V81.7396C68.8403 81.9917 68.7145 82.2523 68.4622 82.3956L55.496 89.9389C54.5293 90.502 53.3363 90.502 52.3614 89.9389L36.311 80.663C36.0589 80.5201 35.9329 80.2595 35.9329 80.007V78.5858L37.4791 78.6698L37.4707 78.6617Z" fill="url(#paint0_linear_131_1525)"/>
<path d="M52.4034 70.362L68.4537 79.6376C68.9579 79.9319 68.9579 80.6634 68.4537 80.9577L55.4875 88.5014C54.5212 89.0645 53.3278 89.0645 52.353 88.5014L36.3026 79.2255C35.7984 78.9312 35.7984 78.1997 36.3026 77.9054L49.269 70.362C50.2353 69.7986 51.4286 69.7986 52.4034 70.362Z" fill="#E6E6FA"/>
<path d="M43.6891 60.7077L39.8152 81.252L55.479 72.136L59.3529 51.5918L43.6891 60.7077Z" fill="url(#paint1_linear_131_1525)"/>
<path d="M43.0672 58.9497L38.9664 80.7637L39.8151 81.2517L43.6891 60.6989C43.3025 60.2447 43.042 59.6139 43.0588 59.0841C43.0588 59.0337 43.0588 58.9916 43.0756 58.9497H43.0672Z" fill="#9C9CD8"/>
<path d="M57.2772 50.3133C57.4958 50.1871 57.7984 50.2038 58.1262 50.3974L58.1598 50.414C58.7984 50.8179 59.3026 51.7345 59.2774 52.4661C59.2689 52.8108 59.1428 53.0462 58.9412 53.1639L43.269 62.2799C43.4706 62.1622 43.5967 61.9267 43.6051 61.582C43.6387 60.8505 43.1261 59.9339 42.4875 59.53L42.4538 59.5048C42.1261 59.3116 41.8236 59.2945 41.6051 59.4208L57.2772 50.3048V50.3133Z" fill="#848B92"/>
<path d="M42.4538 59.5053C41.8655 59.1603 41.3613 59.3705 41.2773 59.9762C41.2773 60.018 41.2689 60.0687 41.2689 60.1106C41.2521 60.6403 41.5126 61.2712 41.8991 61.7251C42.0504 61.8935 42.21 62.0449 42.3865 62.1541C42.4033 62.1626 42.4201 62.1793 42.437 62.1878C43.0588 62.5495 43.5798 62.2718 43.605 61.574C43.6386 60.8421 43.126 59.9255 42.4874 59.5219C42.479 59.5219 42.4622 59.5053 42.4538 59.5053Z" fill="#9FA7B0"/>
<path d="M31.4959 39.7508L31.5967 74.0615L77.2019 47.7147L77.1009 13.4038L31.4959 39.7508Z" fill="#C972FF"/>
<path d="M77.3195 11.9409C77.6639 11.7391 77.941 11.9073 77.941 12.2941L78.042 48.7661L30.7479 76.0888L30.6471 39.6166C30.6471 39.2298 30.9244 38.742 31.2774 38.5402L77.3195 11.9409ZM31.5967 74.062L77.2019 47.7151L77.1094 13.4042L31.5042 39.7512L31.5967 74.062Z" fill="#404040"/>
<path d="M77.3698 11.5707C77.8404 11.3016 78.227 11.5203 78.227 12.0585L78.3361 53.1388C78.3361 53.6771 77.9495 54.3416 77.4875 54.6189L31.353 81.2771C30.874 81.5547 30.4959 81.3278 30.4959 80.7895L30.3866 39.7089C30.3866 39.1707 30.7564 38.5064 31.2354 38.2288L77.3698 11.5707ZM30.7564 76.0886L78.0505 48.766L77.9495 12.2939C77.9495 11.9071 77.6724 11.7389 77.3277 11.9407L31.2858 38.54C30.9413 38.7418 30.6555 39.2296 30.6555 39.6164L30.7564 76.0886Z" fill="#C1C1E8"/>
<path d="M30.4707 37.7751L76.6052 11.117C76.8405 10.9824 77.0588 10.9656 77.21 11.0581L77.9747 11.5038C77.8153 11.4113 77.6051 11.4281 77.3699 11.5627L31.2354 38.2208C30.7564 38.4983 30.3782 39.1627 30.3866 39.7009L30.4959 80.7813C30.4959 81.0505 30.5883 81.2437 30.748 81.3363L29.9832 80.8905C29.832 80.7983 29.7312 80.6047 29.7312 80.3441L29.6219 39.2636C29.6219 38.7254 29.9917 38.061 30.4707 37.7835V37.7751Z" fill="url(#paint2_linear_131_1525)"/>
<path d="M55.857 64.1805C55.857 64.8698 55.3698 65.7191 54.7646 66.0641C54.1597 66.4088 53.6722 66.1315 53.6722 65.4418C53.6722 64.7521 54.1597 63.9029 54.7646 63.5582C55.3698 63.2047 55.857 63.4908 55.857 64.1805Z" fill="#404040"/>
<path d="M55.5881 64.3401C55.5881 64.8617 55.2185 65.5007 54.7646 65.7613C54.3111 66.0219 53.9411 65.8116 53.9411 65.2904C53.9411 64.7691 54.3111 64.1298 54.7646 63.8692C55.2185 63.6085 55.5881 63.8188 55.5881 64.3401Z" fill="#C1C1E8"/>
<path d="M77.6891 45.5705L75.4958 45.8226C75.5546 45.8226 75.6049 45.806 75.6556 45.7804L77.8486 45.5283C77.7982 45.5535 77.7394 45.562 77.6891 45.5705Z" fill="#E0E9F0"/>
<path d="M64.3696 38.8092C65.0251 39.1876 65.731 39.9613 66.0757 40.7013L66.2185 41.0209C66.8404 42.3832 67.3194 43.6867 67.6387 44.9061C67.773 45.4191 67.8825 45.9237 67.9665 46.4031L68.8488 51.7093C68.9243 52.1802 68.5883 52.3064 68.0671 52.0036C67.5462 51.7011 66.9998 51.0618 66.8152 50.532L65.4287 46.5797C64.7562 44.6622 64.1765 42.7953 63.6974 40.9788L63.269 39.3642C63.1007 38.7419 63.3867 38.4392 63.9579 38.6241C64.0337 38.7083 64.2268 38.7251 64.3615 38.8092H64.3696Z" fill="#CFD0E0"/>
<path d="M70.0925 52.0625L69.2102 46.7563C69.1262 46.2432 69.0086 45.7135 68.8654 45.1667C68.521 43.8717 68.0168 42.4926 67.3613 41.0462L67.2185 40.7266C66.6724 39.524 65.5127 38.271 64.4454 37.6487C64.2187 37.5226 64 37.4216 63.7899 37.3544C62.8573 37.06 62.3949 37.5478 62.6638 38.5654L63.0926 40.18C63.5798 42.0217 64.168 43.9222 64.8487 45.8731L66.2352 49.8257C66.5881 50.8349 67.6136 52.0373 68.605 52.6178C69.5968 53.1894 70.2438 52.954 70.0925 52.0625ZM68.0671 52.0037C67.5462 51.7008 66.9999 51.0619 66.8152 50.5321L65.4287 46.5798C64.7562 44.6622 64.1765 42.7953 63.6974 40.9789L63.269 39.3643C63.1007 38.742 63.3867 38.4392 63.9579 38.6242C64.0337 38.7083 64.2268 38.7251 64.3615 38.8092C65.017 39.1876 65.7228 39.9613 66.0672 40.7014L66.21 41.0209C66.8319 42.3833 67.311 43.6868 67.6302 44.9061C67.7649 45.4192 67.874 45.9238 67.958 46.4032L68.8403 51.7093C68.9161 52.1803 68.5798 52.3065 68.059 52.0037H68.0671Z" fill="#CFD0E0"/>
<path d="M71.4117 50.894L70.5294 45.5874C70.4454 45.0743 70.3278 44.5447 70.185 43.9981C69.8402 42.703 69.336 41.3238 68.6808 39.8774L68.5377 39.5578C67.9916 38.3553 66.8319 37.1023 65.7646 36.48C65.5378 36.3538 65.3192 36.2529 65.1091 36.1856C64.6722 36.0427 64.3359 36.0847 64.1343 36.2613L62.8151 37.4386C63.0167 37.2536 63.353 37.22 63.7899 37.363C64 37.4302 64.2183 37.5312 64.4454 37.6573C65.5127 38.2712 66.6721 39.5326 67.2185 40.7352L67.3613 41.0547C68.0168 42.5012 68.521 43.8803 68.8654 45.1754C69.0082 45.7222 69.1259 46.2519 69.2102 46.7647L70.0925 52.0712C70.1513 52.4159 70.0925 52.6684 69.9327 52.8113L71.2522 51.634C71.4117 51.4911 71.4705 51.2471 71.4117 50.894Z" fill="url(#paint3_linear_131_1525)"/>
<path d="M67.5462 42.8374C67.5462 44.0147 66.5463 57.2933 57.7144 57.2933C48.8824 57.2933 47.7647 43.3167 47.7647 42.8374C48.1681 42.8374 67.5462 42.8374 67.5462 42.8374Z" fill="url(#paint4_linear_131_1525)"/>
<path d="M60.4201 40.4912C58.8572 41.3743 56.3446 41.349 54.8234 40.4324C53.3026 39.5241 53.3362 38.0693 54.8992 37.1863C56.4622 36.3033 58.9748 36.3286 60.496 37.2452C62.0168 38.1534 61.9831 39.6083 60.4201 40.4912Z" fill="#C0BACA"/>
<path d="M67.4452 42.0558C67.3864 41.8287 67.3024 41.5176 67.2184 41.2989C67.1345 41.0634 66.9998 40.7523 66.8907 40.5253C66.6976 40.1216 66.3865 39.6086 66.1094 39.247C65.9496 39.0368 65.5881 38.5574 64.9833 38.0192C64.3781 37.481 63.8739 37.1783 63.5798 36.9933C63.3866 36.8755 63.1177 36.7326 62.9161 36.6316C62.7563 36.5476 62.5462 36.455 62.3782 36.3794C61.9328 36.1859 61.5629 36.0682 61.2015 35.9505C61.1511 35.9337 60.7057 35.7907 60.0421 35.6646C59.6052 35.5805 59.1513 35.5216 58.8908 35.4964C58.7225 35.4796 58.4872 35.4543 58.3193 35.4543C58.1513 35.4543 57.916 35.4375 57.7477 35.4375C57.5798 35.4375 57.3445 35.4375 57.1765 35.4375C56.8151 35.4375 56.3782 35.488 56.0253 35.53C56.0253 35.53 55.4538 35.5973 54.8571 35.7318C54.6639 35.7739 54.4117 35.8412 54.2267 35.8916C54.0587 35.9421 53.832 36.0093 53.6637 36.0682C53.4539 36.1355 53.1849 36.2448 52.9832 36.3289C52.8151 36.3962 52.605 36.4971 52.4453 36.5728C52.2269 36.6737 51.9495 36.8251 51.7479 36.9512C51.4453 37.1362 51.0588 37.3885 50.7815 37.5987C50.5042 37.809 50.1596 38.1117 49.9159 38.3556C49.7143 38.5658 49.4454 38.8434 49.2773 39.0788C49.1765 39.2134 49.042 39.39 48.9495 39.5245C48.8151 39.7348 48.6386 40.0291 48.5126 40.2477C48.3949 40.458 48.2605 40.7439 48.1764 40.971C48.0588 41.2737 47.9327 41.6942 47.8403 42.0053C47.4285 43.7041 48.3193 45.4868 50.5378 46.8155C54.3443 49.0945 60.6051 49.1533 64.5209 46.9584C66.8655 45.6382 67.8403 43.8134 67.4201 42.0642L67.4452 42.0558ZM60.4201 40.4916C58.8572 41.3746 56.3446 41.3494 54.8234 40.4327C53.3026 39.5245 53.3362 38.0697 54.8992 37.1867C56.4622 36.3037 58.9748 36.3289 60.4956 37.2455C62.0168 38.1538 61.9831 39.6086 60.4201 40.4916Z" fill="url(#paint5_linear_131_1525)"/>
<g style="mix-blend-mode:multiply">
<path d="M59.9411 56.982C59.2604 57.1838 58.5128 57.293 57.7059 57.293C51.0168 57.293 48.7563 49.2788 48.0504 45.1836C49.3613 44.1911 48.9411 42.3494 49.7143 41.9037C50.0336 41.7187 50.2353 41.6094 50.2353 41.6094C50.3361 41.6935 52 42.5092 52.4286 43.0474C53.9075 44.9143 52.9327 50.9858 53.8908 53.879C54.7228 56.3682 57.1681 57.1501 59.9411 56.982Z" fill="#EBEBEB"/>
</g>
<path d="M62.706 42.1393C59.9074 43.7539 55.3613 43.7455 52.5547 42.1225C49.7395 40.4994 49.7311 37.8672 52.521 36.2526C55.3195 34.638 59.8656 34.6464 62.6723 36.2694C65.4875 37.8925 65.4957 40.5246 62.706 42.1393Z" fill="#D4D5E6"/>
<path d="M51.2773 39.9362C51.5042 40.0707 51.8067 40.2473 52.042 40.3567C52.4341 40.5417 52.8347 40.7127 53.2438 40.8697C53.4284 40.9369 53.6807 41.021 53.8656 41.0715C54.2101 41.164 54.6721 41.2817 55.025 41.3574C55.21 41.3994 55.4623 41.4415 55.6469 41.4667C55.8234 41.4919 56.0671 41.5256 56.2521 41.5424C56.4371 41.5592 56.6723 41.5761 56.857 41.5929C57.0419 41.6013 57.2857 41.6097 57.4622 41.6097C57.6471 41.6097 57.8906 41.6097 58.067 41.6097C58.252 41.6097 58.5043 41.5929 58.6889 41.5761C59.0503 41.5424 59.5294 41.4751 59.8908 41.4247C60.0839 41.3911 60.3443 41.3406 60.5378 41.2985C60.7143 41.2565 60.9495 41.1976 61.126 41.1556C61.3361 41.0967 61.6136 41.0042 61.8152 40.9453C62.0586 40.8697 62.3782 40.7435 62.6135 40.6426C62.9328 40.508 63.3445 40.3062 63.6386 40.138C63.899 39.9951 64.2268 39.7848 64.4706 39.625C64.6385 39.5157 64.8572 39.3475 65.0166 39.2214C65.2437 39.0364 65.5378 38.7673 65.7561 38.5654C65.3277 38.9943 64.7898 39.3896 64.1428 39.7512C60.3865 41.8452 54.4287 41.7863 50.8235 39.6166C50.3109 39.3055 49.8655 38.9691 49.5042 38.6159C49.6806 38.7841 49.9243 38.9943 50.1092 39.1541C50.1932 39.2298 50.3193 39.3223 50.4117 39.3896C50.6638 39.583 51.0084 39.8101 51.2773 39.9782V39.9362Z" fill="url(#paint6_linear_131_1525)"/>
<path d="M58.6974 41.5509C63.6638 41.5509 68.8403 36.6145 68.8403 33.2423C68.8403 32.0313 68.7648 30.0803 68.1681 28.0789C67.1093 24.5132 47.3193 26.2792 46.9159 28.8189C46.8235 29.4328 46.7983 29.8785 46.7731 30.0214C46.647 30.7783 45.8403 35.0336 48.8991 37.9769C51.9663 40.9202 54.9244 41.5509 58.6889 41.5509H58.6974Z" fill="url(#paint7_linear_131_1525)"/>
<path d="M68.3109 28.6001C68.2435 28.3479 68.1511 28.0199 68.0671 27.776C67.9746 27.5153 67.8318 27.1789 67.7142 26.9266C67.504 26.4893 67.1681 25.9259 66.8655 25.5306C66.6976 25.3036 66.294 24.7822 65.6385 24.1935C64.9833 23.6133 64.4369 23.2769 64.1091 23.0751C63.899 22.9489 63.6049 22.7891 63.3866 22.6798C63.2183 22.5957 62.9831 22.4864 62.8066 22.4107C62.3194 22.2005 61.9158 22.0659 61.5292 21.9482C61.4789 21.9314 60.9917 21.78 60.2688 21.6371C59.7898 21.5445 59.2941 21.4773 59.0166 21.4521C58.832 21.4352 58.5797 21.41 58.3948 21.4016C58.2101 21.4016 57.9579 21.3848 57.7729 21.3848C57.5883 21.3848 57.336 21.3848 57.1514 21.3848C56.7563 21.3848 56.2772 21.4436 55.8992 21.4857C55.8992 21.4857 55.2773 21.5614 54.6303 21.7043C54.4202 21.7548 54.1512 21.8221 53.9496 21.8809C53.7646 21.9314 53.5209 22.0155 53.3444 22.0743C53.1176 22.15 52.8235 22.2677 52.605 22.3519C52.4285 22.4275 52.1933 22.5368 52.0168 22.621C51.7815 22.7303 51.4706 22.8985 51.2521 23.033C50.9244 23.2348 50.5042 23.5124 50.2016 23.7394C49.9075 23.9665 49.521 24.3028 49.2605 24.5635C49.042 24.7906 48.7479 25.1018 48.563 25.354C48.4537 25.497 48.3025 25.6904 48.2101 25.8418C48.0588 26.0773 47.8739 26.3884 47.7395 26.6323C47.6134 26.8593 47.4706 27.1705 47.3781 27.4144C47.2521 27.7424 47.1092 28.1965 47.0168 28.5413C46.563 30.3914 47.5378 32.3339 49.958 33.7804C54.1009 36.2612 60.9244 36.3285 65.1934 33.9318C67.7478 32.4937 68.8066 30.5007 68.353 28.6001H68.3109Z" fill="url(#paint8_linear_131_1525)"/>
<path d="M68.706 32.2075C68.7311 32.9055 68.706 33.3007 68.5883 33.7212C68.1932 35.0331 67.143 36.2441 65.3529 37.2364C62.3194 38.9267 58.0755 39.4397 54.3192 38.7753C53.1513 38.5146 52.7143 38.4137 52.1345 33.4101C52.0588 32.0057 52.5378 31.8964 52.9664 31.972C56.605 33.0905 61.2351 32.7878 64.3696 31.0302C66.4201 29.8865 67.4286 28.356 67.3864 26.8338C67.3864 26.8002 67.3864 26.7582 67.3864 26.7329C67.4537 26.7666 67.5041 26.8002 67.5462 26.8674C67.5462 26.8674 68.5125 28.7007 68.6808 32.2075H68.706Z" fill="#003447"/>
<path d="M59.2101 34.2261C58.3445 34.2681 57.6386 35.21 57.6386 36.3285C57.6386 36.5219 57.6638 36.7069 57.6974 36.8835C58.1513 36.7153 58.6637 36.606 59.2101 36.5724C59.7561 36.5471 60.2689 36.606 60.7228 36.7321C60.7646 36.5555 60.7816 36.3621 60.7816 36.1687C60.7816 35.0503 60.0757 34.1841 59.2101 34.2261Z" fill="#99FA46"/>
<path d="M65.3865 32.0733C64.8068 32.5358 64.5127 33.7216 64.7229 34.7307C64.7562 34.9073 64.8068 35.0671 64.8657 35.2016C65.1346 34.8316 65.462 34.4784 65.8234 34.1925C66.1849 33.9066 66.5463 33.7132 66.874 33.6038C66.874 33.4188 66.8489 33.2423 66.8067 33.0657C66.5966 32.0565 65.9581 31.6108 65.3865 32.0649V32.0733Z" fill="#99FA46"/>
<path d="M49.1933 43.0729C49.8488 43.4513 50.3277 44.3511 50.3277 45.2929V45.6968C50.311 47.429 50.1345 49.1109 49.8067 50.7172C49.6639 51.3984 49.4958 52.0544 49.3025 52.6933L47.1597 59.7658C46.9748 60.3881 46.4286 60.632 45.9076 60.3292C45.3866 60.0264 45.0504 59.2697 45.1261 58.5885L45.7311 53.4756C46.0252 50.9945 46.4202 48.5644 46.9076 46.1844L47.3446 44.0736C47.5126 43.2579 48.0924 42.7786 48.7563 42.9131C48.8067 43.014 49.0504 42.9972 49.1933 43.0813V43.0729Z" fill="url(#paint9_linear_131_1525)"/>
<path d="M49.7311 41.8365C49.5042 41.7104 49.2689 41.6179 49.0252 41.5674C47.9328 41.3572 47 42.1309 46.7227 43.4596L46.2857 45.5703C45.7899 47.9922 45.3866 50.4648 45.0841 52.9793L44.479 58.0922C44.3278 59.3957 44.9664 60.8251 45.958 61.4055C46.9496 61.9775 47.9832 61.5147 48.3446 60.329L50.4874 53.2566C50.6975 52.5754 50.874 51.8775 51.0168 51.1627C51.3698 49.4641 51.5546 47.6812 51.563 45.848V45.4441C51.5798 43.9137 50.7899 42.442 49.7227 41.8281L49.7311 41.8365ZM49.7983 50.7169C49.6555 51.3981 49.4874 52.0541 49.2941 52.6931L47.1513 59.7655C46.9664 60.3878 46.4202 60.6318 45.8992 60.329C45.3782 60.0261 45.042 59.2694 45.1176 58.5883L45.7227 53.4753C46.0168 50.9946 46.4118 48.5642 46.8992 46.1841L47.3361 44.0735C47.5042 43.2578 48.084 42.7784 48.7479 42.913C48.7983 43.0139 49.042 42.9971 49.1849 43.0812C49.8404 43.4596 50.3193 44.3594 50.3193 45.3012V45.7051C50.3025 47.4373 50.1261 49.1191 49.7983 50.7254V50.7169Z" fill="url(#paint10_linear_131_1525)"/>
<path d="M51.0504 41.4749C50.8235 41.3488 50.5882 41.2562 50.3445 41.2058C50.0672 41.1553 49.7983 41.1637 49.5462 41.231L48.2353 41.5842C48.4874 41.5169 48.7563 41.5085 49.0336 41.559C49.2773 41.6094 49.5126 41.6935 49.7395 41.8281C50.8067 42.442 51.5966 43.9137 51.5798 45.4441V45.848C51.563 47.6812 51.3781 49.4638 51.0252 51.1627C50.8739 51.8775 50.6975 52.5754 50.4958 53.2565L48.3529 60.329C48.1429 61.0186 47.7143 61.4644 47.1933 61.6073L48.5042 61.2541C49.0252 61.1112 49.4622 60.6655 49.6638 59.9758L51.8067 52.9034C52.0168 52.2222 52.1933 51.5243 52.3361 50.8095C52.6891 49.1106 52.8739 47.328 52.8824 45.4948V45.0909C52.8991 43.5604 52.1092 42.0888 51.042 41.4749H51.0504Z" fill="url(#paint11_linear_131_1525)"/>
<path d="M85.8321 27.5405C85.8321 27.5405 85.7899 27.591 85.7648 27.6246C85.3949 28.0871 84.9665 28.4824 84.5041 28.7431L84.7142 28.5328C85.1178 28.2974 85.5043 27.9526 85.8321 27.5405Z" fill="#A3E26D"/>
<path d="M86.6471 26.1024C86.6471 26.1024 86.6219 26.1697 86.6049 26.1949C86.8069 25.6988 86.916 25.1858 86.916 24.7065L86.9915 24.4121C86.9915 24.9503 86.8657 25.5306 86.6386 26.094L86.6471 26.1024Z" fill="#99FA46"/>
<path d="M86.9075 20.4261L86.9915 20.1401L87 24.4206L86.9245 24.7149L86.9075 20.4261Z" fill="#A3E26D"/>
<path d="M84.689 19.1646L84.4789 18.7021C85.8654 17.9032 86.9834 18.5423 86.9915 20.1317L86.916 20.426C86.916 19.0216 85.9161 18.4582 84.6975 19.1562L84.689 19.1646Z" fill="#A3E26D"/>
<path d="M85.3279 17.9874L86.252 18.5256C85.7984 18.2649 85.1681 18.2985 84.4707 18.7022L83.5463 18.164C84.2436 17.7604 84.874 17.7267 85.3279 17.9874Z" fill="#69C619"/>
<path d="M84.7142 28.5327L84.5041 28.743L77.5293 32.7795L77.5966 32.6534L84.7142 28.5327Z" fill="#A3E26D"/>
<path d="M75.2438 37.699L74.3108 37.1607L74.2269 33.6035L75.1598 34.1501L75.2438 37.699Z" fill="#69C619"/>
<path d="M75.7226 36.6732L75.2438 37.6992L75.1599 34.1504L75.6556 33.772L75.7226 36.6732Z" fill="#A3E26D"/>
<path d="M75.6555 33.772L75.1595 34.1504L73.8824 34.882L74.1007 34.6718L75.6555 33.772Z" fill="#A3E26D"/>
<path d="M72.1094 35.0585L71.1849 34.5203C70.7395 34.2596 70.4539 33.7046 70.4539 32.9141L71.378 33.4523C71.378 34.2428 71.6555 34.7978 72.1094 35.0585Z" fill="#69C619"/>
<path d="M74.1007 34.6716L73.8906 34.8818C72.5041 35.6807 71.3865 35.0416 71.378 33.4522L71.8822 33.4102C71.8822 34.8145 72.8822 35.378 74.1007 34.68V34.6716Z" fill="#A3E26D"/>
<path d="M71.8822 33.402L71.378 33.4525L71.3614 29.1636L71.8656 29.1216L71.8822 33.402Z" fill="#A3E26D"/>
<path d="M71.378 33.4525L70.4454 32.9059L70.4369 28.6255L71.3613 29.1637L71.378 33.4525Z" fill="#69C619"/>
<path d="M73.8573 24.8412L72.9328 24.303L83.5463 18.1641L84.4789 18.7023L73.8573 24.8412Z" fill="#69C619"/>
<path d="M74.0756 25.2952L73.8573 24.8411L84.4789 18.7021L84.689 19.1647L74.0756 25.2952Z" fill="#A3E26D"/>
<path d="M70.7816 26.9434C70.7816 26.9434 70.7816 26.9434 70.7816 26.935C70.7816 26.935 70.7816 26.935 70.7816 26.9266C70.7816 26.9266 70.7816 26.9266 70.7816 26.9182C70.7816 26.9182 70.7816 26.9182 70.7816 26.9098C70.7816 26.9098 70.7816 26.9098 70.7816 26.9014C70.7816 26.9014 70.7816 26.9014 70.7816 26.893C70.7816 26.893 70.7816 26.893 70.7816 26.8846C70.9748 26.4052 71.2437 25.9427 71.563 25.5391C71.2015 25.9932 70.8993 26.523 70.6807 27.0612L70.7816 26.9434Z" fill="#69C619"/>
<path d="M84.689 19.1648C85.9076 18.4584 86.9075 19.0218 86.9075 20.4346V24.7151C86.9245 26.1195 85.9327 27.835 84.7142 28.5414L77.5881 32.6536L75.7144 36.6818L75.6471 33.7805L74.0926 34.6803C72.874 35.3867 71.8741 34.8233 71.8741 33.4105V29.1301C71.8571 27.7257 72.8489 26.0101 74.0671 25.3122L84.689 19.1732V19.1648Z" fill="#99FA46"/>
<path d="M71.8656 29.1213L71.3614 29.1633C71.3614 27.5739 72.4704 25.6397 73.857 24.8408L74.0671 25.3033C72.8489 26.0097 71.8571 27.7169 71.8656 29.1213Z" fill="#A3E26D"/>
<path d="M71.3613 29.1634L70.4369 28.6252C70.4369 27.0358 71.5463 25.1016 72.9328 24.3027L73.8573 24.8409C72.4708 25.6398 71.3613 27.574 71.3613 29.1634Z" fill="#69C619"/>
<path d="M76.4032 30.5173L76.8908 30.7948C76.8404 30.7612 76.7646 30.7864 76.6973 30.8201L76.2101 30.5426C76.2774 30.5089 76.3529 30.4837 76.4032 30.5173Z" fill="#69C619"/>
<path d="M75.8402 31.3161L75.353 31.0387L76.2101 30.5425L76.6892 30.8284L75.8402 31.3161Z" fill="#69C619"/>
<path d="M75.5461 31.4085L75.0589 31.131C75.1177 31.1646 75.2017 31.131 75.353 31.0469L75.8402 31.3244C75.6889 31.4085 75.6134 31.4506 75.5461 31.4085Z" fill="#69C619"/>
<path d="M75.1846 32.0483L74.6974 31.7708C74.6216 31.7287 74.5628 31.6531 74.504 31.5605L74.9915 31.8381C75.0503 31.939 75.1092 32.0062 75.1846 32.0483Z" fill="#69C619"/>
<path d="M74.9915 31.8382L74.5125 31.5523L74.0253 30.7197L74.5125 30.9972L74.9915 31.8382Z" fill="#69C619"/>
<path d="M76.3865 26.447L76.8741 26.7246C76.8234 26.6909 76.748 26.7161 76.6806 26.7498L76.1934 26.4723C76.2604 26.4387 76.3362 26.4134 76.3865 26.447Z" fill="#69C619"/>
<path d="M74.5125 30.9969L74.0252 30.7194C73.9328 30.568 73.8824 30.3998 73.8824 30.1728C73.8824 29.9121 73.9243 29.7187 74.0252 29.4243L74.5125 29.7019C74.4118 30.0046 74.3697 30.1896 74.3697 30.4503C74.3697 30.6858 74.4203 30.8455 74.5125 30.9969Z" fill="#69C619"/>
<path d="M75.7899 27.2716L75.3108 26.9856L76.1934 26.4727L76.6807 26.7586L75.7899 27.2716Z" fill="#69C619"/>
<path d="M74.5125 29.6934L74.0253 29.4159L74.5043 28.0283L74.9915 28.3058L74.5125 29.6934Z" fill="#69C619"/>
<path d="M76.6807 26.7583C76.7983 26.6911 76.9411 26.6827 76.9411 26.9097C76.9411 27.1284 76.7983 27.2881 76.6807 27.3639L75.8069 27.8684C75.5797 27.9945 75.5461 28.045 75.4455 28.3309L74.9915 29.6344C74.9242 29.8362 74.8824 29.9708 74.8824 30.1558C74.8824 30.324 74.9327 30.3997 74.9915 30.509L75.4369 31.2911C75.5379 31.4761 75.5967 31.4677 75.832 31.3331L76.6807 30.8454C76.7983 30.7781 76.9411 30.7697 76.9411 30.9967C76.9411 31.2154 76.7983 31.3752 76.6807 31.4509L75.7647 31.9807C75.3696 32.2077 75.1514 32.1572 74.9831 31.8629L74.4958 31.022C74.4034 30.8706 74.353 30.7024 74.353 30.4754C74.353 30.2147 74.3949 30.0213 74.4958 29.7269L74.9749 28.3393C75.1514 27.8264 75.3781 27.532 75.7814 27.2966L76.6722 26.7836L76.6807 26.7583Z" fill="white"/>
<path d="M74.9915 28.3057L74.504 28.0281C74.6804 27.5152 74.9075 27.2208 75.3108 26.9854L75.7983 27.2629C75.3948 27.4983 75.168 27.7843 74.9915 28.3057Z" fill="#69C619"/>
<path d="M80.269 29.2728L79.7815 28.9953C79.7815 28.9953 79.7397 28.9701 79.7227 28.9448L80.2102 29.2224C80.2102 29.2224 80.2435 29.256 80.269 29.2728Z" fill="#69C619"/>
<path d="M78.1933 30.4835L77.7058 30.206C77.664 30.1808 77.6388 30.1135 77.6388 30.021L78.126 30.2985C78.126 30.3995 78.143 30.4583 78.1933 30.4835Z" fill="#69C619"/>
<path d="M79.8066 26.4892L79.3194 26.2117C79.4622 26.1276 79.6975 25.9846 79.6975 25.7407L80.185 26.0183C80.185 26.2621 79.9579 26.4051 79.8066 26.4892Z" fill="#69C619"/>
<path d="M80.1765 26.0182L79.6975 25.7407V25.3286L80.1765 25.6061V26.0182Z" fill="#69C619"/>
<path d="M79.6387 25.1855L80.1259 25.4631C80.1259 25.4631 80.1847 25.522 80.1847 25.5976L79.6975 25.3201C79.6975 25.2444 79.6723 25.2024 79.6387 25.1855Z" fill="#69C619"/>
<path d="M80.2184 29.2222L79.7311 28.9447L78.2858 27.4058L78.7649 27.6917L80.2184 29.2222Z" fill="#69C619"/>
<path d="M78.6469 27.1622L78.1597 26.8763L79.3194 26.2119L79.8066 26.4895L78.6469 27.1622Z" fill="#69C619"/>
<path d="M80.0086 24.5633L80.4958 24.8408C80.336 24.7484 80.1092 24.7736 79.8739 24.9081L79.3867 24.6306C79.6135 24.4961 79.8488 24.4708 80.0086 24.5633Z" fill="#69C619"/>
<path d="M78.1175 25.9259L77.6388 25.64L79.3867 24.6309L79.874 24.9084L78.1175 25.9259Z" fill="#69C619"/>
<path d="M78.1345 30.2901L77.647 30.0126L77.6388 25.6396L78.1175 25.9256L78.1345 30.2901Z" fill="#69C619"/>
<path d="M80.7059 25.7156C80.7059 26.2791 80.3023 26.8005 79.8824 27.0443L79.4034 27.3218L80.5798 28.5749C80.6386 28.6337 80.7141 28.701 80.7141 28.8187C80.7141 28.9869 80.5964 29.1719 80.4455 29.2561C80.3445 29.3149 80.269 29.2813 80.2184 29.2224L78.773 27.6919L78.6554 27.7592V29.9961C78.6554 30.1895 78.5881 30.3409 78.4034 30.4502C78.2185 30.5595 78.1427 30.4922 78.1427 30.2988V25.9259L79.8824 24.9167C80.2942 24.6813 80.7059 24.7738 80.7059 25.312V25.724V25.7156ZM78.6469 27.1537L79.8066 26.4809C79.9494 26.3968 80.1847 26.2538 80.1847 26.01V25.5979C80.1847 25.3624 79.9664 25.4549 79.8151 25.539L78.6554 26.2118V27.1452L78.6469 27.1537Z" fill="white"/>
<path d="M84.0083 27.1202L83.5211 26.8427C83.479 26.8175 83.4538 26.7502 83.4538 26.6577L83.941 26.9352C83.941 27.0361 83.958 27.095 84.0083 27.1202Z" fill="#69C619"/>
<path d="M81.9581 28.3142L81.4706 28.0367C81.4284 28.0115 81.4033 27.9442 81.4033 27.8433L81.8908 28.1208C81.8908 28.2217 81.9075 28.2806 81.9581 28.3142Z" fill="#69C619"/>
<path d="M83.9495 26.9347L83.4623 26.6488L83.4538 23.1084L83.9329 23.3943L83.9495 26.9347Z" fill="#69C619"/>
<path d="M82.9999 25.1604L82.5127 24.8829C82.4538 24.8493 82.4283 24.7568 82.4283 24.6475L82.9159 24.9249C82.9159 25.0343 82.9411 25.1268 82.9999 25.1604Z" fill="#69C619"/>
<path d="M82.9074 24.9257L82.4283 24.6482V24.5557L82.9074 24.8332V24.9257Z" fill="#69C619"/>
<path d="M83.1682 24.0675L82.6891 23.7816L83.3192 22.3604L83.8067 22.6379L83.1682 24.0675Z" fill="#69C619"/>
<path d="M83.8067 22.6379L83.3192 22.3604L83.9747 21.9819L84.4537 22.2679L83.8067 22.6379Z" fill="#69C619"/>
<path d="M82.9074 24.8327L82.4287 24.5551L81.9326 23.9917L82.4117 24.2692L82.9074 24.8327Z" fill="#69C619"/>
<path d="M81.8908 28.1207L81.4033 27.8431L81.3948 23.4702L81.8738 23.7561L81.8908 28.1207Z" fill="#69C619"/>
<path d="M84.4537 22.2676V26.6405C84.4704 26.8339 84.3949 26.9853 84.21 27.0946C84.025 27.2039 83.9495 27.1367 83.9495 26.9433V23.4029L83.4368 24.5381V24.6306C83.4368 24.8157 83.378 25.0259 83.1764 25.1436C82.9914 25.253 82.9159 25.1184 82.9159 24.9334V24.8409L82.4202 24.2774V27.8263C82.4202 28.0197 82.3444 28.1711 82.1594 28.2804C81.9748 28.3897 81.899 28.3224 81.899 28.129V23.7561L82.5379 23.3776L83.1764 24.0672L83.8067 22.646L84.4622 22.2676H84.4537Z" fill="white"/>
<path d="M81.8738 23.7562L81.3948 23.4702L82.0421 23.0918L82.5294 23.3777L81.8738 23.7562Z" fill="#69C619"/>
<path d="M19.7143 54.3497L19.0084 53.9376L42.0336 40.6338L42.7479 41.0459L19.7143 54.3497Z" fill="#2E3344"/>
<path d="M19.7563 73.4986L19.042 73.0865L19.0084 53.938L19.7143 54.35L19.7563 73.4986Z" fill="#404040"/>
<path d="M19.7143 54.3496L19.0084 53.9376L19 50.9355L19.7059 51.3476L19.7143 54.3496Z" fill="#99FA46"/>
<path d="M19.7059 51.3476L19 50.9356L42.0252 37.6318L42.7395 38.0439L19.7059 51.3476Z" fill="#A3E26D"/>
<path d="M42.7395 38.0435L42.7479 41.0457L19.7143 54.3496L19.7059 51.3472L42.7395 38.0435Z" fill="#99FA46"/>
<path d="M42.7815 60.1944L42.7479 41.0459L19.7143 54.3496L19.7563 73.4981L42.7815 60.1944Z" fill="#545454"/>
<path d="M23.7983 62.5744L24.2773 62.852C24.2017 62.8098 24.0924 62.8101 23.9664 62.8857L23.4874 62.608C23.605 62.541 23.7142 62.5325 23.7983 62.5744Z" fill="#CBD2DE"/>
<path d="M22.0336 65.072L21.5546 64.7947C21.479 64.7525 21.4286 64.6518 21.4286 64.5171L21.9076 64.7947C21.9076 64.9291 21.958 65.0302 22.0336 65.072Z" fill="#CBD2DE"/>
<path d="M21.9076 64.7863L21.437 64.5171L21.4286 64.2983L21.9076 64.576V64.7863Z" fill="#CBD2DE"/>
<path d="M22.3445 63.8189L21.8655 63.5412L23.4873 62.6079L23.9663 62.8852L22.3445 63.8189Z" fill="#CBD2DE"/>
<path d="M21.9076 64.5757L21.4286 64.298C21.4286 64.0207 21.6218 63.6842 21.8655 63.5498L22.3445 63.8271C22.1008 63.9703 21.9076 64.2984 21.9076 64.5757Z" fill="#CBD2DE"/>
<path d="M23.9664 62.8857C24.2101 62.7428 24.4034 62.8606 24.4034 63.1379V63.3566C24.4034 63.6343 24.2101 63.9705 23.9664 64.1052L22.3445 65.0385C22.1008 65.1814 21.9076 65.0637 21.9076 64.7864V64.5676C21.9076 64.29 22.1008 63.9538 22.3445 63.819L23.9664 62.8857Z" fill="white"/>
<path d="M26.0336 61.288L26.5125 61.5653C26.4369 61.5234 26.3277 61.5234 26.2016 61.599L25.7227 61.3217C25.8403 61.2543 25.9495 61.2458 26.0336 61.288Z" fill="#FF1F41"/>
<path d="M25.3193 63.1721L24.8403 62.8945C24.7646 62.8526 24.7142 62.7516 24.7142 62.6172L25.1932 62.8945C25.1932 63.0292 25.2436 63.1299 25.3193 63.1721Z" fill="#FF1F41"/>
<path d="M25.1933 62.894L24.7227 62.6164V62.3979L25.1933 62.6753V62.894Z" fill="#FF1F41"/>
<path d="M25.6302 61.9268L25.1512 61.6495L25.7226 61.313L26.2016 61.5906L25.6302 61.9268Z" fill="#FF1F41"/>
<path d="M25.1932 62.6753L24.7142 62.398C24.7142 62.1203 24.9075 61.7838 25.1512 61.6494L25.6302 61.9267C25.3865 62.07 25.1932 62.398 25.1932 62.6753Z" fill="#FF1F41"/>
<path d="M26.2016 61.5908C26.4453 61.4479 26.6386 61.5656 26.6386 61.8429V62.0617C26.6386 62.339 26.4453 62.6755 26.2016 62.8103L25.6302 63.1379C25.3865 63.2812 25.1932 63.1635 25.1932 62.8943V62.6755C25.1932 62.3982 25.3865 62.0617 25.6302 61.927L26.2016 61.5993V61.5908Z" fill="#FF5F76"/>
<path d="M25.1009 59.3283L25.5799 59.6059C25.5042 59.5641 25.395 59.5637 25.2689 59.6396L24.7899 59.3619C24.9076 59.2949 25.0168 59.2864 25.1009 59.3283Z" fill="#FF8400"/>
<path d="M22.0252 62.5748L21.5462 62.2972C21.4706 62.255 21.4202 62.1543 21.4202 62.0195L21.8992 62.2972C21.8992 62.4316 21.9496 62.5326 22.0252 62.5748Z" fill="#FF8400"/>
<path d="M21.8992 62.2969L21.4286 62.0196V61.8008L21.8992 62.0784V62.2969Z" fill="#FF8400"/>
<path d="M22.3362 61.3302L21.8572 61.0525L24.7899 59.354L25.2605 59.6313L22.3362 61.3302Z" fill="#FF8400"/>
<path d="M21.8992 62.0781L21.4202 61.8008C21.4202 61.5231 21.6134 61.1866 21.8571 61.0522L22.3361 61.3299C22.0924 61.4728 21.8992 61.809 21.8992 62.0781Z" fill="#FF8400"/>
<path d="M25.2605 59.631C25.5043 59.4966 25.6975 59.6058 25.6975 59.8835V60.1019C25.6975 60.3796 25.5042 60.7161 25.2689 60.8505L22.3362 62.5408C22.0925 62.6837 21.8992 62.566 21.8992 62.2887V62.0699C21.8992 61.7923 22.0925 61.4561 22.3362 61.3214L25.2689 59.631H25.2605Z" fill="#FFB30F"/>
<path d="M23.7815 57.5878L24.2605 57.8651C24.1848 57.8232 24.0756 57.8232 23.9495 57.8988L23.4706 57.6215C23.5882 57.5541 23.6974 57.5456 23.7815 57.5878Z" fill="#FF8400"/>
<path d="M22.0252 60.0764L21.5462 59.7991C21.4706 59.7569 21.4202 59.6559 21.4202 59.5215L21.8992 59.7991C21.8992 59.9335 21.9496 60.0346 22.0252 60.0764Z" fill="#FF8400"/>
<path d="M21.8908 59.7996L21.4202 59.522V59.3032L21.8908 59.5809V59.7996Z" fill="#FF8400"/>
<path d="M22.3277 58.8322L21.8487 58.5546L23.4705 57.6128L23.9495 57.8904L22.3277 58.8322Z" fill="#FF8400"/>
<path d="M21.8907 59.5805L21.4117 59.3032C21.4117 59.0256 21.605 58.6894 21.8487 58.5547L22.3277 58.8323C22.084 58.9752 21.8907 59.3117 21.8907 59.5805Z" fill="#FF8400"/>
<path d="M23.9495 57.8903C24.1933 57.7474 24.3866 57.8652 24.3866 58.1343V58.3531C24.3866 58.6304 24.1933 58.9669 23.9495 59.1016L22.3277 60.0349C22.084 60.1778 21.8907 60.0601 21.8907 59.791V59.5725C21.8907 59.2949 22.084 58.9584 22.3277 58.824L23.9495 57.8903Z" fill="#FFB30F"/>
<path d="M28.5209 57.3524L29 57.6297C28.9243 57.5879 28.8151 57.5879 28.689 57.6634L28.2101 57.3861C28.3277 57.3187 28.4369 57.3102 28.5209 57.3524Z" fill="#CBD2DE"/>
<path d="M26.7563 59.8416L26.2773 59.5643C26.2017 59.5221 26.1512 59.421 26.1512 59.2866L26.6302 59.5643C26.6302 59.6987 26.6807 59.7997 26.7563 59.8416Z" fill="#CBD2DE"/>
<path d="M26.6302 59.564L26.1512 59.2866V59.0679L26.6302 59.3455V59.564Z" fill="#CBD2DE"/>
<path d="M27.0589 58.5969L26.5883 58.3193L28.2101 57.3774L28.6891 57.6551L27.0589 58.5969Z" fill="#CBD2DE"/>
<path d="M26.6302 59.3452L26.1512 59.0675C26.1512 58.7902 26.3445 58.4537 26.5882 58.3193L27.0672 58.5966C26.8235 58.7314 26.6302 59.0675 26.6302 59.3452Z" fill="#CBD2DE"/>
<path d="M28.6891 57.6551C28.9328 57.5204 29.126 57.6299 29.126 57.9072V58.126C29.126 58.4037 28.9328 58.7398 28.6975 58.8746L27.0756 59.8164C26.8319 59.9508 26.6387 59.8416 26.6387 59.5639V59.3455C26.6387 59.0678 26.8319 58.7313 27.0672 58.5969L28.6891 57.6551Z" fill="white"/>
<path d="M39.8655 48.2952L40.3445 48.5728C40.2688 48.5306 40.1596 48.5306 40.0336 48.6065L39.5546 48.3288C39.6722 48.2615 39.7814 48.2533 39.8655 48.2952Z" fill="#FF8400"/>
<path d="M38.1008 50.7844L37.6218 50.5068C37.5462 50.4649 37.4958 50.3639 37.4958 50.2295L37.9748 50.5068C37.9748 50.6415 38.0252 50.7422 38.1008 50.7844Z" fill="#FF8400"/>
<path d="M37.9748 50.5072L37.4958 50.2295V50.0107L37.9748 50.2884V50.5072Z" fill="#FF8400"/>
<path d="M38.4033 49.5396L37.9327 49.2619L39.5546 48.3286L40.0251 48.5978L38.4033 49.5396Z" fill="#FF8400"/>
<path d="M37.9748 50.2881L37.4958 50.0104C37.4958 49.7331 37.689 49.3966 37.9327 49.2622L38.4117 49.5395C38.168 49.6824 37.9748 50.0189 37.9748 50.2881Z" fill="#FF8400"/>
<path d="M40.0252 48.598C40.2689 48.4633 40.4622 48.5725 40.4622 48.8502V49.0689C40.4622 49.3463 40.2689 49.6828 40.0336 49.8172L38.4117 50.7508C38.1681 50.8937 37.9748 50.776 37.9748 50.5068V50.2881C37.9748 50.0108 38.1681 49.6742 38.4117 49.5399L40.0336 48.6062L40.0252 48.598Z" fill="#FFB30F"/>
<path d="M28.5126 54.8544L28.9916 55.1317C28.916 55.0899 28.8068 55.0899 28.6807 55.1654L28.2017 54.8878C28.3194 54.8207 28.4286 54.8122 28.5126 54.8544Z" fill="#FF8400"/>
<path d="M25.4454 58.1007L24.9664 57.8231C24.8908 57.7809 24.8404 57.6801 24.8404 57.5454L25.3194 57.8231C25.3194 57.9574 25.3698 58.0585 25.4454 58.1007Z" fill="#FF8400"/>
<path d="M25.3194 57.8232L24.8404 57.5456V57.3271L25.3194 57.6044V57.8232Z" fill="#FF8400"/>
<path d="M25.7479 56.856L25.2773 56.5784L28.2017 54.8799L28.6807 55.1572L25.7479 56.856Z" fill="#FF8400"/>
<path d="M25.3194 57.6045L24.8404 57.3272C24.8404 57.0495 25.0336 56.7134 25.2773 56.5786L25.7563 56.8563C25.5126 56.9992 25.3194 57.3353 25.3194 57.6045Z" fill="#FF8400"/>
<path d="M28.6807 55.1574C28.9244 55.023 29.1177 55.1322 29.1177 55.4095V55.6283C29.1177 55.9059 28.9244 56.2421 28.6891 56.3769L25.7564 58.0672C25.5127 58.2101 25.3194 58.0924 25.3194 57.8233V57.6045C25.3194 57.3272 25.5127 56.9907 25.7564 56.8563L28.6891 55.1659L28.6807 55.1574Z" fill="#FFB30F"/>
<path d="M22.647 55.7377L23.126 56.015C23.0504 55.9731 22.9412 55.9731 22.8151 56.0487L22.3361 55.7714C22.4537 55.704 22.563 55.6955 22.647 55.7377Z" fill="#FF1F41"/>
<path d="M22.0168 57.5789L21.5378 57.3016C21.4622 57.2594 21.4117 57.1587 21.4117 57.0239L21.8907 57.3016C21.8907 57.436 21.9412 57.537 22.0168 57.5789Z" fill="#FF1F41"/>
<path d="M21.8907 57.3022L21.4117 57.0246V56.8062L21.8907 57.0835V57.3022Z" fill="#FF1F41"/>
<path d="M22.3193 56.3345L21.8487 56.0568L22.3361 55.771L22.8151 56.0486L22.3193 56.3345Z" fill="#FF1F41"/>
<path d="M21.8907 57.0833L21.4117 56.8057C21.4117 56.528 21.605 56.1919 21.8487 56.0571L22.3277 56.3348C22.084 56.4777 21.8907 56.8057 21.8907 57.0833Z" fill="#FF1F41"/>
<path d="M22.8151 56.0487C23.0588 55.914 23.2521 56.0232 23.2521 56.3009V56.5196C23.2521 56.7969 23.0588 57.1334 22.8235 57.2678L22.3277 57.554C22.084 57.6969 21.8907 57.5792 21.8907 57.3015V57.0831C21.8907 56.8054 22.084 56.4689 22.3277 56.3345L22.8235 56.0487H22.8151Z" fill="#FF5F76"/>
<path d="M33.1849 54.6531L33.6639 54.9307C33.5882 54.8885 33.479 54.8885 33.353 54.9644L32.874 54.6868C32.9916 54.6194 33.1008 54.6112 33.1849 54.6531Z" fill="#CBD2DE"/>
<path d="M30.1764 57.8653L29.6975 57.5877C29.6218 57.5458 29.5714 57.4448 29.5714 57.3101L30.0504 57.5877C30.0504 57.7224 30.1008 57.8232 30.1764 57.8653Z" fill="#CBD2DE"/>
<path d="M30.0504 57.5874L29.5798 57.3101L29.5714 57.0913L30.0504 57.3689V57.5874Z" fill="#CBD2DE"/>
<path d="M30.4874 56.6203L30.0084 56.3427L32.8739 54.686L33.3529 54.9637L30.4874 56.6203Z" fill="#CBD2DE"/>
<path d="M30.0504 57.3686L29.5714 57.0913C29.5714 56.8137 29.7647 56.4775 30 56.3428L30.479 56.6204C30.2353 56.7548 30.042 57.0913 30.042 57.3686H30.0504Z" fill="#CBD2DE"/>
<path d="M33.3529 54.9641C33.5966 54.8212 33.7899 54.9389 33.7899 55.208V55.4268C33.7899 55.7041 33.5966 56.0406 33.3529 56.175L30.4874 57.8317C30.2437 57.9664 30.0504 57.8572 30.0504 57.5796V57.3608C30.0504 57.0835 30.2437 56.747 30.479 56.6126L33.3445 54.9559L33.3529 54.9641Z" fill="white"/>
<path d="M36.4454 50.2714L36.9244 50.5487C36.8487 50.5068 36.7395 50.5068 36.6134 50.5824L36.1344 50.3051C36.2521 50.2377 36.3613 50.2292 36.4454 50.2714Z" fill="#CBD2DE"/>
<path d="M30.1681 55.3679L29.689 55.0906C29.6134 55.0484 29.563 54.9477 29.563 54.813L30.042 55.0906C30.042 55.225 30.0924 55.3261 30.1681 55.3679Z" fill="#CBD2DE"/>
<path d="M30.042 55.0903L29.5714 54.8127V54.5942L30.042 54.8715V55.0903Z" fill="#CBD2DE"/>
<path d="M30.479 54.123L30 53.8457L36.1345 50.2969L36.6135 50.5742L30.479 54.123Z" fill="#CBD2DE"/>
<path d="M30.042 54.8719L29.563 54.5942C29.563 54.3166 29.7563 53.9804 30 53.8457L30.4789 54.1233C30.2353 54.2577 30.042 54.5943 30.042 54.8719Z" fill="#CBD2DE"/>
<path d="M36.6134 50.5744C36.8571 50.4315 37.0504 50.5492 37.0504 50.8184V51.0368C37.0504 51.3145 36.8571 51.651 36.6134 51.7854L30.479 55.3257C30.2353 55.4604 30.042 55.3512 30.042 55.0735V54.8548C30.042 54.5774 30.2353 54.2409 30.4706 54.1065L36.605 50.5659L36.6134 50.5744Z" fill="white"/>
<path d="M40.9496 60.5142L40.4118 60.1943L41.1597 60.5308L41.6975 60.8422L40.9496 60.5142Z" fill="#CBD2DE"/>
<path d="M37.5294 66.0732L36.9916 65.7619L36.7731 64.7612L37.3109 65.0807L37.5294 66.0732Z" fill="#CBD2DE"/>
<path d="M37.0589 63.2221L36.5211 62.9108C36.79 63.0707 37.1681 63.0455 37.5799 62.8101H37.5883L38.1261 63.121C38.1261 63.121 38.1261 63.121 38.1177 63.121C37.7059 63.3565 37.3278 63.3817 37.0589 63.2221Z" fill="#CBD2DE"/>
<mask id="mask0_131_1525" style="mask-type:luminance" maskUnits="userSpaceOnUse" x="36" y="62" width="3" height="2">
<path d="M37.0589 63.2221L36.5211 62.9108C36.79 63.0707 37.1681 63.0455 37.5799 62.8101H37.5883L38.1261 63.121C38.1261 63.121 38.1261 63.121 38.1177 63.121C37.7059 63.3565 37.3278 63.3817 37.0589 63.2221Z" fill="white"/>
</mask>
<g mask="url(#mask0_131_1525)">
<path d="M37.0589 63.2221L36.5211 62.9108C36.79 63.0707 37.1681 63.0455 37.5799 62.8101H37.5883L38.1261 63.121C38.1261 63.121 38.1261 63.121 38.1177 63.121C37.7059 63.3565 37.3278 63.3817 37.0589 63.2221Z" fill="#CBD2DE"/>
</g>
<path d="M38.6303 59.2695L39.1681 59.5809C39.437 59.7323 39.5966 60.0599 39.605 60.5227C39.6134 61.4645 38.9496 62.6251 38.1261 63.1126L37.5883 62.8017C38.4118 62.3137 39.0756 61.1617 39.0672 60.2113C39.0672 59.7489 38.8992 59.4209 38.6303 59.2695Z" fill="#CBD2DE"/>
<mask id="mask1_131_1525" style="mask-type:luminance" maskUnits="userSpaceOnUse" x="37" y="59" width="3" height="5">
<path d="M38.6303 59.2695L39.1681 59.5809C39.437 59.7323 39.5966 60.0599 39.605 60.5227C39.6134 61.4645 38.9496 62.6251 38.1261 63.1126L37.5883 62.8017C38.4118 62.3137 39.0756 61.1617 39.0672 60.2113C39.0672 59.7489 38.8992 59.4209 38.6303 59.2695Z" fill="white"/>
</mask>
<g mask="url(#mask1_131_1525)">
<path d="M38.1345 63.1126L37.5966 62.8017C38.4202 62.3137 39.084 61.1617 39.0756 60.2113C39.0756 59.7489 38.9076 59.4209 38.6387 59.2695L39.1765 59.5809C39.4454 59.7323 39.6051 60.0599 39.6135 60.5227C39.6219 61.4645 38.958 62.6251 38.1345 63.1126Z" fill="#CBD2DE"/>
</g>
<path d="M40.084 57.8147L39.5462 57.5033L40.4874 56.5952L41.0252 56.9062L40.084 57.8147Z" fill="#CBD2DE"/>
<path d="M38.916 57.7306L38.3781 57.4196C38.8151 57.3104 39.2185 57.3438 39.5462 57.5037L40.084 57.8147C39.7563 57.6551 39.3613 57.6214 38.916 57.7306Z" fill="#CBD2DE"/>
<mask id="mask2_131_1525" style="mask-type:luminance" maskUnits="userSpaceOnUse" x="38" y="57" width="3" height="1">
<path d="M38.916 57.7306L38.3781 57.4196C38.8151 57.3104 39.2185 57.3438 39.5462 57.5037L40.084 57.8147C39.7563 57.6551 39.3613 57.6214 38.916 57.7306Z" fill="white"/>
</mask>
<g mask="url(#mask2_131_1525)">
<path d="M38.916 57.7306L38.3781 57.4196C38.8151 57.3104 39.2185 57.3438 39.5462 57.5037L40.084 57.8147C39.7563 57.6551 39.3613 57.6214 38.916 57.7306Z" fill="#CBD2DE"/>
</g>
<path d="M35.2017 65.8962L34.6639 65.5852C34.395 65.375 34.1765 65.0806 34.0252 64.7104L34.5631 65.0218C34.7143 65.3916 34.9328 65.6778 35.2017 65.8962Z" fill="#CBD2DE"/>
<mask id="mask3_131_1525" style="mask-type:luminance" maskUnits="userSpaceOnUse" x="34" y="64" width="2" height="2">
<path d="M35.2017 65.8962L34.6639 65.5852C34.395 65.375 34.1765 65.0806 34.0252 64.7104L34.5631 65.0218C34.7143 65.3916 34.9328 65.6778 35.2017 65.8962Z" fill="white"/>
</mask>
<g mask="url(#mask3_131_1525)">
<path d="M35.2017 65.8962L34.6639 65.5852C34.395 65.375 34.1765 65.0806 34.0252 64.7104L34.5631 65.0218C34.7143 65.3916 34.9328 65.6778 35.2017 65.8962Z" fill="#CBD2DE"/>
</g>
<path d="M34.5631 65.0304L34.0252 64.7109L34.7563 63.5166L35.2942 63.8279L34.5631 65.0304Z" fill="#CBD2DE"/>
<path d="M35.2941 63.8273L34.7563 63.516C34.7059 63.2976 34.6723 63.0621 34.6723 62.793C34.6723 62.532 34.6975 62.2547 34.7395 61.9771L35.2773 62.2884C35.2269 62.5657 35.2017 62.8348 35.2101 63.104C35.2101 63.3646 35.2437 63.6085 35.2941 63.8273Z" fill="#CBD2DE"/>
<mask id="mask4_131_1525" style="mask-type:luminance" maskUnits="userSpaceOnUse" x="34" y="61" width="2" height="3">
<path d="M35.2941 63.8273L34.7563 63.516C34.7059 63.2976 34.6723 63.0621 34.6723 62.793C34.6723 62.532 34.6975 62.2547 34.7395 61.9771L35.2773 62.2884C35.2269 62.5657 35.2017 62.8348 35.2101 63.104C35.2101 63.3646 35.2437 63.6085 35.2941 63.8273Z" fill="white"/>
</mask>
<g mask="url(#mask4_131_1525)">
<path d="M35.2941 63.8273L34.7563 63.516C34.7059 63.2976 34.6723 63.0621 34.6723 62.793C34.6723 62.532 34.6975 62.2547 34.7395 61.9771L35.2773 62.2884C35.2269 62.5657 35.2017 62.8348 35.2101 63.104C35.2101 63.3646 35.2437 63.6085 35.2941 63.8273Z" fill="#CBD2DE"/>
</g>
<path d="M36.1009 60.1523L35.563 59.8413C35.8823 59.303 36.2773 58.7984 36.7143 58.3945L37.2521 58.7059C36.8151 59.1179 36.4202 59.614 36.1009 60.1523Z" fill="#CBD2DE"/>
<mask id="mask5_131_1525" style="mask-type:luminance" maskUnits="userSpaceOnUse" x="35" y="58" width="3" height="3">
<path d="M36.1009 60.1523L35.563 59.8413C35.8823 59.303 36.2773 58.7984 36.7143 58.3945L37.2521 58.7059C36.8151 59.1179 36.4202 59.614 36.1009 60.1523Z" fill="white"/>
</mask>
<g mask="url(#mask5_131_1525)">
<path d="M36.1009 60.1523L35.563 59.8413C35.8823 59.303 36.2773 58.7984 36.7143 58.3945L37.2521 58.7059C36.8151 59.1179 36.4202 59.614 36.1009 60.1523Z" fill="#CBD2DE"/>
</g>
<path d="M37.4454 57.4612L36.9076 57.1502C37.1093 56.9903 37.3193 56.8474 37.5294 56.7211C37.5378 56.7211 37.5462 56.713 37.5546 56.7045C37.7563 56.5867 37.958 56.4857 38.1512 56.4102L38.6891 56.7211C38.4958 56.797 38.2941 56.8977 38.0924 57.0155C38.084 57.0155 38.0756 57.024 38.0672 57.0325C37.8571 57.1587 37.6471 57.3016 37.4454 57.4612Z" fill="#CBD2DE"/>
<mask id="mask6_131_1525" style="mask-type:luminance" maskUnits="userSpaceOnUse" x="36" y="56" width="3" height="2">
<path d="M37.4454 57.4612L36.9076 57.1502C37.1093 56.9903 37.3193 56.8474 37.5294 56.7211C37.5378 56.7211 37.5462 56.713 37.5546 56.7045C37.7563 56.5867 37.958 56.4857 38.1512 56.4102L38.6891 56.7211C38.4958 56.797 38.2941 56.8977 38.0924 57.0155C38.084 57.0155 38.0756 57.024 38.0672 57.0325C37.8571 57.1587 37.6471 57.3016 37.4454 57.4612Z" fill="white"/>
</mask>
<g mask="url(#mask6_131_1525)">
<path d="M37.4454 57.4612L36.9076 57.1502C37.1093 56.9903 37.3193 56.8474 37.5294 56.7211C37.5378 56.7211 37.5462 56.713 37.5546 56.7045C37.7563 56.5867 37.958 56.4857 38.1512 56.4102L38.6891 56.7211C38.4958 56.797 38.2941 56.8977 38.0924 57.0155C38.084 57.0155 38.0756 57.024 38.0672 57.0325C37.8571 57.1587 37.6471 57.3016 37.4454 57.4612Z" fill="#CBD2DE"/>
</g>
<path d="M37.2522 58.7064L36.7144 58.3865L36.9076 57.1504L37.4454 57.4617L37.2522 58.7064Z" fill="#CBD2DE"/>
<path d="M35.1513 60.3544L34.6051 60.0431L35.5631 59.8413L36.1009 60.1523L35.1513 60.3544Z" fill="#CBD2DE"/>
<path d="M34.5378 61.9603L34 61.6489C34.1429 61.111 34.353 60.5642 34.6135 60.043L35.1513 60.354C34.8908 60.8756 34.6807 61.422 34.5378 61.9603Z" fill="#CBD2DE"/>
<mask id="mask7_131_1525" style="mask-type:luminance" maskUnits="userSpaceOnUse" x="34" y="60" width="2" height="2">
<path d="M34.5378 61.9603L34 61.6489C34.1429 61.111 34.353 60.5642 34.6135 60.043L35.1513 60.354C34.8908 60.8756 34.6807 61.422 34.5378 61.9603Z" fill="white"/>
</mask>
<g mask="url(#mask7_131_1525)">
<path d="M34.5378 61.9603L34 61.6489C34.1429 61.111 34.353 60.5642 34.6135 60.043L35.1513 60.354C34.8908 60.8756 34.6807 61.422 34.5378 61.9603Z" fill="#CBD2DE"/>
</g>
<path d="M40.9496 60.5144L41.6975 60.8424C41.5547 61.3807 41.3446 61.9275 41.0841 62.4488L40.1345 62.6505C39.8151 63.1888 39.4202 63.6934 38.9832 64.0969L38.7899 65.333C38.5883 65.493 38.3782 65.6359 38.1681 65.7621C38.1597 65.7621 38.1429 65.7788 38.1345 65.7788C37.9328 65.8965 37.7395 65.989 37.5463 66.0649L37.3278 65.0724C36.8908 65.182 36.4874 65.1483 36.1597 64.9884L35.2185 65.8965C34.9496 65.6862 34.7311 65.3919 34.5799 65.0221L35.311 63.8196C35.2605 63.6008 35.2269 63.3654 35.2269 63.0962C35.2269 62.8356 35.2521 62.558 35.2941 62.2807L34.5462 61.9527C34.6891 61.4144 34.8992 60.8676 35.1597 60.3464L36.1093 60.1446C36.4286 59.6063 36.8236 59.1017 37.2606 58.6982L37.4538 57.4617C37.6555 57.3021 37.8656 57.1592 38.0757 57.033C38.0841 57.033 38.0925 57.0245 38.1009 57.0163C38.3026 56.8983 38.5042 56.7976 38.6975 56.7217L38.916 57.7142C39.353 57.605 39.7563 57.6387 40.0841 57.7982L41.0252 56.8901C41.2941 57.1004 41.5126 57.3947 41.6639 57.7645L40.9328 58.9673C40.9832 59.1858 41.0168 59.4212 41.0168 59.6904C41.0168 59.9595 40.9916 60.2286 40.9496 60.5063V60.5144ZM38.1345 63.1129C38.958 62.6253 39.6219 61.4733 39.6135 60.5229C39.6051 59.5811 38.9328 59.2109 38.1177 59.6818C38.1177 59.6818 38.1177 59.6818 38.1093 59.6818C37.2858 60.1698 36.6219 61.3218 36.6303 62.2722C36.6387 63.214 37.311 63.5842 38.1261 63.1129H38.1345Z" fill="white"/>
<path d="M33.8572 61.9604L33.3194 61.6494L33.79 61.8512L34.3278 62.1707L33.8572 61.9604Z" fill="#CBD2DE"/>
<path d="M31.6975 65.476L31.1597 65.165L31.0168 64.5342L31.563 64.8452L31.6975 65.476Z" fill="#CBD2DE"/>
<path d="M31.605 63.2811L31.1765 63.029C31.2941 63.096 31.4538 63.0879 31.6303 62.9868L32.0588 63.2389C31.8823 63.34 31.7227 63.3485 31.605 63.2811Z" fill="#CBD2DE"/>
<mask id="mask8_131_1525" style="mask-type:luminance" maskUnits="userSpaceOnUse" x="31" y="62" width="2" height="2">
<path d="M31.605 63.2811L31.1765 63.029C31.2941 63.096 31.4538 63.0879 31.6303 62.9868L32.0588 63.2389C31.8823 63.34 31.7227 63.3485 31.605 63.2811Z" fill="white"/>
</mask>
<g mask="url(#mask8_131_1525)">
<path d="M31.605 63.2811L31.1765 63.029C31.2941 63.096 31.4538 63.0879 31.6303 62.9868L32.0588 63.2389C31.8823 63.34 31.7227 63.3485 31.605 63.2811Z" fill="#CBD2DE"/>
</g>
<path d="M32.0756 61.4727L32.5042 61.7251C32.6219 61.7921 32.6891 61.9269 32.6891 62.1287C32.6891 62.5322 32.4118 63.0286 32.0588 63.2389L31.6302 62.9864C31.9832 62.7761 32.2689 62.2801 32.2605 61.8765C32.2605 61.6744 32.1849 61.54 32.0756 61.4727Z" fill="#CBD2DE"/>
<mask id="mask9_131_1525" style="mask-type:luminance" maskUnits="userSpaceOnUse" x="31" y="61" width="2" height="3">
<path d="M32.0756 61.4727L32.5042 61.7251C32.6219 61.7921 32.6891 61.9269 32.6891 62.1287C32.6891 62.5322 32.4118 63.0286 32.0588 63.2389L31.6302 62.9864C31.9832 62.7761 32.2689 62.2801 32.2605 61.8765C32.2605 61.6744 32.1849 61.54 32.0756 61.4727Z" fill="white"/>
</mask>
<g mask="url(#mask9_131_1525)">
<path d="M32.0588 63.2306L31.6302 62.9781C31.9832 62.7679 32.2689 62.2718 32.2605 61.8682C32.2605 61.6665 32.1849 61.5317 32.0756 61.4644L32.5042 61.7168C32.6219 61.7842 32.6891 61.9186 32.6891 62.1204C32.6891 62.5242 32.4118 63.0203 32.0588 63.2306Z" fill="#CBD2DE"/>
</g>
<path d="M33.311 60.2533L32.7732 59.9423L33.3698 59.3618L33.9076 59.6813L33.311 60.2533Z" fill="#CBD2DE"/>
<path d="M32.5714 60.2032L32.0336 59.8919C32.3109 59.8245 32.563 59.8415 32.7731 59.9508L33.3109 60.2621C33.1008 60.161 32.8487 60.1359 32.5714 60.2032Z" fill="#CBD2DE"/>
<mask id="mask10_131_1525" style="mask-type:luminance" maskUnits="userSpaceOnUse" x="32" y="59" width="2" height="2">
<path d="M32.5714 60.2032L32.0336 59.8919C32.3109 59.8245 32.563 59.8415 32.7731 59.9508L33.3109 60.2621C33.1008 60.161 32.8487 60.1359 32.5714 60.2032Z" fill="white"/>
</mask>
<g mask="url(#mask10_131_1525)">
<path d="M32.5714 60.2032L32.0336 59.8919C32.3109 59.8245 32.563 59.8415 32.7731 59.9508L33.3109 60.2621C33.1008 60.161 32.8487 60.1359 32.5714 60.2032Z" fill="#CBD2DE"/>
</g>
<path d="M30.2269 65.3668L29.6891 65.0554C29.521 64.921 29.3866 64.7359 29.2857 64.5005L29.8235 64.8115C29.9244 65.0469 30.0588 65.232 30.2269 65.3668Z" fill="#CBD2DE"/>
<mask id="mask11_131_1525" style="mask-type:luminance" maskUnits="userSpaceOnUse" x="29" y="64" width="2" height="2">
<path d="M30.2269 65.3668L29.6891 65.0554C29.521 64.921 29.3866 64.7359 29.2857 64.5005L29.8235 64.8115C29.9244 65.0469 30.0588 65.232 30.2269 65.3668Z" fill="white"/>
</mask>
<g mask="url(#mask11_131_1525)">
<path d="M30.2269 65.3668L29.6891 65.0554C29.521 64.921 29.3866 64.7359 29.2857 64.5005L29.8235 64.8115C29.9244 65.0469 30.0588 65.232 30.2269 65.3668Z" fill="#CBD2DE"/>
</g>
<path d="M29.8235 64.8117L29.2773 64.5007L29.7479 63.7437L30.2857 64.055L29.8235 64.8117Z" fill="#CBD2DE"/>
<path d="M30.2857 64.0552L29.7479 63.7438C29.7143 63.6094 29.6975 63.458 29.6975 63.2899C29.6975 63.1215 29.7143 62.9534 29.7395 62.7769L30.2773 63.0878C30.2437 63.2644 30.2269 63.4329 30.2353 63.6009C30.2353 63.769 30.2521 63.9204 30.2857 64.0552Z" fill="#CBD2DE"/>
<mask id="mask12_131_1525" style="mask-type:luminance" maskUnits="userSpaceOnUse" x="29" y="62" width="2" height="3">
<path d="M30.2857 64.0552L29.7479 63.7438C29.7143 63.6094 29.6975 63.458 29.6975 63.2899C29.6975 63.1215 29.7143 62.9534 29.7395 62.7769L30.2773 63.0878C30.2437 63.2644 30.2269 63.4329 30.2353 63.6009C30.2353 63.769 30.2521 63.9204 30.2857 64.0552Z" fill="white"/>
</mask>
<g mask="url(#mask12_131_1525)">
<path d="M30.2857 64.0552L29.7479 63.7438C29.7143 63.6094 29.6975 63.458 29.6975 63.2899C29.6975 63.1215 29.7143 62.9534 29.7395 62.7769L30.2773 63.0878C30.2437 63.2644 30.2269 63.4329 30.2353 63.6009C30.2353 63.769 30.2521 63.9204 30.2857 64.0552Z" fill="#CBD2DE"/>
</g>
<path d="M30.7899 61.7338L30.2521 61.4225C30.4538 61.0778 30.7059 60.7665 30.9832 60.5059L31.521 60.8172C31.2437 61.0778 30.9916 61.3888 30.7899 61.7338Z" fill="#CBD2DE"/>
<mask id="mask13_131_1525" style="mask-type:luminance" maskUnits="userSpaceOnUse" x="30" y="60" width="2" height="2">
<path d="M30.7899 61.7338L30.2521 61.4225C30.4538 61.0778 30.7059 60.7665 30.9832 60.5059L31.521 60.8172C31.2437 61.0778 30.9916 61.3888 30.7899 61.7338Z" fill="white"/>
</mask>
<g mask="url(#mask13_131_1525)">
<path d="M30.7899 61.7338L30.2521 61.4225C30.4538 61.0778 30.7059 60.7665 30.9832 60.5059L31.521 60.8172C31.2437 61.0778 30.9916 61.3888 30.7899 61.7338Z" fill="#CBD2DE"/>
</g>
<path d="M31.6471 60.0345L31.1093 59.7235C31.2353 59.6224 31.3698 59.5299 31.5042 59.4543C31.5042 59.4543 31.5126 59.4543 31.5211 59.4458C31.6471 59.3703 31.7731 59.3114 31.8992 59.2607L32.437 59.5721C32.3109 59.6224 32.1849 59.6813 32.0589 59.7572C32.0589 59.7572 32.0504 59.7572 32.042 59.7653C31.9076 59.8412 31.7731 59.9338 31.6471 60.0345Z" fill="#CBD2DE"/>
<mask id="mask14_131_1525" style="mask-type:luminance" maskUnits="userSpaceOnUse" x="31" y="59" width="2" height="2">
<path d="M31.6471 60.0345L31.1093 59.7235C31.2353 59.6224 31.3698 59.5299 31.5042 59.4543C31.5042 59.4543 31.5126 59.4543 31.5211 59.4458C31.6471 59.3703 31.7731 59.3114 31.8992 59.2607L32.437 59.5721C32.3109 59.6224 32.1849 59.6813 32.0589 59.7572C32.0589 59.7572 32.0504 59.7572 32.042 59.7653C31.9076 59.8412 31.7731 59.9338 31.6471 60.0345Z" fill="white"/>
</mask>
<g mask="url(#mask14_131_1525)">
<path d="M31.6471 60.0345L31.1093 59.7235C31.2353 59.6224 31.3698 59.5299 31.5042 59.4543C31.5042 59.4543 31.5126 59.4543 31.5211 59.4458C31.6471 59.3703 31.7731 59.3114 31.8992 59.2607L32.437 59.5721C32.3109 59.6224 32.1849 59.6813 32.0589 59.7572C32.0589 59.7572 32.0504 59.7572 32.042 59.7653C31.9076 59.8412 31.7731 59.9338 31.6471 60.0345Z" fill="#CBD2DE"/>
</g>
<path d="M31.5211 60.8169L30.9832 60.5055L31.1093 59.7236L31.6471 60.0346L31.5211 60.8169Z" fill="#CBD2DE"/>
<path d="M30.1933 61.8596L29.6471 61.5486L30.2521 61.4224L30.7899 61.7334L30.1933 61.8596Z" fill="#CBD2DE"/>
<path d="M29.7983 62.8778L29.2605 62.5665C29.353 62.2218 29.4874 61.8853 29.6471 61.5488L30.1849 61.8602C30.0168 62.1882 29.8908 62.5328 29.7983 62.8778Z" fill="#CBD2DE"/>
<mask id="mask15_131_1525" style="mask-type:luminance" maskUnits="userSpaceOnUse" x="29" y="61" width="2" height="2">
<path d="M29.7983 62.8778L29.2605 62.5665C29.353 62.2218 29.4874 61.8853 29.6471 61.5488L30.1849 61.8602C30.0168 62.1882 29.8908 62.5328 29.7983 62.8778Z" fill="white"/>
</mask>
<g mask="url(#mask15_131_1525)">
<path d="M29.7983 62.8778L29.2605 62.5665C29.353 62.2218 29.4874 61.8853 29.6471 61.5488L30.1849 61.8602C30.0168 62.1882 29.8908 62.5328 29.7983 62.8778Z" fill="#CBD2DE"/>
</g>
<path d="M33.8572 61.9607L34.3278 62.171C34.2353 62.516 34.1009 62.8521 33.9412 63.1886L33.3362 63.3149C33.1345 63.6595 32.8824 63.9709 32.6051 64.2315L32.479 65.0134C32.353 65.1144 32.2185 65.207 32.0841 65.2825C32.0841 65.2825 32.0673 65.2825 32.0589 65.291C31.9328 65.3666 31.8068 65.4254 31.6807 65.4761L31.5463 64.8453C31.2689 64.9127 31.0168 64.8957 30.8068 64.7864L30.2101 65.3584C30.0421 65.2237 29.9076 65.0386 29.8067 64.8031L30.2689 64.0464C30.2353 63.912 30.2185 63.7606 30.2185 63.5922C30.2185 63.4241 30.2353 63.256 30.2605 63.0794L29.7899 62.8691C29.8824 62.5241 30.0168 62.188 30.1765 61.8515L30.7815 61.7252C30.9832 61.3806 31.2353 61.0696 31.5126 60.8086L31.6387 60.0267C31.7647 59.9256 31.8992 59.8331 32.0336 59.7576C32.0336 59.7576 32.042 59.7576 32.0505 59.7491C32.1765 59.6735 32.3025 59.6147 32.4286 59.564L32.5631 60.1948C32.8404 60.1274 33.0925 60.1529 33.3026 60.2537L33.8992 59.682C34.0672 59.8164 34.2017 60.0015 34.3026 60.237L33.8404 60.9937C33.874 61.1284 33.8908 61.2798 33.8908 61.4479C33.8908 61.616 33.874 61.7841 33.8488 61.9607H33.8572ZM32.0589 63.2308C32.4118 63.0206 32.6975 62.5241 32.6891 62.1206C32.6891 61.7171 32.395 61.5571 32.0505 61.7589C31.6975 61.9692 31.4118 62.4653 31.4202 62.8691C31.4202 63.2727 31.7143 63.4326 32.0589 63.2308Z" fill="white"/>
</g>
<defs>
<linearGradient id="paint0_linear_131_1525" x1="35.9245" y1="80.8566" x2="68.8403" y2="80.8566" gradientUnits="userSpaceOnUse">
<stop offset="0.52" stop-color="#9C9CD8"/>
<stop offset="0.6" stop-color="#C1C1E8"/>
</linearGradient>
<linearGradient id="paint1_linear_131_1525" x1="53.5631" y1="73.3136" x2="49.8447" y2="66.8826" gradientUnits="userSpaceOnUse">
<stop offset="0.03" stop-color="#B5B5E8"/>
<stop offset="0.57" stop-color="#9595D4"/>
</linearGradient>
<linearGradient id="paint2_linear_131_1525" x1="23.7395" y1="77.2829" x2="65.8026" y2="4.47486" gradientUnits="userSpaceOnUse">
<stop offset="0.4" stop-color="#7070BD"/>
<stop offset="0.44" stop-color="#8D8DC6"/>
</linearGradient>
<linearGradient id="paint3_linear_131_1525" x1="72.2773" y1="51.4404" x2="63.6543" y2="36.5191" gradientUnits="userSpaceOnUse">
<stop offset="0.73" stop-color="#D7D8E8"/>
<stop offset="0.93" stop-color="#EAE9F2"/>
</linearGradient>
<linearGradient id="paint4_linear_131_1525" x1="47.7647" y1="50.0695" x2="67.5462" y2="50.0695" gradientUnits="userSpaceOnUse">
<stop offset="0.37" stop-color="#CACCDE"/>
<stop offset="0.97" stop-color="#EAE9F2"/>
</linearGradient>
<linearGradient id="paint5_linear_131_1525" x1="54.0924" y1="48.8505" x2="61.6133" y2="35.8375" gradientUnits="userSpaceOnUse">
<stop stop-color="#CACCDE"/>
<stop offset="0.56" stop-color="#EAE9F2"/>
</linearGradient>
<linearGradient id="paint6_linear_131_1525" x1="56.126" y1="40.0623" x2="71.4202" y2="40.0623" gradientUnits="userSpaceOnUse">
<stop offset="0.24" stop-color="#A8A4B5"/>
<stop offset="1" stop-color="#DBD3E2"/>
</linearGradient>
<linearGradient id="paint7_linear_131_1525" x1="48.3613" y1="52.971" x2="64.2044" y2="17.1803" gradientUnits="userSpaceOnUse">
<stop offset="0.37" stop-color="#CACCDE"/>
<stop offset="0.97" stop-color="#EAE9F2"/>
</linearGradient>
<linearGradient id="paint8_linear_131_1525" x1="53.7561" y1="36.0089" x2="61.9503" y2="21.8357" gradientUnits="userSpaceOnUse">
<stop stop-color="#CACCDE"/>
<stop offset="0.56" stop-color="#EAE9F2"/>
</linearGradient>
<linearGradient id="paint9_linear_131_1525" x1="49.832" y1="63.9202" x2="45.7506" y2="40.9379" gradientUnits="userSpaceOnUse">
<stop stop-color="#CACCDE"/>
<stop offset="1" stop-color="#DFDEEE"/>
</linearGradient>
<linearGradient id="paint10_linear_131_1525" x1="48.6975" y1="62.2381" x2="47.2416" y2="40.2389" gradientUnits="userSpaceOnUse">
<stop stop-color="#CACCDE"/>
<stop offset="1" stop-color="#DFDEEE"/>
</linearGradient>
<linearGradient id="paint11_linear_131_1525" x1="53.3696" y1="58.4872" x2="44.7636" y2="43.5995" gradientUnits="userSpaceOnUse">
<stop offset="0.68" stop-color="#DBDBEA"/>
<stop offset="0.81" stop-color="#EAE9F2"/>
</linearGradient>
<clipPath id="clip0_131_1525">
<rect width="68" height="82" fill="white" transform="translate(19 11)"/>
</clipPath>
</defs>
</svg>
