<svg width="106" height="106" viewBox="0 0 106 106" fill="none" xmlns="http://www.w3.org/2000/svg">
<g clip-path="url(#clip0_131_1533)">
<g clip-path="url(#clip1_131_1533)">
<path d="M59.1505 31.3296C59.0838 31.388 59.0171 31.4464 58.9504 31.5047C58.6168 31.7966 58.2609 32.0519 57.8902 32.2635L58.1794 32.0227C58.513 31.833 58.8392 31.5996 59.1431 31.3296H59.1505Z" fill="#9640FF"/>
<path d="M61.7899 26.7036C61.7825 26.7474 61.7677 26.7985 61.7602 26.8422C61.7602 26.8568 61.7602 26.8641 61.7528 26.8787C61.7528 26.8933 61.7528 26.9152 61.7454 26.9298C61.7454 26.9371 61.7454 26.9444 61.7454 26.9517C61.8344 26.5431 61.8789 26.1345 61.8789 25.7478L61.9456 25.3757C61.9456 25.8062 61.8937 26.2513 61.7973 26.6963L61.7899 26.7036Z" fill="#9640FF"/>
<path d="M61.8492 18.926L61.9159 18.554L61.9308 25.3758L61.864 25.7478L61.8492 18.926Z" fill="#9640FF"/>
<path d="M58.1423 16.8467L57.8532 16.2776C60.0921 15.0081 61.9085 16.0296 61.9159 18.554L61.8492 18.9261C61.8492 16.6206 60.1811 15.6867 58.1423 16.8467Z" fill="#9640FF"/>
<path d="M59.462 15.2708L60.7297 16.0004C59.9958 15.5772 58.9727 15.6356 57.8458 16.2776L56.578 15.548C57.7049 14.906 58.728 14.8476 59.462 15.2708Z" fill="#7D1CF2"/>
<path d="M58.1867 32.0225L57.8976 32.2632L40.3789 42.2151L40.6755 41.9743L58.1867 32.0225Z" fill="#9640FF"/>
<path d="M37.4951 42.4922L36.2273 41.7626C35.5008 41.3467 35.0485 40.4639 35.0485 39.2017L36.3163 39.9313C36.3163 41.1862 36.7685 42.0763 37.4951 42.4922Z" fill="#7D1CF2"/>
<path d="M40.6755 41.9744L40.3864 42.2152C38.1474 43.4847 36.3311 42.4632 36.3237 39.9315L36.9761 39.895C36.9761 42.2006 38.6442 43.1344 40.6829 41.9744H40.6755Z" fill="#9640FF"/>
<path d="M36.9687 39.8948L36.3163 39.9313L36.294 33.1095L36.9464 33.073L36.9687 39.8948Z" fill="#9640FF"/>
<path d="M36.3163 39.9313L35.0411 39.2017L35.0263 32.3872L36.294 33.1095L36.3163 39.9313Z" fill="#7D1CF2"/>
<path d="M40.3345 26.2293L39.0668 25.4997L56.578 15.5479L57.8458 16.2775L40.3345 26.2293Z" fill="#7D1CF2"/>
<path d="M40.631 26.7985L40.3345 26.2294L57.8457 16.2776L58.1423 16.8467L40.631 26.7985Z" fill="#9640FF"/>
<path d="M35.1746 31.0594C35.1894 30.9719 35.2116 30.8916 35.2265 30.8041C35.5749 29.1916 36.5609 27.5209 37.8138 26.4264C37.8138 26.4264 37.8287 26.4119 37.8361 26.4119C37.8361 26.4119 37.8361 26.4119 37.8435 26.4045C37.8435 26.4045 37.8583 26.39 37.8657 26.39C37.8657 26.39 37.8657 26.3899 37.8732 26.3827C37.8732 26.3827 37.888 26.3681 37.8954 26.3681C37.8954 26.3681 37.8954 26.3681 37.9028 26.3608C37.9028 26.3608 37.9177 26.3462 37.9251 26.3462C37.9251 26.3462 37.9399 26.3316 37.9473 26.3316C37.9473 26.3316 37.9473 26.3316 37.9547 26.3243C37.9547 26.3243 37.9695 26.3097 37.9769 26.3097C37.9769 26.3097 37.9918 26.2951 37.9992 26.2951C37.9992 26.2951 37.9992 26.2951 38.0066 26.2878C38.0066 26.2878 38.0066 26.2878 38.014 26.2805C36.6425 27.4844 35.5601 29.3157 35.182 31.0813L35.1746 31.0594Z" fill="#FF0C9B"/>
<path d="M58.1423 16.8467C60.1811 15.6867 61.8418 16.6206 61.8492 18.9261L61.8714 25.7479C61.8714 28.0535 60.2256 30.8625 58.1868 32.0226L40.6755 41.9744C38.6368 43.1344 36.9761 42.2006 36.9687 39.895L36.9464 33.0732C36.9464 30.7676 38.5849 27.9586 40.6311 26.7986L58.1423 16.8467Z" fill="#B06DFF"/>
<path d="M42.3733 28.9216L43.085 27.4478L43.5447 31.6357L46.7548 30.0306L45.361 35.0138L45.1016 36.794L42.3881 36.3708L41.0833 38.7712L39.2373 39.7562L40.0528 35.7288L38.0066 34.9992L38.7183 33.5254L41.2093 32.9636L42.3733 28.9216Z" fill="#9640FF"/>
<path d="M53.138 22.8002L53.8497 21.3264L54.3168 25.5143L57.5195 23.9092L56.1258 28.8924L55.8663 30.6727L53.1603 30.2495L51.848 32.6572L50.0094 33.6349L50.8175 29.6147L48.7713 28.8778L49.4905 27.404L51.9815 26.8495L53.138 22.8002Z" fill="#9640FF"/>
<path d="M36.9464 33.0732L36.294 33.1097C36.294 30.5779 38.0956 27.499 40.3345 26.2222L40.6237 26.7913C38.5849 27.9513 36.9316 30.7603 36.939 33.0659L36.9464 33.0732Z" fill="#9640FF"/>
<path d="M36.294 33.1098L35.0263 32.3802C35.0263 29.8484 36.8278 26.7695 39.0668 25.4927L40.3345 26.2223C38.0956 27.4918 36.2866 30.578 36.294 33.1098Z" fill="#7D1CF2"/>
<path d="M45.3907 30.804L44.2638 30.162L47.4665 28.5496L48.6008 29.1989L45.3907 30.804Z" fill="#7D1CF2"/>
<path d="M41.5355 39.0337L40.4087 38.3843L41.2093 34.4153L42.3437 35.0573L41.5355 39.0337Z" fill="#7D1CF2"/>
<path d="M43.259 32.1841L42.1321 31.542L43.2886 27.5L44.4155 28.1421L43.259 32.1841Z" fill="#7D1CF2"/>
<path d="M39.8526 34.1674L38.7183 33.5253L41.9284 31.4897L43.0553 32.1318L39.8526 34.1674Z" fill="#7D1CF2"/>
<path d="M44.2119 28.0896L45.3907 30.8037L48.6008 29.1986L46.1246 32.9123L46.9476 35.9621L44.2342 35.5389L41.5355 39.0337L42.3437 35.0573L39.8526 34.1672L43.0554 32.1316L44.2119 28.0896Z" fill="white"/>
<path d="M56.1628 24.6898L55.0285 24.0404L58.2386 22.4353L59.3655 23.0774L56.1628 24.6898Z" fill="#FFBE12"/>
<path d="M52.3077 32.9124L51.1734 32.2703L51.9815 28.2939L53.1084 28.9433L52.3077 32.9124Z" fill="#FFAE00"/>
<path d="M53.8201 26.0178L52.6932 25.3684L53.8497 21.3264L54.984 21.9758L53.8201 26.0178Z" fill="#FFAE00"/>
<path d="M50.6174 28.0534L49.4905 27.404L52.6932 25.3684L53.8201 26.0177L50.6174 28.0534Z" fill="#FFBE12"/>
<path d="M54.9841 21.9758L56.1628 24.69L59.3656 23.0775L56.8894 26.7913L57.7123 29.841L55.0063 29.4178L52.3077 32.9127L53.1084 28.9436L50.6174 28.0535L53.8201 26.0179L54.9841 21.9758Z" fill="#FFD10F"/>
</g>
<g clip-path="url(#clip2_131_1533)">
<path d="M59.9325 89.5603C56.978 91.2802 52.1806 91.2658 49.2118 89.5385C46.243 87.8113 46.2286 85.0142 49.176 83.3014C52.1233 81.5885 56.928 81.5959 59.8969 83.3232C62.8657 85.0504 62.88 87.8475 59.9325 89.5603Z" fill="#EEF1F5"/>
<path d="M61.3883 65.1541C62.0912 65.5661 62.8584 66.4045 63.2241 67.2067L63.3819 67.5536C64.0488 69.0352 64.5653 70.4517 64.9093 71.7743C65.0601 72.338 65.1747 72.8801 65.2609 73.4004L66.2145 79.1677C66.3005 79.6737 65.9348 79.8183 65.3684 79.4858C64.809 79.1606 64.221 78.4666 64.0202 77.8884L62.5285 73.5883C61.8042 71.5069 61.1805 69.476 60.6641 67.5102L60.2052 65.7612C60.0258 65.0819 60.3341 64.7566 60.9508 64.9518C61.0297 65.0457 61.2378 65.0674 61.3883 65.1469V65.1541Z" fill="#CFD0E0"/>
<path d="M67.5555 79.5504L66.6018 73.7831C66.5086 73.2266 66.3867 72.6557 66.2289 72.063C65.8632 70.6609 65.3181 69.1577 64.6082 67.5894L64.4504 67.2424C63.8624 65.9343 62.6074 64.5684 61.4602 63.9035C61.2162 63.7661 60.9797 63.6505 60.7573 63.5782C59.7461 63.253 59.2513 63.7951 59.5453 64.8936L60.0044 66.6426C60.5279 68.6445 61.1589 70.7115 61.8975 72.8291L63.3892 77.1294C63.7691 78.2278 64.8736 79.536 65.9492 80.1575C67.025 80.779 67.7133 80.5189 67.5555 79.5504ZM65.3754 79.4853C64.816 79.1601 64.2283 78.4664 64.0272 77.8882L62.5358 73.5879C61.8115 71.5065 61.1875 69.4757 60.6714 67.5099L60.2122 65.7609C60.0331 65.0815 60.3414 64.7563 60.9581 64.9514C61.037 65.0454 61.2448 65.067 61.3956 65.1465C62.0982 65.5585 62.8657 66.3969 63.2314 67.1991L63.3892 67.546C64.0561 69.0276 64.5723 70.4441 64.9166 71.7739C65.0671 72.3377 65.1819 72.8797 65.2679 73.4L66.2218 79.1675C66.3078 79.6732 65.9421 79.8178 65.3754 79.4853Z" fill="#CFD0E0"/>
<path d="M68.9756 78.2711L68.0216 72.5039C67.9284 71.9474 67.8065 71.3764 67.6487 70.7838C67.2831 69.3817 66.738 67.8784 66.0281 66.3101L65.8703 65.9632C65.2822 64.6551 64.0275 63.2892 62.8801 62.6243C62.6363 62.4869 62.3996 62.3713 62.1772 62.299C61.704 62.1472 61.3454 62.1834 61.123 62.3785L59.7031 63.6505C59.9255 63.4554 60.2841 63.4192 60.7573 63.5638C60.9868 63.6361 61.2235 63.7445 61.4602 63.889C62.6074 64.5539 63.8624 65.9199 64.4504 67.228L64.6082 67.5749C65.3182 69.1432 65.8632 70.6465 66.2289 72.0485C66.3867 72.6412 66.5086 73.2194 66.6018 73.7686L67.5555 79.5359C67.6201 79.9118 67.5555 80.1863 67.3836 80.3383L68.8034 79.0661C68.9756 78.9144 69.0399 78.647 68.9756 78.2641V78.2711Z" fill="url(#paint0_linear_131_1533)"/>
<path d="M64.809 69.5266C64.809 70.8059 63.7335 85.2241 54.2029 85.2241C44.6725 85.2241 43.4749 70.047 43.4749 69.5266C43.9124 69.5266 64.809 69.5266 64.809 69.5266Z" fill="url(#paint1_linear_131_1533)"/>
<path d="M57.1288 66.9753C55.4364 67.9293 52.74 67.9003 51.0907 66.9102C49.4485 65.9201 49.4843 64.3445 51.1767 63.3905C52.8691 62.4366 55.5655 62.4655 57.2147 63.4556C58.8643 64.4457 58.821 66.0213 57.1288 66.9753Z" fill="#C0BACA"/>
<path d="M64.7087 68.6811C64.6442 68.4281 64.5509 68.0957 64.4647 67.8572C64.3715 67.597 64.2283 67.2645 64.1134 67.0116C63.9126 66.578 63.5683 66.0142 63.2743 65.624C63.1022 65.3999 62.7079 64.8796 62.0626 64.2941C61.4099 63.7087 60.8722 63.3763 60.5422 63.1739C60.3341 63.0438 60.0474 62.8921 59.8323 62.7837C59.6601 62.6969 59.4307 62.5885 59.2515 62.5162C58.771 62.3067 58.3695 62.1766 57.9822 62.0537C57.932 62.0392 57.4515 61.8875 56.7342 61.7429C56.2611 61.649 55.7734 61.5839 55.4937 61.5622C55.3073 61.5478 55.0635 61.5189 54.877 61.5117C54.6906 61.5117 54.4468 61.49 54.2603 61.49C54.0739 61.49 53.83 61.49 53.6436 61.4972C53.2563 61.4972 52.783 61.555 52.403 61.5984C52.403 61.5984 51.7934 61.6706 51.148 61.8224C50.94 61.873 50.6747 61.9381 50.4668 61.9959C50.2875 62.0465 50.0437 62.126 49.8644 62.1838C49.6421 62.2561 49.3481 62.3717 49.1329 62.4657C48.9537 62.5379 48.7242 62.6536 48.5521 62.7331C48.3154 62.8415 48.0142 63.0077 47.7919 63.1378C47.4692 63.3329 47.0461 63.6148 46.7521 63.8461C46.4581 64.0773 46.078 64.4025 45.8199 64.67C45.5976 64.894 45.3179 65.2048 45.1314 65.4577C45.0239 65.6023 44.8733 65.7902 44.7801 65.942C44.6295 66.1732 44.443 66.4912 44.3068 66.7297C44.1777 66.9538 44.0343 67.2718 43.9482 67.5103C43.8263 67.8427 43.6829 68.2908 43.5896 68.6305C43.1451 70.4734 44.106 72.4103 46.5011 73.8558C50.6102 76.3275 57.3582 76.3997 61.5821 74.0075C64.1134 72.5765 65.1603 70.589 64.7158 68.6883L64.7087 68.6811ZM57.1288 66.9827C55.4364 67.9367 52.74 67.9078 51.0907 66.9176C49.4485 65.9275 49.4843 64.352 51.1767 63.398C52.8691 62.444 55.5654 62.4729 57.2147 63.463C58.857 64.4531 58.821 66.0287 57.1288 66.9827Z" fill="url(#paint2_linear_131_1533)"/>
<g style="mix-blend-mode:multiply">
<path d="M56.6124 84.8913C55.8738 85.1155 55.0778 85.2312 54.2029 85.2312C46.9888 85.2312 44.5506 76.5295 43.7905 72.0776C45.2032 71.0007 44.7514 68.9988 45.5832 68.5145C45.9346 68.3122 46.1426 68.1965 46.1426 68.1965C46.2502 68.2833 47.6127 69.1578 48.0788 69.7432C49.678 71.774 49.0469 78.3796 50.0867 81.5237C50.9831 84.2265 53.6221 85.0793 56.6124 84.8913Z" fill="#EBEBEB"/>
</g>
<path d="M59.5955 68.7677C56.5837 70.5239 51.6787 70.5094 48.6453 68.746C45.6119 66.9825 45.5976 64.1278 48.6094 62.3716C51.6213 60.6154 56.5264 60.6298 59.5599 62.3933C62.593 64.1567 62.6074 67.0114 59.5955 68.7677Z" fill="#D4D5E6"/>
<path d="M47.2612 66.3683C47.5051 66.5201 47.8349 66.7008 48.0859 66.8236C48.5114 67.026 48.9441 67.2115 49.3839 67.3801C49.5847 67.4524 49.85 67.5463 50.058 67.6042C50.4309 67.7053 50.9329 67.8282 51.3058 67.9149C51.5066 67.9583 51.7719 68.0017 51.9799 68.0306C52.1735 68.0522 52.4316 68.0884 52.6324 68.1101C52.826 68.1317 53.0914 68.1462 53.285 68.1607C53.4786 68.1751 53.744 68.1823 53.9376 68.1823C54.1312 68.1823 54.3965 68.1823 54.5973 68.1751C54.7981 68.1751 55.0706 68.1534 55.2714 68.139C55.6586 68.1028 56.1822 68.0306 56.5694 67.9727C56.7772 67.9438 57.0569 67.886 57.265 67.8354C57.4515 67.7921 57.7095 67.727 57.896 67.6764C58.1184 67.6114 58.4195 67.5174 58.6419 67.4452C58.9073 67.3584 59.2442 67.2211 59.5023 67.1127C59.8466 66.9682 60.2841 66.7441 60.6138 66.5634C60.8935 66.4117 61.2448 66.1804 61.5102 65.9997C61.6896 65.8768 61.9261 65.7034 62.0982 65.5589C62.3423 65.3565 62.6576 65.0674 62.8944 64.8506C62.4282 65.3131 61.8545 65.7468 61.1589 66.137C57.1072 68.4136 50.6747 68.3486 46.7951 65.9925C46.2358 65.6528 45.7625 65.2914 45.3681 64.9012C45.5617 65.0819 45.8199 65.3131 46.0206 65.4866C46.1139 65.5661 46.2429 65.6673 46.3433 65.7468C46.6158 65.9564 46.9888 66.2093 47.2828 66.3827L47.2612 66.3683Z" fill="url(#paint3_linear_131_1533)"/>
<path d="M55.2643 68.1314C60.6211 68.1314 66.2002 62.7688 66.2002 59.1046C66.2002 57.7892 66.1143 55.6716 65.476 53.4962C64.3285 49.6224 42.9873 51.5377 42.557 54.2985C42.4566 54.9634 42.4279 55.4476 42.4064 55.6066C42.2702 56.4233 41.3953 61.0487 44.7012 64.2504C48.0071 67.452 51.1982 68.1314 55.2643 68.1314Z" fill="url(#paint4_linear_131_1533)"/>
<path d="M65.6338 54.0673C65.5619 53.7927 65.4617 53.4313 65.3684 53.1711C65.2679 52.8893 65.1174 52.5207 64.9882 52.2533C64.7661 51.7763 64.4001 51.1692 64.0705 50.7428C63.884 50.4971 63.4538 49.9261 62.7509 49.2974C62.041 48.6614 61.4529 48.3 61.1016 48.0832C60.8722 47.9459 60.5638 47.7796 60.3271 47.6568C60.1406 47.5628 59.8896 47.4472 59.6961 47.3605C59.1726 47.1292 58.7351 46.9919 58.3192 46.8546C58.2617 46.8329 57.7382 46.6739 56.9567 46.5149C56.4476 46.4137 55.9097 46.3414 55.6085 46.3125C55.4077 46.2908 55.1423 46.2691 54.9344 46.2619C54.7336 46.2619 54.4611 46.2402 54.2603 46.2402C54.0595 46.2402 53.787 46.2402 53.5862 46.2475C53.1631 46.2475 52.6468 46.3125 52.2309 46.3559C52.2309 46.3559 51.5639 46.4354 50.8612 46.5944C50.6389 46.645 50.3449 46.7245 50.1226 46.7823C49.9218 46.8401 49.6636 46.9268 49.4628 46.9919C49.219 47.0714 48.9035 47.2015 48.6597 47.2954C48.466 47.3749 48.2151 47.4978 48.0214 47.5845C47.7633 47.7001 47.4334 47.8808 47.1967 48.0254C46.8454 48.2422 46.3864 48.5457 46.0637 48.7987C45.741 49.0516 45.3323 49.4058 45.0454 49.6948C44.8087 49.9406 44.4932 50.273 44.2924 50.5477C44.1777 50.7067 44.0128 50.909 43.9052 51.0753C43.7403 51.3282 43.5395 51.6679 43.396 51.9353C43.2598 52.181 43.102 52.5207 43.0016 52.7881C42.8654 53.1495 42.7148 53.6409 42.6072 54.0095C42.1196 56.0115 43.1737 58.129 45.7769 59.6973C50.2516 62.3931 57.602 62.4654 62.2058 59.8636C64.9595 58.3025 66.107 56.1415 65.6195 54.0746L65.6338 54.0673Z" fill="url(#paint5_linear_131_1533)"/>
<path d="M66.064 57.9845C66.0853 58.7434 66.064 59.1697 65.9421 59.6323C65.5189 61.0561 64.3858 62.3714 62.4568 63.4555C59.1869 65.2912 54.6045 65.8477 50.56 65.1322C49.2979 64.8431 48.8246 64.7419 48.2079 59.2999C48.1218 57.7677 48.6453 57.6592 49.1114 57.7315C53.0412 58.9457 58.0252 58.6133 61.4099 56.7125C63.6186 55.4694 64.7085 53.8071 64.6655 52.1521C64.6655 52.116 64.6655 52.0726 64.6728 52.0437C64.7444 52.0871 64.7947 52.1088 64.852 52.1883C64.852 52.1883 65.8919 54.183 66.0783 57.9917L66.064 57.9845Z" fill="#003447"/>
<path d="M55.8236 60.1672C54.8842 60.2178 54.124 61.2369 54.124 62.4438C54.124 62.6534 54.1455 62.8558 54.1886 63.0436C54.6762 62.8558 55.2284 62.7401 55.8164 62.7112C56.4046 62.6823 56.9567 62.7473 57.4442 62.8846C57.4874 62.6895 57.5088 62.4871 57.5088 62.2776C57.5088 61.0634 56.7486 60.1239 55.8092 60.1672H55.8236Z" fill="#7EF716"/>
<path d="M62.4785 57.84C61.8545 58.3387 61.5318 59.6324 61.7613 60.7309C61.7972 60.9188 61.8545 61.0923 61.9191 61.2441C62.2131 60.8393 62.5644 60.4635 62.9517 60.1455C63.3462 59.8348 63.7262 59.6179 64.0848 59.5095C64.0775 59.3144 64.0561 59.112 64.0129 58.9242C63.7834 57.8256 63.1022 57.3414 62.4785 57.84Z" fill="#7EF716"/>
<path d="M39.5523 69.1077C39.4734 69.0716 39.4017 69.0427 39.3228 69.0065L32.288 65.9205C31.6712 65.6531 31.0904 64.9521 30.9541 64.3161C30.8179 63.6801 31.1693 63.297 31.7573 63.4416L36.1747 64.4895C38.3189 64.9954 40.4917 65.6314 42.6933 66.383L44.651 67.048C44.6725 67.0841 44.7585 67.0841 44.8087 67.1058C45.5115 67.4093 46.2143 68.1104 46.5657 68.8837C47.0533 69.9533 46.7091 70.7844 45.8199 70.7122L45.5043 70.6833C44.1418 70.5676 42.7076 70.2568 41.2232 69.7509C40.671 69.563 40.1117 69.3462 39.5523 69.1077Z" fill="url(#paint6_linear_131_1533)"/>
<path d="M47.2326 69.1797C46.6589 67.915 45.5259 66.7731 44.3713 66.2816C44.2853 66.2455 44.1992 66.2093 44.1131 66.1804L42.1554 65.5155C39.918 64.7494 37.7022 64.1134 35.5293 63.5931L31.1119 62.5451C29.986 62.2777 29.3263 62.9932 29.5844 64.2074C29.8426 65.4216 30.9398 66.7369 32.123 67.2573L39.1579 70.3433C39.2368 70.3794 39.3228 70.4156 39.4017 70.4517C39.9969 70.7046 40.585 70.9287 41.173 71.1311C42.7435 71.6659 44.2637 71.9983 45.7051 72.1212L46.0207 72.1501C47.4764 72.273 48.0286 70.9215 47.2326 69.1797ZM45.8199 70.7119L45.5043 70.683C44.1418 70.5674 42.7076 70.2566 41.2232 69.7506C40.671 69.5628 40.1117 69.3459 39.5523 69.1075C39.4734 69.0713 39.4017 69.0424 39.3228 69.0063L32.288 65.9202C31.6712 65.6528 31.0904 64.9518 30.9541 64.3158C30.8179 63.6798 31.1693 63.2968 31.7573 63.4413L36.1747 64.4892C38.3189 64.9951 40.4917 65.6311 42.6933 66.3828L44.651 67.0477C44.6725 67.0838 44.7585 67.0838 44.8087 67.1055C45.5115 67.409 46.2143 68.1101 46.5657 68.8834C47.0533 69.953 46.7091 70.7842 45.8199 70.7119Z" fill="url(#paint7_linear_131_1533)"/>
<path d="M46.0207 72.1573L45.7052 72.1284C44.2638 72.0055 42.7435 71.673 41.173 71.1382C40.585 70.9359 39.9969 70.7118 39.4017 70.4589C39.3228 70.4227 39.2368 70.3866 39.1579 70.3505L32.123 67.2644C30.9398 66.7441 29.8426 65.4287 29.5845 64.2145C29.441 63.5569 29.5701 63.051 29.9 62.7546L28.6164 63.9038C28.2937 64.1929 28.1646 64.706 28.3008 65.3636C28.559 66.5778 29.6562 67.8932 30.8394 68.4135L37.8743 71.4996C37.9532 71.5357 38.0392 71.5719 38.1181 71.608C38.7133 71.8609 39.3013 72.085 39.8894 72.2874C41.4598 72.8222 42.9801 73.1546 44.4215 73.2775L44.7371 73.3064C45.2104 73.3498 45.5904 73.2269 45.8629 72.9884L47.1465 71.8393C46.8812 72.0778 46.5012 72.1934 46.0207 72.1573Z" fill="url(#paint8_linear_131_1533)"/>
</g>
</g>
<defs>
<linearGradient id="paint0_linear_131_1533" x1="69.9149" y1="78.8711" x2="60.5192" y2="62.7238" gradientUnits="userSpaceOnUse">
<stop offset="0.73" stop-color="#D7D8E8"/>
<stop offset="0.93" stop-color="#EAE9F2"/>
</linearGradient>
<linearGradient id="paint1_linear_131_1533" x1="43.4749" y1="77.3825" x2="64.809" y2="77.3825" gradientUnits="userSpaceOnUse">
<stop offset="0.37" stop-color="#CACCDE"/>
<stop offset="0.97" stop-color="#EAE9F2"/>
</linearGradient>
<linearGradient id="paint2_linear_131_1533" x1="50.3018" y1="76.0601" x2="58.4931" y2="61.9789" gradientUnits="userSpaceOnUse">
<stop stop-color="#CACCDE"/>
<stop offset="0.56" stop-color="#EAE9F2"/>
</linearGradient>
<linearGradient id="paint3_linear_131_1533" x1="52.4962" y1="66.5128" x2="68.9899" y2="66.5128" gradientUnits="userSpaceOnUse">
<stop offset="0.24" stop-color="#A8A4B5"/>
<stop offset="1" stop-color="#DBD3E2"/>
</linearGradient>
<linearGradient id="paint4_linear_131_1533" x1="44.1203" y1="80.5333" x2="61.4112" y2="41.7433" gradientUnits="userSpaceOnUse">
<stop offset="0.37" stop-color="#CACCDE"/>
<stop offset="0.97" stop-color="#EAE9F2"/>
</linearGradient>
<linearGradient id="paint5_linear_131_1533" x1="49.9433" y1="62.104" x2="58.8673" y2="46.7702" gradientUnits="userSpaceOnUse">
<stop stop-color="#CACCDE"/>
<stop offset="0.56" stop-color="#EAE9F2"/>
</linearGradient>
<linearGradient id="paint6_linear_131_1533" x1="37.8312" y1="72.5479" x2="39.6512" y2="62.7456" gradientUnits="userSpaceOnUse">
<stop stop-color="#D2D3E3"/>
<stop offset="0.08" stop-color="#D8D8E6"/>
<stop offset="0.3" stop-color="#E5E4EF"/>
<stop offset="0.5" stop-color="#EAE9F2"/>
</linearGradient>
<linearGradient id="paint7_linear_131_1533" x1="37.5946" y1="72.5043" x2="39.4073" y2="62.7019" gradientUnits="userSpaceOnUse">
<stop stop-color="#D2D3E3"/>
<stop offset="0.08" stop-color="#D8D8E6"/>
<stop offset="0.3" stop-color="#E5E4EF"/>
<stop offset="0.5" stop-color="#EAE9F2"/>
</linearGradient>
<linearGradient id="paint8_linear_131_1533" x1="30.0004" y1="64.1929" x2="45.8654" y2="74.5588" gradientUnits="userSpaceOnUse">
<stop offset="0.08" stop-color="#D0D2E2"/>
<stop offset="0.09" stop-color="#D6D7E6"/>
<stop offset="0.15" stop-color="#E4E4EE"/>
<stop offset="0.19" stop-color="#EAE9F2"/>
</linearGradient>
<clipPath id="clip0_131_1533">
<rect width="106" height="106" fill="white"/>
</clipPath>
<clipPath id="clip1_131_1533">
<rect width="27" height="28" fill="white" transform="translate(35 15)"/>
</clipPath>
<clipPath id="clip2_131_1533">
<rect width="41" height="45" fill="white" transform="translate(28 46)"/>
</clipPath>
</defs>
</svg>
