<svg width="106" height="106" viewBox="0 0 106 106" fill="none" xmlns="http://www.w3.org/2000/svg">
<g clip-path="url(#clip0_131_1531)">
<g clip-path="url(#clip1_131_1531)">
<path d="M82.8644 36.5823C82.7926 36.6438 82.7205 36.7054 82.6487 36.7669C82.2749 37.0814 81.8795 37.3618 81.4697 37.5806L81.7933 37.3208C82.1672 37.1156 82.5264 36.8626 82.8644 36.5754V36.5823Z" fill="#A3E26D"/>
<path d="M85.8046 31.5903C85.7903 31.6381 85.7831 31.6928 85.7687 31.7407C85.7687 31.7544 85.7687 31.7681 85.7615 31.7817C85.7615 31.8023 85.7541 31.8159 85.7469 31.8365C85.7469 31.8433 85.7469 31.857 85.7469 31.8638C85.8477 31.4262 85.898 30.9885 85.898 30.5646L85.97 30.168C85.97 30.6329 85.9123 31.1116 85.8046 31.5903Z" fill="#A3E26D"/>
<path d="M85.8764 23.2274L85.9482 22.824L85.9697 30.168L85.8979 30.5647L85.8764 23.2274Z" fill="#A3E26D"/>
<path d="M81.7428 20.9844L81.4194 20.369C83.9138 19.0014 85.941 20.0955 85.9482 22.8238L85.8764 23.2204C85.8764 20.7382 84.0218 19.733 81.75 20.9844H81.7428Z" fill="#A3E26D"/>
<path d="M83.2164 19.2886L84.6328 20.0682C83.8131 19.6169 82.6774 19.6784 81.4193 20.3691L80.0032 19.5895C81.2612 18.8989 82.3969 18.8373 83.2164 19.2886Z" fill="#69C619"/>
<path d="M81.7933 37.3206L81.4697 37.5804L61.9667 48.2956L62.2902 48.0358L81.7933 37.3206Z" fill="#A3E26D"/>
<path d="M58.7533 48.5898L57.3371 47.8103C56.5248 47.3588 56.0216 46.4083 56.0216 45.0544L57.4378 45.834C57.4378 47.1879 57.941 48.1386 58.7533 48.5898Z" fill="#69C619"/>
<path d="M62.2902 48.0359L61.9667 48.2957C59.4722 49.6632 57.445 48.5622 57.4378 45.8408L58.1638 45.7998C58.171 48.282 60.0185 49.2871 62.2902 48.0359Z" fill="#A3E26D"/>
<path d="M58.1638 45.7998L57.4377 45.8408L57.4162 38.4968L58.135 38.4558L58.1638 45.7998Z" fill="#A3E26D"/>
<path d="M57.4377 45.841L56.0216 45.0546L56 37.7104L57.4162 38.4968L57.4377 45.841Z" fill="#69C619"/>
<path d="M61.9164 31.0844L60.5002 30.298L80.0032 19.5896L81.4194 20.3691L61.9164 31.0844Z" fill="#69C619"/>
<path d="M62.2399 31.6998L61.9164 31.0844L81.4194 20.3691L81.7428 20.9846L62.2399 31.6998Z" fill="#A3E26D"/>
<path d="M56.1582 36.2882C56.1797 36.1993 56.2013 36.1036 56.2157 36.0147C56.6039 34.2778 57.6965 32.4794 59.0912 31.3033C59.0912 31.3033 59.1055 31.2896 59.1127 31.2828C59.1127 31.2828 59.1199 31.2828 59.1271 31.2759C59.1271 31.2759 59.1415 31.2623 59.1487 31.2554C59.1487 31.2554 59.1559 31.2554 59.1631 31.2486C59.1631 31.2486 59.1774 31.2349 59.1846 31.2281C59.1846 31.2281 59.1918 31.2281 59.199 31.2212C59.199 31.2212 59.2134 31.2076 59.2206 31.2007C59.2206 31.2007 59.2349 31.187 59.2421 31.1802C59.2421 31.1802 59.2493 31.1802 59.2565 31.1734C59.2565 31.1734 59.2709 31.1597 59.2781 31.1528C59.2781 31.1528 59.2924 31.1392 59.2996 31.1323C59.2996 31.1323 59.3068 31.1323 59.314 31.1255C59.314 31.1255 59.3212 31.1255 59.3284 31.1187C57.7972 32.4111 56.5895 34.3873 56.1725 36.2882H56.1582Z" fill="#A3E26D"/>
<path d="M81.7428 20.9844C84.0146 19.7398 85.8621 20.7382 85.8692 23.2204L85.8908 30.5645C85.8979 33.0467 84.0649 36.076 81.7933 37.3205L62.2902 48.0357C60.0185 49.2872 58.171 48.282 58.1639 45.7996L58.1423 38.4556C58.1351 35.9734 59.9682 32.9441 62.2399 31.6996L81.7428 20.9844Z" fill="#99FA46"/>
<path d="M58.1351 38.4557L57.409 38.4967C57.4018 35.7752 59.4147 32.4518 61.9092 31.0842L62.2327 31.6997C59.961 32.9442 58.1207 35.9735 58.1351 38.4557Z" fill="#A3E26D"/>
<path d="M57.4162 38.4967L56 37.7172C55.9928 34.9956 58.0057 31.6723 60.5002 30.3047L61.9164 31.0842C59.4219 32.4518 57.409 35.7751 57.4162 38.4967Z" fill="#69C619"/>
<path d="M64.8134 41.2593L65.597 41.697C65.5179 41.6559 65.4029 41.6765 65.2807 41.7448L64.4971 41.3072C64.6193 41.2388 64.7344 41.2183 64.8134 41.2593Z" fill="#69C619"/>
<path d="M62.3692 43.3383L61.5857 42.9075L64.5043 41.3005L65.2878 41.7382L62.3692 43.3383Z" fill="#69C619"/>
<path d="M64.8566 38.8248L64.0658 38.394L64.0586 36.1785L64.8494 36.6093L64.8566 38.8248Z" fill="#69C619"/>
<path d="M61.5282 44.7331L60.7374 44.2953L60.7302 41.2729L61.5138 41.7106L61.5282 44.7331Z" fill="#69C619"/>
<path d="M62.4699 40.1382L61.6863 39.7006L64.0658 38.3945L64.8566 38.8253L62.4699 40.1382Z" fill="#69C619"/>
<path d="M64.6768 35.2077L65.4604 35.6454C65.4604 35.6454 65.4388 35.6317 65.4316 35.6317C65.2159 35.5359 65.0218 35.5975 64.7415 35.7479L63.9579 35.3103C64.2383 35.1599 64.4324 35.0983 64.648 35.194C64.6552 35.194 64.6696 35.2009 64.6768 35.2077Z" fill="#69C619"/>
<path d="M61.5138 41.7108L60.7302 41.2732C60.7302 40.5757 61.0465 40.0492 61.6863 39.7004L62.4699 40.1381C61.8373 40.4868 61.5138 41.0133 61.5138 41.7108Z" fill="#69C619"/>
<path d="M61.9307 37.2863L61.14 36.8555L63.9579 35.3101L64.7415 35.7409L61.9307 37.2863Z" fill="#69C619"/>
<path d="M61.6144 38.2573L60.8308 37.8196C60.7662 37.7854 60.723 37.6966 60.723 37.5461C60.723 37.211 60.9243 36.9717 61.1472 36.8486L61.9307 37.2863C61.7079 37.4093 61.5066 37.6487 61.5066 37.9838C61.5066 38.1342 61.5497 38.2231 61.6144 38.2573Z" fill="#69C619"/>
<path d="M64.7415 35.741C65.0219 35.5905 65.216 35.529 65.4316 35.6247C65.6689 35.7341 65.6976 35.9735 65.6976 36.3085V38.2095C65.6976 38.5446 65.6833 38.8044 65.446 39.1805C65.2375 39.5087 65.0363 39.666 64.7631 39.8164L62.3692 41.1294V43.3449L65.2951 41.7448C65.5179 41.6217 65.7192 41.6422 65.7192 41.9773C65.7192 42.3123 65.5179 42.5517 65.2951 42.6748L61.5282 44.7399V41.7174C61.5138 41.0199 61.8373 40.4934 62.4771 40.1447L64.8565 38.8386V36.6231L61.9307 38.2232C61.7079 38.3463 61.5066 38.3258 61.5066 37.9907C61.5066 37.6556 61.7079 37.4163 61.9307 37.2932L64.7487 35.7478L64.7415 35.741Z" fill="white"/>
<path d="M70.6507 39.6047L69.8671 39.1671C69.7952 39.1261 69.7665 39.0235 69.7665 38.873L70.55 39.3107C70.55 39.4611 70.5788 39.5637 70.6507 39.6047Z" fill="#69C619"/>
<path d="M70.5429 39.3105L69.7593 38.8797L69.7521 36.9856L70.5357 37.4232L70.5429 39.3105Z" fill="#69C619"/>
<path d="M70.9095 35.5496L71.693 35.9872C71.614 35.9462 71.4989 35.9667 71.3767 36.0351L70.5932 35.5975C70.7154 35.5291 70.8304 35.5086 70.9095 35.5496Z" fill="#69C619"/>
<path d="M68.8895 37.3959L68.1059 36.9651L69.7521 36.0625L70.5357 36.4933L68.8895 37.3959Z" fill="#69C619"/>
<path d="M70.5356 36.4934L69.752 36.0626L69.7449 33.3821L70.5284 33.8197L70.5356 36.4934Z" fill="#69C619"/>
<path d="M70.4781 32.6366L71.2617 33.0742C71.197 33.04 71.0964 33.0469 70.9454 33.1221C70.6219 33.2999 70.5213 33.5871 70.5213 33.8196L69.7377 33.3819C69.7377 33.1495 69.8383 32.8623 70.1618 32.6845C70.3056 32.6024 70.4063 32.5956 70.4781 32.6366Z" fill="#69C619"/>
<path d="M68.0484 38.7911L67.2576 38.3603L67.2504 33.9634L68.034 34.401L68.0484 38.7911Z" fill="#69C619"/>
<path d="M67.9836 33.2179L68.7672 33.6555C68.7025 33.6213 68.6019 33.6282 68.4509 33.7034L67.6674 33.2658C67.8111 33.1837 67.9118 33.1769 67.9836 33.2179Z" fill="#69C619"/>
<path d="M68.4581 33.7034C68.7816 33.5256 68.8822 33.7034 68.8822 33.9359V37.4028L70.5356 36.5002V33.8196C70.5285 33.5871 70.6291 33.2999 70.9526 33.1221C71.2761 32.9443 71.3767 33.1221 71.3767 33.3546V36.0352C71.6068 35.9121 71.8081 35.9326 71.8081 36.2676C71.8081 36.6027 71.6068 36.8421 71.3839 36.9651V38.8524C71.3839 39.1465 71.2689 39.379 70.967 39.5499C70.6579 39.7209 70.5428 39.6183 70.5428 39.3174V37.4301L68.0484 38.7977L68.034 34.4077C68.034 34.1752 68.1346 33.888 68.4581 33.7102V33.7034Z" fill="white"/>
<path d="M68.034 34.401L67.2504 33.9634C67.2504 33.7309 67.351 33.4437 67.6745 33.2659L68.4581 33.7035C68.1346 33.8813 68.034 34.1685 68.034 34.401Z" fill="#69C619"/>
<path d="M73.8496 37.8197L73.0661 37.3821C72.9942 37.3411 72.951 37.2658 72.951 37.1564C72.951 36.9787 73.0517 36.7667 73.1379 36.5684L73.9215 37.006C73.8353 37.2043 73.7346 37.4163 73.7346 37.5941C73.7346 37.7035 73.7777 37.7787 73.8496 37.8197Z" fill="#69C619"/>
<path d="M76.9983 28.2808L77.7819 28.7184C77.7028 28.6773 77.595 28.6842 77.48 28.7457L76.6964 28.3081C76.8114 28.2466 76.9193 28.2397 76.9983 28.2808Z" fill="#69C619"/>
<path d="M73.9215 37.0059L73.1307 36.5683L76.2866 28.8892L77.0702 29.3268L73.9215 37.0059Z" fill="#69C619"/>
<path d="M77.0702 29.3267L76.2866 28.8891C76.3873 28.6498 76.4879 28.4241 76.7036 28.3079L77.4871 28.7455C77.2787 28.8617 77.1708 29.0874 77.0702 29.3267Z" fill="#69C619"/>
<path d="M77.4871 28.7456C77.71 28.6226 77.904 28.7115 77.904 28.9508C77.904 29.1012 77.8609 29.2311 77.8106 29.3611L74.5757 37.2385C74.475 37.4915 74.3744 37.6762 74.1587 37.7924C73.9431 37.9087 73.7346 37.8334 73.7346 37.5873C73.7346 37.4095 73.8352 37.1975 73.9215 36.9992L77.0774 29.32C77.178 29.0807 77.2786 28.855 77.4943 28.7388L77.4871 28.7456Z" fill="white"/>
<path d="M81.6279 33.5735L80.8443 33.1358C80.7724 33.0948 80.7437 32.9922 80.7437 32.8418L81.5273 33.2794C81.5273 33.4299 81.556 33.5324 81.6279 33.5735Z" fill="#69C619"/>
<path d="M81.5272 33.286L80.7364 32.8483L80.7293 30.6123L81.52 31.0499L81.5272 33.286Z" fill="#69C619"/>
<path d="M81.7356 30.3937L80.9521 29.9561L82.1167 28.2124L82.9003 28.6432L81.7356 30.3937Z" fill="#69C619"/>
<path d="M81.5201 31.0502L80.7365 30.6125C80.7365 30.3048 80.7437 30.2774 80.9522 29.9561L81.7356 30.3937C81.5273 30.7151 81.5129 30.7493 81.5201 31.0502Z" fill="#69C619"/>
<path d="M82.9003 28.6432L82.1167 28.2056C82.3969 27.7816 82.3754 27.8021 82.3754 27.3918L83.159 27.8295C83.159 28.2398 83.1805 28.2193 82.9003 28.6432Z" fill="#69C619"/>
<path d="M83.1662 27.8362L82.3754 27.3986V26.1199L83.159 26.5575L83.1662 27.8362Z" fill="#69C619"/>
<path d="M79.9529 28.6501L79.1694 28.2125C79.0831 28.1646 79.0399 28.062 79.0399 27.9526L79.8235 28.3903C79.8235 28.4997 79.8667 28.6022 79.9529 28.6501Z" fill="#69C619"/>
<path d="M79.8235 28.3902L79.0327 27.9525V27.4944L79.8163 27.9252L79.8235 28.3902Z" fill="#69C619"/>
<path d="M80.2404 27.2276L79.4569 26.7968L83.2238 24.7249L84.0074 25.1625L80.2404 27.2276Z" fill="#69C619"/>
<path d="M84.0074 25.1624V27.8497C84.0146 28.1711 84.0218 28.2053 83.7844 28.5609L82.5982 30.3319C82.3754 30.667 82.361 30.6943 82.361 31.0157V32.8142C82.361 33.1082 82.2461 33.3407 81.9441 33.5116C81.6423 33.6757 81.52 33.58 81.52 33.2792V31.0431C81.5128 30.7354 81.52 30.708 81.7356 30.3866L82.9003 28.6429C83.1805 28.219 83.159 28.2395 83.159 27.8292V26.5505L80.6646 27.9181C80.6646 28.1232 80.5136 28.4651 80.2404 28.6156C79.9673 28.766 79.8163 28.5882 79.8163 28.3831V27.9181C79.8163 27.713 79.9673 27.3711 80.2404 27.2206L84.0074 25.1555V25.1624Z" fill="white"/>
<path d="M79.8163 27.9252L79.0327 27.4875C79.0327 27.2824 79.1837 26.9405 79.4569 26.79L80.2404 27.2277C79.9673 27.3781 79.8163 27.72 79.8163 27.9252Z" fill="#69C619"/>
</g>
<g clip-path="url(#clip2_131_1531)">
<path d="M44.4352 83.0425C41.7537 84.6055 37.384 84.5985 34.6886 83.0215C31.9862 81.4515 31.9723 78.9073 34.6608 77.3443C37.3423 75.7813 41.712 75.7883 44.4074 77.3653C47.1098 78.9353 47.1237 81.4795 44.4352 83.0425Z" fill="#EEF1F5"/>
<path d="M46.3803 47.0159L47.8114 46.1748C47.0056 45.7052 46.2761 45.6632 45.7482 45.9716L44.3171 46.8127C44.8451 46.5043 45.5745 46.5463 46.3803 47.0159Z" fill="url(#paint0_linear_131_1531)"/>
<path d="M46.3804 47.0159L47.8115 46.1748C49.4162 47.107 50.7085 49.3709 50.7015 51.2283C50.7015 52.1535 50.3749 52.7983 49.8538 53.1067L48.4228 53.9478C48.9438 53.6394 49.2703 52.9946 49.2703 52.0694C49.2703 50.212 47.9782 47.9481 46.3804 47.0159Z" fill="url(#paint1_linear_131_1531)"/>
<path d="M46.568 45.6142L46.7903 45.7333L46.568 45.2077C46.1233 45.1516 45.6787 45.1025 45.2341 45.0745C44.9354 45.0605 44.6298 45.0535 44.331 45.0535C44.9076 45.453 45.3592 46.0417 45.6996 46.8478L47.2974 47.78L46.9153 46.3361C46.8111 46.0838 46.693 45.8455 46.568 45.6212V45.6142Z" fill="#919BBD"/>
<path d="M45.5329 44.3178C45.248 44.2267 44.9632 44.1566 44.6714 44.1145V45.4602C44.8243 45.4883 44.9702 45.5303 45.116 45.5794C46.1025 45.9088 46.818 46.6307 47.2974 47.7732L48.5062 47.2545C47.881 45.7546 46.8736 44.7663 45.5259 44.3178H45.5329Z" fill="url(#paint2_linear_131_1531)"/>
<path d="M46.3804 47.0161C47.9851 47.9483 49.2773 50.2122 49.2703 52.0696C49.2703 53.927 47.9643 54.677 46.3595 53.7448C44.7548 52.8126 43.4626 50.5487 43.4696 48.6913C43.4696 46.8339 44.7756 46.0839 46.3804 47.0161Z" fill="url(#paint3_linear_131_1531)"/>
<path d="M46.3456 47.9061C45.1577 47.2122 44.1921 47.7729 44.1851 49.1467C44.1782 50.5205 45.1438 52.2026 46.3317 52.8965C47.5197 53.5904 48.4853 53.0297 48.4922 51.6559C48.4922 50.2751 47.5336 48.6 46.3456 47.9061Z" fill="url(#paint4_linear_131_1531)"/>
<path d="M45.248 47.3458C43.5182 46.3365 42.108 47.1496 42.101 49.1541C42.0941 51.1587 43.4974 53.6049 45.2272 54.6142C46.957 55.6235 48.3672 54.8104 48.3742 52.8058C48.3811 50.8013 46.9778 48.3551 45.248 47.3458Z" fill="#5B545F"/>
<path d="M43.8795 46.6234C44.4492 46.287 45.2411 46.336 46.1095 46.8407C47.8393 47.85 49.2426 50.2961 49.2356 52.3007C49.2356 53.296 48.8813 53.9969 48.3186 54.3263L47.4572 54.831C48.0199 54.5015 48.3673 53.8006 48.3742 52.8053C48.3742 50.8008 46.9779 48.3546 45.2481 47.3453C44.3797 46.8407 43.5877 46.7916 43.0181 47.128L43.8795 46.6234Z" fill="url(#paint5_linear_131_1531)"/>
<path d="M46.0817 63.1862C46.7208 63.5577 47.4224 64.3216 47.7489 65.0506L47.8948 65.366C48.4992 66.7117 48.9716 68.0015 49.2842 69.207C49.4162 69.7185 49.5274 70.2092 49.6038 70.6857L50.4721 75.9285C50.5486 76.3912 50.2151 76.5172 49.7011 76.216C49.187 75.9215 48.659 75.2907 48.4784 74.765L47.1168 70.854C46.4568 68.9615 45.8941 67.1112 45.4217 65.3169L45.0049 63.7259C44.8451 63.1091 45.123 62.8077 45.6857 62.9899C45.7621 63.074 45.9427 63.0951 46.0817 63.1722V63.1862Z" fill="#CFD0E0"/>
<path d="M51.688 76.2861L50.8195 71.0434C50.7362 70.5389 50.625 70.0131 50.479 69.4734C50.1457 68.1979 49.6524 66.831 49.0063 65.4012L48.8674 65.0858C48.3325 63.8942 47.1932 62.6536 46.1511 62.0439C45.9288 61.9177 45.7135 61.8126 45.512 61.7495C44.595 61.4551 44.1434 61.9457 44.4074 62.948L44.8242 64.5391C45.3036 66.3614 45.8802 68.2399 46.5471 70.1674L47.9087 74.0784C48.2561 75.0736 49.2634 76.2651 50.2359 76.8329C51.2085 77.4006 51.8406 77.1624 51.6949 76.2791L51.688 76.2861ZM49.701 76.2301C49.187 75.9356 48.659 75.3049 48.4784 74.7791L47.1168 70.8681C46.4568 68.9759 45.8941 67.1254 45.4217 65.3311L45.0049 63.74C44.8451 63.1232 45.123 62.8219 45.6857 63.0041C45.7621 63.0882 45.9427 63.1092 46.0816 63.1863C46.7208 63.5578 47.4224 64.3218 47.7489 65.0507L47.8948 65.3661C48.4992 66.7119 48.9716 68.0016 49.2842 69.2071C49.4162 69.7186 49.5274 70.2094 49.6038 70.6859L50.4721 75.9286C50.5486 76.3914 50.2151 76.5174 49.701 76.2161V76.2301Z" fill="#CFD0E0"/>
<path d="M52.9799 75.1224L52.1117 69.8796C52.0282 69.3751 51.9172 68.8494 51.7712 68.3096C51.4377 67.034 50.9446 65.6673 50.2984 64.2374L50.1596 63.922C49.6246 62.7305 48.4853 61.4899 47.4432 60.8801C47.221 60.754 47.0056 60.6488 46.8041 60.5857C46.3734 60.4456 46.0469 60.4806 45.8454 60.6628L44.5533 61.8193C44.7547 61.6371 45.0813 61.6091 45.512 61.7422C45.7204 61.8053 45.9358 61.9105 46.1511 62.0366C47.1931 62.6464 48.3325 63.887 48.8674 65.0785L49.0063 65.3939C49.6524 66.8168 50.1457 68.1906 50.479 69.4661C50.618 70.0059 50.7362 70.5316 50.8195 71.0361L51.688 76.2789C51.7435 76.6224 51.688 76.8676 51.5281 77.0079L52.8201 75.8514C52.973 75.7111 53.0357 75.4659 52.9799 75.1224Z" fill="url(#paint6_linear_131_1531)"/>
<path d="M49.187 67.1672C49.187 68.3308 48.2075 81.4515 39.5446 81.4515C30.8817 81.4515 29.791 67.6439 29.791 67.1672C30.187 67.1672 49.187 67.1672 49.187 67.1672Z" fill="url(#paint7_linear_131_1531)"/>
<path d="M42.2052 64.8403C40.6699 65.7094 38.2107 65.6884 36.7171 64.7842C35.2235 63.8871 35.2582 62.4502 36.7935 61.5811C38.3288 60.712 40.788 60.733 42.2816 61.6372C43.7752 62.5343 43.7405 63.9712 42.2052 64.8403Z" fill="#C0BACA"/>
<path d="M49.0966 66.389C49.041 66.1647 48.9577 65.8563 48.8743 65.639C48.791 65.4007 48.6659 65.0993 48.5547 64.868C48.3672 64.4685 48.0615 63.9638 47.7906 63.6064C47.6378 63.4031 47.2765 62.9265 46.686 62.3938C46.0955 61.8611 45.6023 61.5598 45.3105 61.3775C45.1229 61.2584 44.8589 61.1182 44.6644 61.0201C44.5116 60.943 44.2962 60.8448 44.1365 60.7747C43.6988 60.5785 43.3375 60.4663 42.9833 60.3542C42.9346 60.3402 42.497 60.2 41.8509 60.0738C41.4202 59.9897 40.9756 59.9337 40.7255 59.9056C40.5588 59.8916 40.3364 59.8706 40.1628 59.8636C39.9961 59.8636 39.7668 59.8496 39.6001 59.8425C39.4334 59.8425 39.2041 59.8425 39.0374 59.8425C38.6831 59.8425 38.2523 59.8916 37.905 59.9337C37.905 59.9337 37.3492 59.9967 36.7657 60.1369C36.5781 60.179 36.335 60.2421 36.1474 60.2981C35.9807 60.3472 35.7653 60.4173 35.5986 60.4733C35.3971 60.5364 35.1262 60.6486 34.9317 60.7257C34.7719 60.7958 34.5565 60.8939 34.4037 60.964C34.1884 61.0621 33.9174 61.2093 33.716 61.3355C33.4242 61.5177 33.0421 61.77 32.7712 61.9803C32.5003 62.1906 32.1598 62.4849 31.9237 62.7303C31.7222 62.9335 31.4651 63.2139 31.2984 63.4452C31.2012 63.5783 31.0692 63.7466 30.9788 63.8867C30.8399 64.097 30.6732 64.3844 30.5551 64.6017C30.437 64.8049 30.3119 65.0923 30.2286 65.3096C30.1174 65.611 29.9924 66.0175 29.9021 66.3329C29.4992 68.008 30.3745 69.7743 32.5489 71.085C36.2794 73.335 42.4205 73.398 46.2622 71.2253C48.5617 69.9215 49.5134 68.1133 49.1105 66.389H49.0966ZM42.2052 64.84C40.6699 65.7091 38.2107 65.6881 36.7171 64.7839C35.2235 63.8867 35.2582 62.4499 36.7935 61.5808C38.3288 60.7117 40.788 60.7327 42.2816 61.6368C43.7752 62.534 43.7405 63.9709 42.2052 64.84Z" fill="url(#paint8_linear_131_1531)"/>
<g style="mix-blend-mode:multiply">
<path d="M41.7397 81.143C41.0728 81.3463 40.3434 81.4513 39.5514 81.4513C32.9935 81.4513 30.7774 73.5313 30.0827 69.48C31.3679 68.4988 32.8267 67.6085 33.584 67.1669C33.9035 66.9847 34.0911 66.8726 34.0911 66.8726C34.1883 66.9567 34.2787 67.0548 34.362 67.1669C35.7445 69.0735 34.8622 75.2203 35.807 78.08C36.6198 80.5403 39.0234 81.3113 41.7397 81.143Z" fill="#EBEBEB"/>
</g>
<path d="M44.4491 66.4732C41.712 68.0712 37.252 68.0642 34.4941 66.4522C31.7361 64.8471 31.7222 62.2538 34.4663 60.6557C37.2034 59.0577 41.6634 59.0647 44.4213 60.6767C47.1793 62.2818 47.1932 64.8751 44.4491 66.4732Z" fill="#D4D5E6"/>
<path d="M33.2436 64.2939C33.4659 64.427 33.7646 64.5952 33.9939 64.7074C34.3783 64.8896 34.772 65.0578 35.1749 65.212C35.3555 65.2821 35.5986 65.3592 35.7862 65.4153C36.1266 65.5064 36.5782 65.6186 36.9186 65.6957C37.0992 65.7377 37.3424 65.7798 37.5299 65.8008C37.7036 65.8218 37.9398 65.8569 38.1204 65.8709C38.301 65.8919 38.5372 65.9059 38.7109 65.9199C38.8915 65.9269 39.1277 65.934 39.3083 65.941C39.489 65.941 39.7252 65.941 39.9058 65.934C40.0934 65.934 40.3365 65.9199 40.5171 65.8989C40.8714 65.8639 41.3438 65.8008 41.6981 65.7517C41.8926 65.7237 42.1427 65.6676 42.3303 65.6256C42.504 65.5835 42.7332 65.5274 42.8999 65.4784C43.1014 65.4223 43.3723 65.3312 43.5738 65.2681C43.81 65.191 44.1226 65.0648 44.3588 64.9667C44.6714 64.8335 45.0743 64.6303 45.3661 64.4691C45.6162 64.3289 45.9427 64.1186 46.1789 63.9574C46.3456 63.8453 46.561 63.6841 46.7138 63.5579C46.9361 63.3687 47.221 63.1093 47.4363 62.9131C47.0126 63.3336 46.4915 63.7261 45.8594 64.0836C42.1775 66.1512 36.335 66.0952 32.799 63.9504C32.2919 63.642 31.8612 63.3126 31.5069 62.9551C31.6806 63.1233 31.9167 63.3336 32.0974 63.4878C32.1807 63.5649 32.3058 63.649 32.3891 63.7191C32.6323 63.9084 32.9796 64.1397 33.2436 64.3009V64.2939Z" fill="url(#paint9_linear_131_1531)"/>
<path d="M40.5171 65.8916C45.3869 65.8916 50.4582 61.0063 50.4582 57.6771C50.4582 56.4785 50.3819 54.551 49.7983 52.5745C48.7562 49.049 29.3533 50.7942 28.9712 53.3034C28.8739 53.9132 28.86 54.3478 28.8322 54.495C28.7072 55.2379 27.9152 59.4503 30.9163 62.3591C33.9174 65.2748 36.8213 65.8916 40.5171 65.8916Z" fill="url(#paint10_linear_131_1531)"/>
<path d="M49.9371 53.0929C49.8747 52.8476 49.7845 52.5181 49.701 52.2728C49.6107 52.0135 49.4718 51.6841 49.3537 51.4387C49.1522 51.0042 48.8187 50.4505 48.52 50.058C48.3533 49.8337 47.9573 49.315 47.3182 48.7403C46.6721 48.1655 46.1372 47.8291 45.8176 47.6329C45.6092 47.5067 45.3244 47.3525 45.1091 47.2403C44.9423 47.1562 44.7131 47.0511 44.5394 46.974C44.06 46.7637 43.6641 46.6376 43.2889 46.5114C43.2403 46.4974 42.7609 46.3432 42.0524 46.203C41.5869 46.1119 41.1006 46.0488 40.8228 46.0208C40.6421 46.0068 40.399 45.9787 40.2114 45.9717C40.0308 45.9717 39.7807 45.9507 39.6001 45.9507C39.4195 45.9507 39.1694 45.9507 38.9888 45.9577C38.6067 45.9577 38.1343 46.0138 37.7591 46.0558C37.7591 46.0558 37.1547 46.1259 36.5156 46.2731C36.3142 46.3222 36.0432 46.3852 35.8417 46.4483C35.6611 46.4974 35.4249 46.5815 35.2443 46.6376C35.022 46.7077 34.7302 46.8268 34.5149 46.9179C34.3412 46.988 34.112 47.1002 33.9383 47.1843C33.709 47.2894 33.4034 47.4576 33.188 47.5908C32.8684 47.7871 32.4516 48.0604 32.1529 48.2917C31.8611 48.516 31.486 48.8454 31.229 49.1118C31.0136 49.336 30.7288 49.6374 30.5481 49.8898C30.4439 50.0369 30.298 50.2192 30.2008 50.3734C30.0549 50.6047 29.8673 50.9131 29.7353 51.1514C29.6103 51.3757 29.4714 51.6841 29.3811 51.9224C29.256 52.2518 29.1171 52.7004 29.0267 53.0368C28.5821 54.8592 29.5408 56.7866 31.9098 58.2165C35.9737 60.6696 42.6637 60.7397 46.8458 58.3707C49.3537 56.9548 50.3888 54.9783 49.944 53.0999L49.9371 53.0929Z" fill="url(#paint11_linear_131_1531)"/>
<g style="mix-blend-mode:multiply">
<path d="M44.5394 46.9812C44.06 46.7709 43.6641 46.6447 43.2889 46.5186C43.2403 46.5046 42.761 46.3504 42.0524 46.2102C41.5869 46.1191 41.1006 46.056 40.8227 46.028C40.7047 46.0139 40.5518 45.9999 40.4129 45.9929C39.7321 46.2242 38.9748 46.5256 38.1065 46.9111C34.0216 48.7124 30.1244 52.3781 29.9299 54.8313C29.8535 55.7775 30.0966 56.5205 30.4231 57.0882C30.833 57.4877 31.3193 57.8592 31.8959 58.2096L32.271 57.8171C32.5836 53.5416 34.4802 51.9506 37.1686 50.0722C39.8571 48.1937 43.3028 46.2522 45.8176 47.64C45.6092 47.5139 45.3244 47.3597 45.1091 47.2475C44.9423 47.1634 44.7131 47.0583 44.5394 46.9812Z" fill="#EBEBEB"/>
</g>
<path d="M50.3331 56.6605C50.3541 57.3474 50.3331 57.7399 50.2221 58.1605C49.833 59.4571 48.8048 60.6487 47.0542 61.6369C44.0809 63.3121 39.9196 63.8097 36.2377 63.1649C35.0915 62.9056 34.6608 62.8074 34.0981 57.8591C34.0217 56.4643 34.494 56.3662 34.9178 56.4362C38.4885 57.5437 43.018 57.2423 46.1025 55.5111C48.1101 54.3826 49.1035 52.8686 49.0619 51.3617C49.0619 51.3337 49.0619 51.2916 49.0619 51.2566C49.1313 51.2916 49.173 51.3197 49.2217 51.3898C49.2217 51.3898 50.1665 53.2051 50.3331 56.6675V56.6605Z" fill="#003447"/>
<path d="M31.1943 67.3983C31.8334 67.7698 32.3127 68.667 32.3058 69.5923V69.9918C32.2919 71.702 32.1182 73.37 31.7917 74.954C31.6528 75.627 31.493 76.2788 31.2985 76.9095L29.1935 83.8975C29.006 84.5145 28.471 84.7598 27.9639 84.4583C27.4498 84.164 27.1233 83.414 27.1997 82.734L27.7972 77.6805C28.082 75.2345 28.471 72.8303 28.9504 70.4753L29.3811 68.3867C29.5478 67.5806 30.1105 67.111 30.7705 67.2371C30.8191 67.3423 31.0623 67.3212 31.1943 67.3983Z" fill="url(#paint12_linear_131_1531)"/>
<path d="M31.7292 66.1717C31.5069 66.0455 31.2776 65.9544 31.0345 65.9053C29.9646 65.7021 29.0476 66.4661 28.7767 67.7767L28.346 69.8655C27.8597 72.2555 27.4637 74.7017 27.172 77.1897L26.5745 82.2432C26.4217 83.533 27.0469 84.9487 28.0264 85.5165C28.999 86.0842 30.0133 85.6217 30.3606 84.4512L32.4655 77.4632C32.667 76.7902 32.8407 76.0965 32.9866 75.3885C33.327 73.7135 33.5076 71.947 33.5215 70.1387V69.7392C33.5354 68.2252 32.7643 66.7745 31.7222 66.1647L31.7292 66.1717ZM31.7986 74.954C31.6597 75.6267 31.4999 76.2787 31.3054 76.9095L29.2005 83.8975C29.0129 84.5142 28.478 84.7595 27.9708 84.4582C27.4568 84.1637 27.1303 83.4137 27.2067 82.734L27.8041 77.6805C28.0889 75.2342 28.478 72.8302 28.9573 70.4752L29.388 68.3865C29.5548 67.5805 30.1175 67.1109 30.7774 67.2371C30.8261 67.3422 31.0692 67.3212 31.2012 67.3983C31.8403 67.7697 32.3197 68.667 32.3127 69.592V69.9915C32.2988 71.7017 32.1252 73.37 31.7986 74.954Z" fill="url(#paint13_linear_131_1531)"/>
<path d="M33.0143 65.8212C32.7921 65.695 32.5628 65.6039 32.3196 65.5548C32.0487 65.5058 31.7847 65.5128 31.5346 65.5829L30.2495 65.9333C30.4926 65.8632 30.7566 65.8562 31.0344 65.9053C31.2706 65.9544 31.5069 66.0385 31.7291 66.1716C32.7712 66.7814 33.5493 68.2323 33.5354 69.7463V70.1458C33.5145 71.961 33.3339 73.7203 32.9935 75.3955C32.8476 76.1035 32.6739 76.7973 32.4725 77.4703L30.3676 84.4583C30.1661 85.138 29.7354 85.5795 29.2282 85.7198L30.5134 85.3693C31.0275 85.2293 31.4513 84.7875 31.6527 84.1078L33.7577 77.1198C33.9591 76.4468 34.1328 75.753 34.2787 75.045C34.6191 73.37 34.7997 71.6035 34.8136 69.7953V69.3958C34.8275 67.8818 34.0564 66.431 33.0143 65.8212Z" fill="url(#paint14_linear_131_1531)"/>
<path d="M29.7909 56.5765C28.0611 55.5672 26.6509 56.3803 26.6439 58.3849C26.637 60.3895 28.0403 62.8356 29.7701 63.8449C31.4999 64.8542 32.9101 64.0412 32.9171 62.0366C32.9171 60.032 31.5207 57.5858 29.7909 56.5765Z" fill="#5B545F"/>
<path d="M28.4224 55.8548C28.9921 55.5184 29.784 55.5675 30.6524 56.0721C32.3822 57.0814 33.7855 59.5276 33.7785 61.5321C33.7785 62.5274 33.4243 63.2283 32.8616 63.5577L32.0001 64.0624C32.5628 63.733 32.9102 63.0321 32.9171 62.0368C32.9171 60.0322 31.5208 57.5861 29.791 56.5768C28.9226 56.0721 28.1306 56.0231 27.561 56.3595L28.4224 55.8548Z" fill="url(#paint15_linear_131_1531)"/>
<path d="M28.082 57.7755L29.513 56.9344C28.7072 56.4648 27.9778 56.4227 27.4498 56.7311L26.0187 57.5722C26.5467 57.2638 27.2761 57.3059 28.082 57.7755Z" fill="#D6D3EE"/>
<path d="M28.082 57.7752L29.5131 56.9341C31.1178 57.8663 32.41 60.1302 32.403 61.9876C32.403 62.9128 32.0765 63.5576 31.5555 63.866L30.1244 64.7071C30.6454 64.3987 30.9719 63.7539 30.9719 62.8287C30.9719 60.9713 29.6798 58.7074 28.082 57.7752Z" fill="url(#paint16_linear_131_1531)"/>
<path d="M28.082 57.7754C29.6868 58.7076 30.9789 60.9715 30.9719 62.8289C30.9719 64.6863 29.6659 65.4362 28.0611 64.504C26.4564 63.5718 25.1643 61.3079 25.1712 59.4505C25.1781 57.5931 26.4772 56.8432 28.082 57.7754Z" fill="url(#paint17_linear_131_1531)"/>
<path d="M27.957 58.7213C26.769 58.0274 25.8034 58.5881 25.7964 59.9619C25.7964 61.3426 26.7551 63.0178 27.9431 63.7117C29.131 64.4056 30.0966 63.8449 30.1036 62.4711C30.1105 61.0973 29.1449 59.4152 27.957 58.7213Z" fill="#7EF716"/>
<path d="M27.9499 59.2334C27.0052 58.6797 26.234 59.1283 26.234 60.2217C26.234 61.3151 26.9982 62.6538 27.943 63.2005C28.8878 63.7542 29.6589 63.3057 29.6589 62.2122C29.6589 61.1188 28.9017 59.7801 27.9499 59.2334Z" fill="#E0DCF5"/>
<path d="M47.339 65.7231L47.1098 65.3235L48.5478 64.4965C50.5417 63.1227 50.8889 61.4476 50.9654 59.8495C51.1599 55.7913 49.9371 52.8966 49.9232 52.8685L50.3472 52.6863C50.4027 52.8054 51.6322 55.7142 51.4308 59.8775C51.3475 61.6018 50.9724 63.3961 48.7979 64.896L47.346 65.7371L47.339 65.7231Z" fill="#404040"/>
<path d="M45.9775 65.1555C46.6235 64.9032 47.5475 64.8821 47.6795 65.2396C47.8184 65.5971 47.1168 66.2068 46.4776 66.4592C45.8316 66.7115 45.5745 66.4872 45.4425 66.1298C45.3036 65.7723 45.3383 65.4078 45.9775 65.1555Z" fill="#404040"/>
<path d="M44.6714 44.1145C44.9632 44.1565 45.248 44.2266 45.5328 44.3177C45.8246 44.4159 46.1025 44.542 46.3595 44.6892L44.8867 43.8271C44.595 43.6449 44.2754 43.4977 43.935 43.3855C41.0173 42.4113 37.5021 44.3458 37.0644 44.5981C36.8421 44.6962 36.0363 45.0887 33.7994 46.4975C30.2772 48.7194 28.6864 51.3968 27.9778 53.2542C27.1928 55.2939 27.2622 56.8148 27.2622 56.8779C27.2622 56.8779 28.4988 57.1162 28.8601 57.8101C28.8601 57.8101 29.2491 52.1678 35.3694 48.3059C37.7453 46.8059 38.3496 47.0092 38.4052 46.9882L38.4539 46.9671L38.5025 46.9391C38.5025 46.9391 41.0312 43.8131 43.5182 44.6471C43.7544 44.7242 43.9837 44.8294 44.192 44.9555C44.3518 44.9555 44.5116 44.9555 44.6714 44.9555V44.1075V44.1145Z" fill="url(#paint18_linear_131_1531)"/>
<path d="M45.4842 44.3037C42.5734 43.3645 39.0999 45.285 38.6622 45.5303C38.4399 45.6284 37.6341 46.0209 35.3971 47.4297C31.875 49.6516 30.2842 52.3291 29.5756 54.1865C28.7906 56.2261 28.86 57.747 28.86 57.8101L30.173 57.747C30.173 57.747 30.1244 56.3943 30.826 54.607C31.7708 52.2099 33.5423 50.1703 36.0988 48.5582C38.4747 47.0583 39.1416 46.7709 39.1902 46.7499L39.2388 46.7288L39.2875 46.7008C39.2875 46.7008 42.629 44.7453 45.1229 45.5793C45.2202 45.6144 45.3174 45.6494 45.4147 45.6915C45.4355 45.2289 45.4564 44.7663 45.4842 44.3037Z" fill="url(#paint19_linear_131_1531)"/>
<path d="M44.4005 61.6651C44.1852 61.6651 44.0393 61.644 44.0184 61.637L44.0948 61.1674C44.0948 61.1674 45.2272 61.3427 45.7621 60.5857L46.1442 60.859C45.6579 61.5459 44.866 61.6581 44.3936 61.6581L44.4005 61.6651Z" fill="#7EF716"/>
<path d="M41.184 61.4059H41.0451C40.7325 61.4059 40.4337 61.2798 40.2114 61.0485C39.9613 60.7961 39.8154 60.4317 39.8154 60.0602V59.6537C39.8154 58.9387 40.3365 58.35 40.9964 58.3079H41.1284C41.448 58.2799 41.7467 58.392 41.9899 58.6163C42.2469 58.8546 42.4067 59.2051 42.4136 59.5766L42.4275 60.0041C42.4414 60.3896 42.3025 60.7611 42.0454 61.0274C41.8092 61.2728 41.5036 61.4059 41.184 61.4059ZM41.191 58.9668C41.191 58.9668 41.1701 58.9668 41.1632 58.9668H41.0312C40.7255 58.9948 40.4685 59.2962 40.4685 59.6607V60.0672C40.4685 60.2635 40.5379 60.4527 40.6699 60.5859C40.7464 60.663 40.8645 60.7471 41.0381 60.7471H41.1771C41.3229 60.7471 41.4619 60.684 41.5661 60.5719C41.6981 60.4317 41.7745 60.2354 41.7675 60.0322L41.7537 59.6046C41.7537 59.4154 41.6703 59.2331 41.5383 59.114C41.4341 59.0229 41.316 58.9668 41.184 58.9668H41.191Z" fill="#7EF716"/>
<path d="M47.4641 59.1489C47.3529 59.1489 47.2348 59.1209 47.1306 59.0718C46.8319 58.9246 46.6096 58.5812 46.5263 58.1466L46.4498 57.7401C46.3248 57.0602 46.5679 56.3453 47.0195 56.0719L47.1098 56.0159C47.3321 55.8827 47.5822 55.8617 47.8114 55.9598C48.1171 56.093 48.3394 56.4154 48.4297 56.8429L48.52 57.2635C48.6729 57.9854 48.4019 58.7564 47.9087 59.0087L47.8114 59.0578C47.7003 59.1139 47.5822 59.1419 47.4641 59.1419V59.1489ZM47.5197 56.5556C47.5197 56.5556 47.4849 56.5556 47.4571 56.5766L47.3668 56.6327C47.1793 56.7448 47.0264 57.1934 47.1029 57.6139L47.1793 58.0204C47.2279 58.2728 47.339 58.427 47.4224 58.476C47.4502 58.49 47.478 58.4971 47.5197 58.476L47.6169 58.427C47.8184 58.3218 47.9782 57.8522 47.8878 57.4037L47.7976 56.9831C47.7489 56.7518 47.6447 56.6116 47.5613 56.5696C47.5475 56.5696 47.5405 56.5626 47.5266 56.5626L47.5197 56.5556Z" fill="#7EF716"/>
</g>
</g>
<defs>
<linearGradient id="paint0_linear_131_1531" x1="44.3171" y1="46.3991" x2="47.8114" y2="46.3991" gradientUnits="userSpaceOnUse">
<stop offset="0.14" stop-color="#AABBD6"/>
<stop offset="0.2" stop-color="#AEBDD8"/>
<stop offset="0.71" stop-color="#CBCDE8"/>
<stop offset="1" stop-color="#D7D3EE"/>
</linearGradient>
<linearGradient id="paint1_linear_131_1531" x1="50.1665" y1="52.9385" x2="46.6254" y2="46.8679" gradientUnits="userSpaceOnUse">
<stop offset="0.14" stop-color="#AABBD6"/>
<stop offset="0.2" stop-color="#AEBDD8"/>
<stop offset="0.71" stop-color="#CBCDE8"/>
<stop offset="1" stop-color="#D7D3EE"/>
</linearGradient>
<linearGradient id="paint2_linear_131_1531" x1="28.8601" y1="45.9438" x2="48.5131" y2="45.9438" gradientUnits="userSpaceOnUse">
<stop stop-color="#D5CEEE"/>
<stop offset="0.1" stop-color="#CDC9EA"/>
<stop offset="0.59" stop-color="#B0B6DB"/>
<stop offset="0.86" stop-color="#A5B0D6"/>
</linearGradient>
<linearGradient id="paint3_linear_131_1531" x1="48.4158" y1="53.9551" x2="44.2692" y2="46.8378" gradientUnits="userSpaceOnUse">
<stop offset="0.14" stop-color="#AABBD6"/>
<stop offset="0.2" stop-color="#AEBDD8"/>
<stop offset="0.71" stop-color="#CBCDE8"/>
<stop offset="1" stop-color="#D7D3EE"/>
</linearGradient>
<linearGradient id="paint4_linear_131_1531" x1="44.1851" y1="50.4013" x2="48.4922" y2="50.4013" gradientUnits="userSpaceOnUse">
<stop offset="0.14" stop-color="#AABBD6"/>
<stop offset="0.2" stop-color="#AEBDD8"/>
<stop offset="0.71" stop-color="#CBCDE8"/>
<stop offset="1" stop-color="#D7D3EE"/>
</linearGradient>
<linearGradient id="paint5_linear_131_1531" x1="48.9855" y1="53.9408" x2="44.5011" y2="46.2514" gradientUnits="userSpaceOnUse">
<stop offset="0.17" stop-color="#5A545E"/>
<stop offset="0.45" stop-color="#615A65"/>
<stop offset="0.79" stop-color="#706875"/>
</linearGradient>
<linearGradient id="paint6_linear_131_1531" x1="53.8346" y1="75.6691" x2="45.2738" y2="60.9811" gradientUnits="userSpaceOnUse">
<stop offset="0.73" stop-color="#D7D8E8"/>
<stop offset="0.93" stop-color="#EAE9F2"/>
</linearGradient>
<linearGradient id="paint7_linear_131_1531" x1="29.798" y1="74.3095" x2="49.187" y2="74.3095" gradientUnits="userSpaceOnUse">
<stop offset="0.37" stop-color="#CACCDE"/>
<stop offset="0.97" stop-color="#EAE9F2"/>
</linearGradient>
<linearGradient id="paint8_linear_131_1531" x1="36.0015" y1="73.1105" x2="43.464" y2="60.2995" gradientUnits="userSpaceOnUse">
<stop stop-color="#CACCDE"/>
<stop offset="0.56" stop-color="#EAE9F2"/>
</linearGradient>
<linearGradient id="paint9_linear_131_1531" x1="38.0023" y1="64.42" x2="52.9938" y2="64.42" gradientUnits="userSpaceOnUse">
<stop offset="0.24" stop-color="#A8A4B5"/>
<stop offset="1" stop-color="#DBD3E2"/>
</linearGradient>
<linearGradient id="paint10_linear_131_1531" x1="30.3814" y1="77.1761" x2="46.1261" y2="41.8982" gradientUnits="userSpaceOnUse">
<stop offset="0.37" stop-color="#CACCDE"/>
<stop offset="0.97" stop-color="#EAE9F2"/>
</linearGradient>
<linearGradient id="paint11_linear_131_1531" x1="35.675" y1="60.4103" x2="43.7992" y2="46.4618" gradientUnits="userSpaceOnUse">
<stop stop-color="#CACCDE"/>
<stop offset="0.56" stop-color="#EAE9F2"/>
</linearGradient>
<linearGradient id="paint12_linear_131_1531" x1="31.8264" y1="87.9978" x2="27.7554" y2="65.2941" gradientUnits="userSpaceOnUse">
<stop stop-color="#CACCDE"/>
<stop offset="1" stop-color="#DFDEEE"/>
</linearGradient>
<linearGradient id="paint13_linear_131_1531" x1="30.7149" y1="86.3367" x2="29.2583" y2="64.5964" gradientUnits="userSpaceOnUse">
<stop stop-color="#CACCDE"/>
<stop offset="1" stop-color="#DFDEEE"/>
</linearGradient>
<linearGradient id="paint14_linear_131_1531" x1="35.2929" y1="82.6358" x2="26.7534" y2="67.9756" gradientUnits="userSpaceOnUse">
<stop offset="0.68" stop-color="#DBDBEA"/>
<stop offset="0.81" stop-color="#EAE9F2"/>
</linearGradient>
<linearGradient id="paint15_linear_131_1531" x1="33.5285" y1="63.1793" x2="29.044" y2="55.4899" gradientUnits="userSpaceOnUse">
<stop offset="0.17" stop-color="#5A545E"/>
<stop offset="0.45" stop-color="#615A65"/>
<stop offset="0.79" stop-color="#706875"/>
</linearGradient>
<linearGradient id="paint16_linear_131_1531" x1="31.875" y1="63.6978" x2="28.3339" y2="57.6272" gradientUnits="userSpaceOnUse">
<stop offset="0.14" stop-color="#AABBD6"/>
<stop offset="0.2" stop-color="#AEBDD8"/>
<stop offset="0.71" stop-color="#CBCDE8"/>
<stop offset="1" stop-color="#D7D3EE"/>
</linearGradient>
<linearGradient id="paint17_linear_131_1531" x1="26.6301" y1="63.67" x2="29.5657" y2="58.6391" gradientUnits="userSpaceOnUse">
<stop stop-color="#D6D0EF"/>
<stop offset="1" stop-color="#EEEBFC"/>
</linearGradient>
<linearGradient id="paint18_linear_131_1531" x1="31.2429" y1="59.1979" x2="41.7889" y2="41.0906" gradientUnits="userSpaceOnUse">
<stop stop-color="#D1CBEC"/>
<stop offset="0.1" stop-color="#D7D1EF"/>
<stop offset="0.24" stop-color="#E8E4F8"/>
<stop offset="0.28" stop-color="#EEEBFC"/>
</linearGradient>
<linearGradient id="paint19_linear_131_1531" x1="28.86" y1="50.9272" x2="48.5131" y2="50.9272" gradientUnits="userSpaceOnUse">
<stop stop-color="#D5CEEE"/>
<stop offset="0.1" stop-color="#CDC9EA"/>
<stop offset="0.59" stop-color="#B0B6DB"/>
<stop offset="0.86" stop-color="#A5B0D6"/>
</linearGradient>
<clipPath id="clip0_131_1531">
<rect width="106" height="106" fill="white"/>
</clipPath>
<clipPath id="clip1_131_1531">
<rect width="30" height="30" fill="white" transform="translate(56 19)"/>
</clipPath>
<clipPath id="clip2_131_1531">
<rect width="28" height="43" fill="white" transform="translate(25 43)"/>
</clipPath>
</defs>
</svg>
