<svg width="106" height="106" viewBox="0 0 106 106" fill="none" xmlns="http://www.w3.org/2000/svg">
<g clip-path="url(#clip0_131_1535)">
<g clip-path="url(#clip1_131_1535)">
<path d="M54.904 81.9585C54.9245 78.1068 49.6424 74.9553 43.1061 74.9193C36.5699 74.883 31.2547 77.9761 31.2343 81.8278C31.2139 85.6793 36.496 88.8311 43.0322 88.8671C49.5684 88.9032 54.8835 85.81 54.904 81.9585Z" fill="#007AA6"/>
<path d="M54.9059 46.0432H31.2287V81.894C31.2503 83.6707 32.4129 85.4548 34.7236 86.8114C39.3594 89.5463 46.8547 89.5612 51.4616 86.8409C53.7723 85.4769 54.9205 83.6856 54.8988 81.894V46.0432H54.9059Z" fill="url(#paint0_linear_131_1535)"/>
</g>
<g clip-path="url(#clip2_131_1535)">
<path d="M40.0503 27.8989C40.0503 27.8989 40.0135 27.9441 39.9988 27.9667C39.9841 27.9817 39.9694 28.0043 39.9547 28.0194C39.4032 28.7275 38.7562 29.3301 38.0651 29.7369L38.3812 29.413C38.9915 29.0514 39.5576 28.5241 40.0503 27.8914V27.8989Z" fill="#8EC85D"/>
<path d="M41.2782 25.6844C41.2561 25.7371 41.2414 25.7823 41.2193 25.835C41.5135 25.0742 41.6826 24.2908 41.6826 23.5601L41.8002 23.1157C41.8002 23.9443 41.6091 24.8332 41.2782 25.6919V25.6844Z" fill="#A3E26D"/>
<path d="M41.6605 16.9915L41.7781 16.5471L41.8002 23.1081L41.6825 23.5601L41.6605 16.9915Z" fill="#A3E26D"/>
<path d="M38.3813 29.4131L38.0651 29.737L30.2053 34.3922L30.095 34.3169L38.3813 29.4131Z" fill="#A3E26D"/>
<path d="M30.095 34.3169L30.2053 34.3922L30.1097 39.9589L30.0215 38.8742L30.095 34.3169Z" fill="#A3E26D"/>
<path d="M30.1097 39.9589L28.72 39.1379L25.2644 35.6653L26.654 36.4864L30.1097 39.9589Z" fill="#69C619"/>
<path d="M30.0214 38.874L30.1097 39.9587L26.654 36.4861L27.1907 36.0342L30.0214 38.874Z" fill="#A3E26D"/>
<path d="M39.3004 13.2555L40.69 14.0841C40.0062 13.6773 39.0651 13.7376 38.0211 14.3553L36.6314 13.5267C37.6755 12.909 38.6166 12.8563 39.3004 13.2555Z" fill="#69C619"/>
<path d="M38.3372 15.0555L38.0211 14.3549C40.0945 13.1271 41.7708 14.1139 41.7782 16.5545L41.6606 16.9989C41.6606 14.8446 40.168 13.9783 38.3372 15.0555Z" fill="#A3E26D"/>
<path d="M27.1907 36.0342L26.654 36.4861L24.1615 37.9626L24.485 37.6386L27.1907 36.0342Z" fill="#A3E26D"/>
<path d="M21.4999 38.2264L20.1102 37.3978C19.4338 36.9985 19.022 36.1473 19.0147 34.9346L20.4043 35.7632C20.4043 36.9759 20.8234 37.8271 21.4999 38.2264Z" fill="#69C619"/>
<path d="M24.485 37.6389L24.1688 37.9626C22.0954 39.1906 20.4117 38.2036 20.4117 35.7707L21.169 35.7029C21.169 37.8573 22.6616 38.7235 24.4924 37.6462L24.485 37.6389Z" fill="#A3E26D"/>
<path d="M21.1616 35.695L20.4043 35.7628L20.3896 29.2018L21.1396 29.134L21.1616 35.695Z" fill="#A3E26D"/>
<path d="M20.4043 35.7631L19.0147 34.942L19 28.3735L20.3896 29.2021L20.4043 35.7631Z" fill="#69C619"/>
<path d="M24.1247 22.5656L22.7351 21.7445L36.6314 13.5188L38.021 14.3474L24.1247 22.5656Z" fill="#69C619"/>
<path d="M24.4409 23.2739L24.1247 22.5658L38.021 14.3477L38.3371 15.0557L24.4409 23.2739Z" fill="#A3E26D"/>
<path d="M19.522 25.7973C19.522 25.7973 19.522 25.7897 19.522 25.7822C19.522 25.7822 19.522 25.7747 19.522 25.7672C19.522 25.7672 19.522 25.7596 19.522 25.7521C19.522 25.7521 19.522 25.7445 19.522 25.737C19.522 25.737 19.522 25.7295 19.522 25.7219C19.522 25.7219 19.522 25.7144 19.522 25.7069C19.522 25.7069 19.522 25.6994 19.522 25.6918C19.8088 24.9612 20.2132 24.2455 20.6911 23.6278C20.6911 23.6278 20.6911 23.6203 20.6984 23.6128C20.6984 23.6128 20.6984 23.6053 20.7058 23.5977C20.7058 23.5977 20.7058 23.5902 20.7132 23.5827V23.5676C20.7132 23.5676 20.7279 23.5601 20.7352 23.5525C20.7352 23.5525 20.7352 23.545 20.7426 23.5375C20.7426 23.5375 20.7426 23.5299 20.7499 23.5224C20.7499 23.5224 20.7499 23.5149 20.7573 23.5073C20.2132 24.2079 19.7573 25.0063 19.4338 25.8425L19.522 25.7973Z" fill="#8473FF"/>
<path d="M38.3371 15.0555C40.1679 13.9708 41.6531 14.8446 41.6605 16.9989L41.6752 23.5674C41.6752 25.7218 40.2047 28.3432 38.3739 29.4279L30.0876 34.3317L30.0067 38.889L27.1834 36.0491L24.4776 37.6536C22.6468 38.7383 21.1616 37.8644 21.1543 35.7102L21.1396 29.1416C21.1396 26.9873 22.6101 24.3659 24.4409 23.2812L38.3371 15.063V15.0555Z" fill="#99FA46"/>
<path d="M21.1396 29.1342L20.3822 29.202C20.3822 26.7614 22.0513 23.7935 24.1174 22.5732L24.4335 23.2738C22.6027 24.3585 21.1249 26.9799 21.1322 29.1342H21.1396Z" fill="#A3E26D"/>
<path d="M20.3896 29.2023L19 28.3737C19 25.9331 20.669 22.9652 22.7351 21.7449L24.1247 22.5735C22.0513 23.8013 20.3823 26.7692 20.3896 29.2023Z" fill="#69C619"/>
<path d="M28.823 29.4279L29.6171 29.9025C29.5362 29.8573 29.4259 29.8648 29.2936 29.9402L28.4995 29.4656C28.6318 29.3903 28.7421 29.3752 28.823 29.4279Z" fill="#98E05A"/>
<path d="M28.9627 31.1454L28.1686 30.6708C28.0804 30.6181 28.0289 30.4976 28.0289 30.3319C28.0289 29.9853 28.2274 29.6313 28.4995 29.4656L29.2935 29.9401C29.0142 30.1059 28.823 30.4674 28.823 30.8064C28.823 30.9721 28.8745 31.0926 28.9627 31.1454Z" fill="#98E05A"/>
<path d="M29.2936 29.9402C29.573 29.7745 29.7568 29.91 29.7641 30.249C29.7641 30.5729 29.5803 30.9345 29.2936 31.1077C29.0142 31.2735 28.823 31.1303 28.823 30.8064C28.823 30.4599 29.0215 30.1059 29.2936 29.9402Z" fill="white"/>
<path d="M28.9554 27.861L28.1613 27.3864C28.0731 27.3337 28.0216 27.2132 28.0216 27.0475C28.0216 26.701 28.2201 26.3469 28.4921 26.1812C28.6245 26.1058 28.7348 26.0908 28.8157 26.1435L29.6097 26.6181C29.5288 26.5729 29.4186 26.5804 29.2862 26.6557C29.0068 26.8215 28.8157 27.1755 28.8157 27.522C28.8157 27.6877 28.8671 27.8082 28.9554 27.861Z" fill="#98E05A"/>
<path d="M29.2862 27.8236C29.0068 27.9893 28.8157 27.8462 28.8157 27.5222C28.8157 27.1757 29.0142 26.8217 29.2862 26.656C29.5656 26.4903 29.7494 26.6259 29.7568 26.9648C29.7568 27.2887 29.573 27.6503 29.2862 27.8236Z" fill="white"/>
<path d="M27.4995 32.0718L26.7055 31.5972L26.1246 29.9551L26.9187 30.4296L27.4995 32.0718Z" fill="#98E05A"/>
<path d="M25.1688 30.8287L24.3747 30.3617L25.9849 29.405L26.779 29.8796L25.1688 30.8287Z" fill="#98E05A"/>
<path d="M26.779 29.8801L25.9849 29.4055L25.4555 27.9141L26.2496 28.3811L26.779 29.8801Z" fill="#98E05A"/>
<path d="M26.2496 28.3808L25.4556 27.9062C25.3379 27.5673 25.2571 27.2434 25.1762 26.927L25.9702 27.4015C26.0511 27.7179 26.132 28.0418 26.2496 28.3808Z" fill="#98E05A"/>
<path d="M25.5658 26.9271L24.7718 26.4525L25.6026 25.9629L26.3967 26.4299L25.5658 26.9271Z" fill="#98E05A"/>
<path d="M23.7718 34.2713L22.9778 33.7968L24.7718 26.4524L25.5659 26.927L23.7718 34.2713Z" fill="#98E05A"/>
<path d="M26.3967 26.4299L28.2348 31.635L27.4996 32.0719L26.9261 30.4373L25.0365 31.5522L24.4851 33.8572L23.7718 34.279L25.5659 26.9271L26.3967 26.4375V26.4299ZM25.1688 30.829L26.7717 29.8799L26.2423 28.3809C26.1246 28.0419 26.0438 27.718 25.9629 27.4017H25.9482C25.8673 27.831 25.7864 28.2604 25.6835 28.7048L25.1688 30.829Z" fill="white"/>
<path d="M37.896 24.3662L38.4107 24.675C38.3151 24.6223 38.1828 24.6298 38.0431 24.7127L37.5284 24.4039C37.6754 24.321 37.8004 24.3135 37.896 24.3662Z" fill="#98E05A"/>
<path d="M31.9773 30.1212L31.4626 29.8124C31.367 29.7596 31.3155 29.6391 31.3082 29.4734L31.8228 29.7822C31.8228 29.948 31.8817 30.0685 31.9773 30.1212Z" fill="#98E05A"/>
<path d="M31.8302 29.7822L31.3155 29.4734L31.3082 28.6975L31.8228 28.9988L31.8302 29.7822Z" fill="#98E05A"/>
<path d="M32.3449 28.0871L31.8228 27.7782L37.5284 24.4036L38.0431 24.7124L32.3449 28.0871Z" fill="#98E05A"/>
<path d="M31.8228 28.9991L31.3082 28.6902C31.3082 28.3513 31.5361 27.9445 31.8228 27.7712L32.3375 28.0801C32.0508 28.2458 31.8228 28.6601 31.8228 28.9991Z" fill="#98E05A"/>
<path d="M38.0431 24.7131C38.3298 24.5473 38.5577 24.6829 38.5651 25.0144V25.7902C38.5651 26.1292 38.3372 26.536 38.0504 26.7017L32.3449 30.0763C32.0581 30.2421 31.8228 30.1065 31.8228 29.7751V28.9992C31.8228 28.6602 32.0508 28.2534 32.3375 28.0802L38.0431 24.7055V24.7131Z" fill="white"/>
<path d="M39.3959 19.2969L39.9106 19.6057C39.815 19.553 39.6827 19.5605 39.543 19.6434L39.0283 19.3345C39.1754 19.2517 39.3004 19.2441 39.3959 19.2969Z" fill="#98E05A"/>
<path d="M31.9698 25.9408L31.4552 25.6319C31.3596 25.5792 31.3081 25.4587 31.3008 25.293L31.8155 25.6018C31.8155 25.7675 31.8743 25.888 31.9698 25.9408Z" fill="#98E05A"/>
<path d="M31.8155 25.6015L31.3008 25.2927V24.5168L31.8155 24.8257V25.6015Z" fill="#98E05A"/>
<path d="M32.3301 23.9066L31.8155 23.5977L39.0283 19.3342L39.543 19.6355L32.3301 23.9066Z" fill="#98E05A"/>
<path d="M31.8155 24.8257L31.3008 24.5169C31.3008 24.1779 31.5287 23.7711 31.8155 23.5979L32.3301 23.9067C32.0434 24.0724 31.8155 24.4867 31.8155 24.8257Z" fill="#98E05A"/>
<path d="M39.543 19.6359C39.8297 19.4702 40.0577 19.6058 40.065 19.9372V20.7131C40.065 21.0521 39.8371 21.4588 39.5503 21.6246L32.3375 25.8956C32.0507 26.0613 31.8155 25.9257 31.8155 25.5943V24.8184C31.8155 24.4794 32.0434 24.0727 32.3301 23.8994L39.543 19.6284V19.6359Z" fill="white"/>
</g>
<g clip-path="url(#clip3_131_1535)">
<path d="M55.8817 68.2624C55.7786 68.3092 55.6569 68.2718 55.5351 68.1594L53.268 65.9217C52.1719 64.8357 51.0852 63.6279 50.0172 62.2984L49.0711 61.1187C48.7057 60.6599 48.4528 59.7424 48.4621 58.8623C48.4621 58.0384 48.687 57.4579 48.9961 57.3268C49.1085 57.28 49.2397 57.2894 49.3802 57.383L49.5582 57.4953C50.3077 57.9915 51.0571 58.6938 51.7785 59.5926C52.0782 59.9671 52.378 60.379 52.6778 60.8285L55.9098 65.7158C56.1908 66.1465 56.3407 66.961 56.247 67.5883C56.1908 67.9722 56.0597 68.2062 55.9004 68.2811L55.8817 68.2624Z" fill="#CFD0E0"/>
<path d="M58.2519 64.4139L55.0199 59.5266C54.7107 59.0585 54.3922 58.6185 54.0737 58.2252C53.3149 57.2796 52.5186 56.5305 51.7223 56.0062L51.5443 55.8939C51.385 55.7909 51.2258 55.7441 51.0853 55.7628L49.3334 55.9594C49.4833 55.9407 49.6332 55.9875 49.7924 56.0905L49.9704 56.2029C50.7668 56.7272 51.5537 57.4762 52.3219 58.4218C52.6404 58.8244 52.9589 59.2551 53.268 59.7232L56.5001 64.6106C57.0434 65.4345 57.3245 66.97 57.1465 68.1684C57.0434 68.8893 56.7905 69.3481 56.4907 69.4791L58.2425 69.2825C58.5517 69.1514 58.7953 68.6927 58.8983 67.9717C59.0763 66.764 58.7953 65.2285 58.2519 64.4139Z" fill="url(#paint1_linear_131_1535)"/>
<path d="M56.5094 64.6105L53.2774 59.7231C52.9683 59.255 52.6497 58.815 52.3312 58.4217C51.5724 57.4761 50.7761 56.7271 49.9798 56.2028L49.8018 56.0904C49.5864 55.95 49.3709 55.9219 49.1835 56.0061C48.6777 56.2215 48.3217 57.1671 48.3123 58.506C48.3123 59.9385 48.7057 61.4365 49.3053 62.1855L50.2515 63.3652C51.3382 64.7134 52.4436 65.9493 53.5584 67.0541L55.8255 69.2918C56.0597 69.5165 56.2846 69.582 56.4907 69.4978C56.7998 69.3667 57.0434 68.9079 57.1465 68.187C57.3244 66.9792 57.0434 65.4437 56.5001 64.6292L56.5094 64.6105ZM55.5351 68.1589L53.268 65.9212C52.1719 64.8352 51.0852 63.6274 50.0173 62.2979L49.0711 61.1182C48.7057 60.6594 48.4528 59.7419 48.4622 58.8618C48.4622 58.0378 48.687 57.4574 48.9961 57.3263C49.1086 57.2795 49.2397 57.2888 49.3802 57.3825L49.5582 57.4948C50.3077 57.991 51.0572 58.6932 51.7785 59.5921C52.0783 59.9666 52.3781 60.3785 52.6778 60.8279L55.9099 65.7153C56.1909 66.146 56.3408 66.9605 56.2471 67.5878C56.1909 67.9717 56.0597 68.2057 55.9005 68.2806C55.7974 68.3274 55.6757 68.29 55.5539 68.1776L55.5351 68.1589Z" fill="#CFD0E0"/>
<path d="M52.2656 61.5112C52.2656 62.6909 51.2632 75.9391 42.4384 75.9391C33.6136 75.9391 32.4988 61.9981 32.4988 61.5206C32.9016 61.5206 52.2656 61.5206 52.2656 61.5206V61.5112Z" fill="url(#paint2_linear_131_1535)"/>
<path d="M45.1457 59.1708C43.5812 60.0508 41.0799 60.0227 39.5529 59.1146C38.0259 58.2064 38.0633 56.7552 39.6279 55.8751C41.1923 54.995 43.6936 55.0231 45.2206 55.9312C46.7383 56.8394 46.7102 58.2906 45.1457 59.1708Z" fill="#C0BACA"/>
<path d="M52.1719 60.7343C52.1157 60.5003 52.0313 60.2007 51.947 59.976C51.8627 59.7419 51.7316 59.4329 51.6192 59.1989C51.4318 58.7963 51.1132 58.2813 50.8416 57.9255C50.6823 57.7196 50.317 57.242 49.7174 56.699C49.1179 56.1653 48.612 55.8564 48.3122 55.6691C48.1155 55.5474 47.8531 55.407 47.6564 55.304C47.4972 55.2197 47.2817 55.1261 47.1224 55.0512C46.6727 54.8546 46.3074 54.7422 45.9514 54.6205C45.9045 54.6018 45.4549 54.4613 44.7898 54.3303C44.3494 54.246 43.8998 54.1898 43.6374 54.1617C43.4688 54.143 43.2346 54.1243 43.066 54.1149C42.8974 54.1149 42.6632 54.0962 42.4945 54.0962C42.3259 54.0962 42.0917 54.0962 41.9231 54.0962C41.5671 54.0962 41.1268 54.1524 40.7708 54.1898C40.7708 54.1898 40.1994 54.2554 39.6092 54.3958C39.4218 54.4426 39.1688 54.4988 38.9815 54.5549C38.8129 54.6018 38.588 54.6767 38.4194 54.7328C38.2133 54.7984 37.9416 54.9107 37.7355 54.9856C37.5669 55.0512 37.3608 55.1542 37.1921 55.2291C36.9767 55.3321 36.6956 55.4819 36.4896 55.6036C36.1898 55.7815 35.7963 56.0436 35.5246 56.2496C35.2529 56.4556 34.897 56.7646 34.6628 57.008C34.4567 57.214 34.1944 57.4948 34.0257 57.7289C33.9227 57.86 33.7915 58.0379 33.6979 58.1783C33.5573 58.3937 33.3887 58.6839 33.2669 58.8992C33.1451 59.1052 33.014 59.3955 32.9297 59.6202C32.8172 59.9198 32.6861 60.3411 32.6018 60.6501C32.1896 62.3447 33.0796 64.1236 35.2998 65.4438C39.1033 67.7189 45.3612 67.7751 49.2771 65.5842C51.6192 64.2734 52.5934 62.4383 52.1812 60.6969L52.1719 60.7343ZM45.1457 59.1708C43.5813 60.0509 41.0799 60.0228 39.553 59.1146C38.0353 58.2064 38.0634 56.7552 39.6279 55.8751C41.1924 54.995 43.6937 55.0231 45.2207 55.9313C46.7383 56.8395 46.7102 58.2907 45.1457 59.1708Z" fill="url(#paint3_linear_131_1535)"/>
<path d="M47.4316 60.8092C44.6399 62.4196 40.0963 62.4102 37.2859 60.7905C34.4754 59.1707 34.4661 56.5492 37.2578 54.9388C40.0495 53.3284 44.593 53.3378 47.4035 54.9575C50.2139 56.5773 50.2233 59.1988 47.4316 60.8092Z" fill="#D4D5E6"/>
<path d="M36.0119 58.6091C36.2367 58.7495 36.5365 58.9181 36.7801 59.0304C37.1735 59.2177 37.5732 59.3862 37.9792 59.536C38.1665 59.6015 38.4101 59.6858 38.5975 59.742C38.9441 59.8356 39.4032 59.9479 39.7498 60.0228C39.9371 60.0603 40.1807 60.1071 40.3681 60.1258C40.5461 60.1446 40.7896 60.182 40.9676 60.2007C41.1456 60.2195 41.3892 60.2382 41.5766 60.2475C41.7546 60.2569 41.9981 60.2663 42.1855 60.2663C42.3635 60.2663 42.6071 60.2663 42.7944 60.2663C42.9818 60.2663 43.2347 60.2476 43.4221 60.2288C43.7875 60.1914 44.2652 60.1352 44.6212 60.079C44.818 60.0509 45.0709 59.9948 45.2676 59.9479C45.4456 59.9011 45.6798 59.8543 45.8485 59.7981C46.0546 59.742 46.3356 59.6483 46.5417 59.5828C46.7853 59.5079 47.1038 59.3768 47.338 59.2738C47.6565 59.1428 48.0687 58.9368 48.3685 58.7682C48.6214 58.6278 48.9587 58.4125 49.2023 58.2533C49.3709 58.141 49.5864 57.9818 49.7456 57.8507C49.9705 57.6634 50.2609 57.4013 50.4763 57.1953C50.0454 57.6166 49.5114 58.0192 48.865 58.375C45.1178 60.4629 39.1596 60.4067 35.5529 58.2439C35.0376 57.935 34.5973 57.5979 34.2319 57.2421C34.4099 57.4107 34.6535 57.626 34.8315 57.7852C34.9158 57.8601 35.0376 57.9537 35.1313 58.0192C35.3842 58.2065 35.7309 58.4405 36.0025 58.6091H36.0119Z" fill="url(#paint4_linear_131_1535)"/>
<path d="M43.4221 60.2287C48.3872 60.2287 53.5584 55.3039 53.5584 51.9427C53.5584 50.7349 53.4835 48.7875 52.8839 46.7932C51.8253 43.2354 32.0491 44.9956 31.6557 47.5328C31.562 48.1508 31.5433 48.5908 31.5151 48.7313C31.384 49.4803 30.5783 53.731 33.6418 56.6708C36.7051 59.6107 39.6655 60.238 43.4315 60.238L43.4221 60.2287Z" fill="url(#paint5_linear_131_1535)"/>
<path d="M53.0245 47.3083C52.9589 47.0555 52.8652 46.7278 52.7809 46.4844C52.6872 46.2222 52.5467 45.8852 52.4249 45.6418C52.2188 45.2017 51.8815 44.6493 51.5818 44.2467C51.4131 44.022 51.0103 43.4977 50.3545 42.9172C49.6987 42.3367 49.1554 41.9997 48.8275 41.803C48.6214 41.672 48.331 41.5222 48.1062 41.4098C47.9376 41.3255 47.7033 41.2132 47.5253 41.1383C47.0382 40.923 46.6354 40.8012 46.2513 40.6702C46.1951 40.6514 45.7173 40.5016 44.9866 40.3612C44.5088 40.2676 44.0123 40.202 43.7312 40.1739C43.5439 40.1552 43.3003 40.1365 43.1129 40.1271C42.9256 40.1271 42.6726 40.1084 42.4853 40.1084C42.2979 40.1084 42.045 40.1084 41.8576 40.1084C41.4641 40.1084 40.9864 40.1646 40.6023 40.2114C40.6023 40.2114 39.984 40.2863 39.3376 40.4361C39.1315 40.4829 38.8598 40.5484 38.6537 40.614C38.4663 40.6702 38.2227 40.7451 38.0447 40.8012C37.8199 40.8761 37.5202 40.9885 37.3047 41.0821C37.1267 41.157 36.8925 41.2694 36.7145 41.3443C36.4803 41.4473 36.1711 41.6158 35.9557 41.7562C35.6278 41.9528 35.2062 42.2337 34.9064 42.4678C34.6066 42.6925 34.2319 43.0296 33.9602 43.2917C33.7354 43.5164 33.4544 43.8254 33.267 44.0782C33.1639 44.228 33.0141 44.4152 32.911 44.565C32.7611 44.7991 32.5738 45.1081 32.4332 45.3515C32.3021 45.5762 32.1615 45.8945 32.0679 46.1286C31.9461 46.4563 31.8056 46.9151 31.7025 47.2521C31.2528 49.0966 32.2271 51.0347 34.6441 52.4765C38.7848 54.9483 45.6049 55.0231 49.8674 52.6263C52.4249 51.1938 53.4835 49.1996 53.0245 47.3083Z" fill="url(#paint6_linear_131_1535)"/>
<path d="M53.4272 50.9038C53.446 51.5966 53.4272 51.9898 53.3148 52.4205C52.9214 53.7313 51.8721 54.9391 50.0828 55.9315C47.0569 57.6168 42.8131 58.1317 39.0565 57.467C37.8855 57.2049 37.4452 57.1019 36.8737 52.1115C36.7987 50.7071 37.2765 50.6042 37.7075 50.6697C41.3423 51.7839 45.9702 51.4843 49.0992 49.7334C51.1414 48.5912 52.1532 47.0651 52.1157 45.5483C52.1157 45.5202 52.1157 45.4734 52.1157 45.4453C52.1813 45.4828 52.2281 45.5109 52.275 45.5764C52.275 45.5764 53.2399 47.4021 53.4085 50.9038H53.4272Z" fill="#003447"/>
<path d="M43.9374 52.9166C43.0661 52.9634 42.3635 53.8997 42.3635 55.0138C42.3635 55.2104 42.3822 55.3883 42.4291 55.5662C42.8787 55.3977 43.394 55.2853 43.9374 55.2573C44.4807 55.2292 44.9959 55.2854 45.4456 55.4164C45.4831 55.2385 45.5112 55.0513 45.5112 54.8547C45.5112 53.7405 44.8086 52.8698 43.9374 52.9166Z" fill="#7EF716"/>
<path d="M50.111 50.7723C49.5302 51.231 49.2397 52.4201 49.4458 53.4313C49.4833 53.6092 49.5302 53.7683 49.5957 53.8994C49.8674 53.5249 50.1953 53.1785 50.5513 52.8882C50.9166 52.598 51.2726 52.4107 51.6005 52.3078C51.6005 52.1299 51.5724 51.9426 51.5349 51.7741C51.3288 50.7629 50.6918 50.3228 50.111 50.7723Z" fill="#7EF716"/>
<path d="M33.4731 67.0452L33.3045 68.047L31.6089 66.7924L31.7775 65.7905L33.4731 67.0452Z" fill="url(#paint7_linear_131_1535)"/>
<path d="M31.7774 65.7901L31.6088 66.7919C30.5409 66.0054 29.9319 64.4887 30.1099 63.0843C30.2785 61.7641 31.0748 60.8747 32.0772 60.7155C32.452 60.6593 32.8548 60.6968 33.2576 60.8653L32.7892 62.148C32.5363 62.045 32.2927 62.0169 32.0585 62.0544C31.4402 62.148 30.9531 62.7004 30.85 63.5056C30.7376 64.367 31.1123 65.2939 31.7681 65.7807L31.7774 65.7901Z" fill="url(#paint8_linear_131_1535)"/>
<path d="M32.7892 62.1571L33.2576 60.865L33.5855 61.0054L33.1171 62.2881L32.7892 62.1571Z" fill="url(#paint9_linear_131_1535)"/>
<path d="M39.3188 70.9395L39.2533 72.0066C37.2297 70.8083 35.2437 69.4881 33.3045 68.0462L33.4731 67.0444C35.3842 68.4582 37.3328 69.7596 39.3188 70.9395Z" fill="url(#paint10_linear_131_1535)"/>
<path d="M33.1171 62.2883L33.5855 61.0056C35.0563 61.6048 36.4896 62.4194 37.848 63.4212C38.4195 63.8425 38.9816 64.3106 39.5249 64.7975L38.7286 65.8742C38.2134 65.4061 37.6887 64.9754 37.1454 64.5728C35.862 63.6178 34.5036 62.8501 33.1171 62.2883Z" fill="url(#paint11_linear_131_1535)"/>
<path d="M43.4221 73.3742L43.3565 74.4322L39.2532 72.0074L39.3188 70.9399L43.4221 73.3742Z" fill="url(#paint12_linear_131_1535)"/>
<path d="M44.0872 73.5145L44.6119 74.7038C44.209 74.7694 43.7687 74.6848 43.3471 74.4322L43.4127 73.3647C43.6376 73.4959 43.8624 73.5426 44.0779 73.5054L44.0872 73.5145Z" fill="url(#paint13_linear_131_1535)"/>
<path d="M38.7287 65.8743L39.5343 64.7976L45.1927 69.9284L44.3964 70.9956L38.7287 65.8743Z" fill="url(#paint14_linear_131_1535)"/>
<path d="M44.0872 73.5145C43.8717 73.552 43.6469 73.505 43.4221 73.3742L39.3188 70.9396C37.3328 69.76 35.3748 68.4586 33.4731 67.0449L31.7774 65.7903C31.1217 65.3034 30.747 64.3765 30.8594 63.5151C30.9624 62.7099 31.4495 62.1575 32.0678 62.0639C32.2927 62.0265 32.5456 62.0639 32.7986 62.1575L33.1264 62.2886C34.5129 62.8504 35.8713 63.6181 37.1548 64.5731C37.6981 64.9757 38.2228 65.4064 38.738 65.8745L44.3963 70.996C44.8929 71.4454 45.0896 72.26 44.8366 72.8683C44.6868 73.2335 44.4057 73.4584 44.0872 73.5145Z" fill="url(#paint15_linear_131_1535)"/>
<path d="M46.373 69.6007L40.7146 64.4699C40.1713 63.9737 39.6092 63.5149 39.0377 63.0936C37.6793 62.0825 36.246 61.2772 34.7752 60.678L34.4473 60.547C34.0445 60.3784 33.6417 60.341 33.267 60.3972C33.192 60.4065 33.1171 60.4252 33.0515 60.444L31.8711 60.7623C31.946 60.7436 32.0116 60.7249 32.0866 60.7155C32.4613 60.6593 32.8641 60.6968 33.267 60.8653L33.5948 60.9963C35.0656 61.5956 36.499 62.4101 37.8573 63.4119C38.4288 63.8332 38.9909 64.3014 39.5342 64.7882L45.1926 69.919C46.1482 70.7804 46.5041 72.3158 46.0357 73.4767C45.7828 74.1043 45.3238 74.5161 44.7992 74.6565L45.9795 74.3383C46.5135 74.1976 46.9632 73.7857 47.2161 73.1585C47.6939 71.9976 47.3286 70.462 46.373 69.6007Z" fill="url(#paint16_linear_131_1535)"/>
<path d="M44.3964 70.996L45.1927 69.9287C46.1482 70.7901 46.5042 72.3256 46.0358 73.4864C45.7547 74.1793 45.2208 74.6101 44.6212 74.7037L44.0966 73.5145C44.4151 73.4678 44.6962 73.243 44.846 72.8686C45.099 72.26 44.9022 71.4454 44.4057 70.996H44.3964Z" fill="url(#paint17_linear_131_1535)"/>
</g>
<g clip-path="url(#clip4_131_1535)">
<path d="M72.1009 30.2251C72.0504 30.2706 71.9998 30.316 71.9493 30.3615C71.7182 30.5737 71.4727 30.7631 71.2272 30.9147L71.4438 30.7252C71.6677 30.5888 71.8915 30.4221 72.1009 30.2251Z" fill="#FF405D"/>
<path d="M73.8989 26.853C73.8845 26.9212 73.87 26.9894 73.8556 27.0576C73.9133 26.762 73.9495 26.4665 73.9495 26.1862L74 25.8906C74 26.2013 73.9639 26.5271 73.8989 26.8606V26.853Z" fill="#FF405D"/>
<path d="M71.4437 30.7251L71.2271 30.9221L67.9922 32.8771L68.086 32.7634L71.4437 30.7251Z" fill="#8800DB"/>
<path d="M73.935 21.1928L73.9855 20.8896L74 25.8832L73.9494 26.1787L73.935 21.1928Z" fill="#8800DB"/>
<path d="M65.4866 37.9768L64.5262 37.3933L64.6562 33.7183L65.6166 34.3017L65.4866 37.9768Z" fill="#8800DB"/>
<path d="M66.0064 36.9841L65.4865 37.9767L65.6165 34.3017L66.1147 33.9758L66.0064 36.9841Z" fill="#9E00FF"/>
<path d="M72.2164 18.4348L73.1768 19.0182C72.6713 18.7075 71.9709 18.753 71.1983 19.2228L70.2379 18.6393C71.0105 18.1695 71.7109 18.1241 72.2164 18.4348Z" fill="#8800DB"/>
<path d="M71.4149 19.6849L71.1911 19.2227C72.7291 18.2907 73.9784 19.0409 73.9784 20.8897L73.9278 21.1853C73.9278 19.5107 72.7941 18.8363 71.4077 19.6774L71.4149 19.6849Z" fill="#9E00FF"/>
<path d="M66.1148 33.9757L65.6165 34.3015C64.2301 34.9532 63.147 34.1879 63.1398 32.4678L63.6308 32.4375C63.6308 33.9909 64.6128 34.688 66.122 33.9757H66.1148Z" fill="#9E00FF"/>
<path d="M63.9485 34.332L62.9881 33.7486C62.4899 33.4455 62.1794 32.7938 62.1794 31.877L63.1398 32.4604C63.1398 33.3773 63.4503 34.029 63.9485 34.332Z" fill="#8800DB"/>
<path d="M63.1398 32.4603L62.1794 31.8768L62.165 26.8909L63.1253 27.4744L63.1398 32.4603Z" fill="#8800DB"/>
<path d="M63.6236 32.4376L63.1398 32.4604L63.1254 27.4744L63.6164 27.4441L63.6236 32.4376Z" fill="#9E00FF"/>
<path d="M65.8982 22.4355L64.9378 21.852L70.2379 18.6392L71.1983 19.2226L65.8982 22.4355Z" fill="#8800DB"/>
<path d="M66.1148 22.8977L65.8981 22.4355L71.1983 19.2227L71.4149 19.6849L66.1148 22.8977Z" fill="#9E00FF"/>
<path d="M62.2661 25.921C62.2661 25.921 62.2806 25.8452 62.2878 25.8073L62.3095 25.7164C62.5478 24.5494 63.2121 23.3371 64.0641 22.5414C64.1147 22.496 64.1652 22.4505 64.2158 22.405C63.2699 23.284 62.5333 24.6252 62.2734 25.921H62.2661Z" fill="#FF405D"/>
<path d="M71.4149 19.6847C72.8013 18.8436 73.9278 19.518 73.935 21.1927L73.9495 26.1862C73.9495 27.8608 72.8302 29.8916 71.4438 30.7327L68.0861 32.771L66.0065 36.9917L66.1148 33.9759C64.6056 34.6806 63.6308 33.991 63.6236 32.4376L63.6091 27.4441C63.6091 25.7695 64.7284 23.7387 66.1148 22.8976L71.4149 19.6847Z" fill="#C669FF"/>
<path d="M63.6164 27.444L63.1254 27.4743C63.1254 25.6254 64.3601 23.3673 65.8982 22.4353L66.122 22.8975C64.7356 23.7386 63.6164 25.777 63.6164 27.444Z" fill="#9E00FF"/>
<path d="M63.1253 27.4743L62.165 26.8908C62.165 25.0419 63.3997 22.7838 64.9378 21.8518L65.8982 22.4353C64.3601 23.3673 63.1181 25.6178 63.1253 27.4743Z" fill="#8800DB"/>
<path d="M69.0032 28.5353L69.5303 28.8536C69.3859 28.7627 69.1765 28.7854 68.931 28.9369L68.4038 28.6187C68.6493 28.4671 68.8588 28.4444 69.0032 28.5353Z" fill="#FF1F41"/>
<mask id="mask0_131_1535" style="mask-type:luminance" maskUnits="userSpaceOnUse" x="68" y="28" width="2" height="1">
<path d="M69.0032 28.5353L69.5303 28.8536C69.3859 28.7627 69.1765 28.7854 68.931 28.9369L68.4038 28.6187C68.6493 28.4671 68.8588 28.4444 69.0032 28.5353Z" fill="white"/>
</mask>
<g mask="url(#mask0_131_1535)">
<path d="M68.9238 28.9447L68.3966 28.6265C68.6421 28.4749 68.8516 28.4522 68.996 28.5431L69.5231 28.8614C69.3787 28.7705 69.1693 28.7932 68.9238 28.9447Z" fill="#8800DB"/>
</g>
<path d="M68.3388 30.9909L67.8117 30.6726C67.6672 30.5817 67.5806 30.3847 67.5806 30.0967C67.5806 29.5209 67.9128 28.9222 68.3966 28.6267L68.9237 28.945C68.4471 29.2329 68.1077 29.8391 68.1077 30.415C68.1077 30.7105 68.1944 30.9075 68.3388 30.9909Z" fill="#FF1F41"/>
<mask id="mask1_131_1535" style="mask-type:luminance" maskUnits="userSpaceOnUse" x="67" y="28" width="2" height="3">
<path d="M68.3388 30.9909L67.8117 30.6726C67.6672 30.5817 67.5806 30.3847 67.5806 30.0967C67.5806 29.5209 67.9128 28.9222 68.3966 28.6267L68.9237 28.945C68.4471 29.2329 68.1077 29.8391 68.1077 30.415C68.1077 30.7105 68.1944 30.9075 68.3388 30.9909Z" fill="white"/>
</mask>
<g mask="url(#mask1_131_1535)">
<path d="M68.3388 30.9909L67.8117 30.6726C67.6672 30.5817 67.5806 30.3847 67.5806 30.0967C67.5806 29.5209 67.9128 28.9222 68.3966 28.6267L68.9237 28.945C68.4471 29.2329 68.1077 29.8391 68.1077 30.415C68.1077 30.7105 68.1944 30.9075 68.3388 30.9909Z" fill="#8800DB"/>
</g>
<path d="M68.9237 28.9451C69.4075 28.6495 69.7469 28.8466 69.7469 29.4224C69.7469 30.0059 69.4147 30.6197 68.9237 30.9152C68.4471 31.2031 68.1077 30.9986 68.1077 30.4151C68.1077 29.8392 68.4399 29.2406 68.9237 28.9451Z" fill="#FCFCFC"/>
<path d="M68.6565 24.762L69.1836 25.0802C69.2558 25.1257 69.2919 25.2318 69.2992 25.4061C69.2992 26.3154 68.2955 27.0504 68.3027 28.6416L67.7756 28.3234C67.7756 26.7321 68.7793 25.9971 68.7721 25.0878C68.7721 24.9135 68.736 24.7999 68.6565 24.762Z" fill="#FF1F41"/>
<mask id="mask2_131_1535" style="mask-type:luminance" maskUnits="userSpaceOnUse" x="67" y="24" width="3" height="5">
<path d="M68.6565 24.762L69.1836 25.0802C69.2558 25.1257 69.2919 25.2318 69.2992 25.4061C69.2992 26.3154 68.2955 27.0504 68.3027 28.6416L67.7756 28.3234C67.7756 26.7321 68.7793 25.9971 68.7721 25.0878C68.7721 24.9135 68.736 24.7999 68.6565 24.762Z" fill="white"/>
</mask>
<g mask="url(#mask2_131_1535)">
<path d="M68.2955 28.6416L67.7684 28.3234C67.7684 26.7321 68.7721 25.9971 68.7649 25.0878C68.7649 24.9135 68.7287 24.7999 68.6493 24.762L69.1765 25.0802C69.2486 25.1257 69.2848 25.2318 69.292 25.4061C69.292 26.3154 68.2883 27.0504 68.2955 28.6416Z" fill="#8800DB"/>
</g>
<path d="M69.9924 22.7612L70.5195 23.0795C70.1873 22.8749 69.6602 22.9809 68.9743 23.3977C67.6745 24.1858 66.9163 25.5876 66.9091 27.194L66.382 26.8758C66.382 25.2694 67.1474 23.8675 68.4471 23.0795C69.1331 22.6627 69.6602 22.5566 69.9924 22.7612Z" fill="#FF1F41"/>
<mask id="mask3_131_1535" style="mask-type:luminance" maskUnits="userSpaceOnUse" x="66" y="22" width="5" height="6">
<path d="M69.9924 22.7612L70.5195 23.0795C70.1873 22.8749 69.6602 22.9809 68.9743 23.3977C67.6745 24.1858 66.9163 25.5876 66.9091 27.194L66.382 26.8758C66.382 25.2694 67.1474 23.8675 68.4471 23.0795C69.1331 22.6627 69.6602 22.5566 69.9924 22.7612Z" fill="white"/>
</mask>
<g mask="url(#mask3_131_1535)">
<path d="M66.9019 27.194L66.3748 26.8758C66.3748 25.2694 67.1402 23.8675 68.4399 23.0795C69.1259 22.6627 69.6531 22.5566 69.9852 22.7612L70.5124 23.0795C70.1802 22.8749 69.6531 22.9809 68.9671 23.3977C67.6673 24.1858 66.9091 25.5876 66.9019 27.194Z" fill="#8800DB"/>
</g>
<path d="M68.8081 25.1637C68.4326 25.391 68.2449 25.7851 68.2449 26.3837L66.9018 27.1945C66.9018 25.5881 67.6672 24.1862 68.967 23.3982C70.1729 22.6707 70.9022 22.8981 70.9022 24.0877C70.9022 25.6335 69.5952 26.6792 69.6024 27.8462L68.2954 28.6418C68.2954 27.0505 69.2991 26.3155 69.2919 25.4062C69.2919 25.0273 69.1186 24.9667 68.8081 25.1562V25.1637Z" fill="#FCFCFC"/>
</g>
<g clip-path="url(#clip5_131_1535)">
<path d="M79.4488 45.72C80.1883 45.6832 81.4033 47.6452 81.5014 49.7687C81.592 51.8923 82.0825 56.2497 81.8938 56.9845C81.7051 57.7193 79.6223 57.6091 79.1846 56.1909C78.7469 54.7728 79.4563 45.72 79.4563 45.72H79.4488Z" fill="#8800DB"/>
<path d="M81.3731 54.78C81.5768 55.4193 81.9843 56.11 81.8938 56.9771C81.8032 57.8441 80.1204 62.4586 79.3582 62.9217C78.596 63.3845 77.0716 62.1649 77.5545 60.3498C78.0375 58.5349 79.909 54.78 79.909 54.78H81.3806H81.3731Z" fill="#8800DB"/>
<path d="M73.1248 86.8247C73.2531 86.8542 73.6681 87.589 73.6681 87.589L73.5927 88.3825C73.5927 88.3825 73.1097 89.0218 72.0381 88.7867C70.9589 88.5515 70.5741 87.8093 70.5741 87.8093L70.4911 87.589C70.4911 87.589 69.7591 87.1628 69.2686 87.148C68.778 87.1408 67.8649 86.7586 67.397 86.1339C66.9292 85.5021 67.0122 84.9437 67.0197 84.8482C67.0273 84.7601 67.0273 84.341 67.397 84.1868C67.7668 84.0324 73.1248 86.8247 73.1248 86.8247Z" fill="#2E3442"/>
<path d="M78.0525 87.7877C75.6452 89.1396 71.7362 89.1324 69.3213 87.7729C66.9065 86.4136 66.8914 84.2165 69.2912 82.8644C71.6909 81.5123 75.6075 81.5198 78.0223 82.8793C80.4447 84.2386 80.4523 86.4356 78.0525 87.7877Z" fill="#EEF1F5"/>
<path d="M78.8072 84.1354C78.8827 84.2602 79.2751 84.5908 79.3053 84.8408C79.3355 85.0833 79.26 85.7152 79.26 85.7152C79.26 85.7152 78.8223 86.1634 77.7734 86.031C76.7244 85.8989 76.3622 84.5175 76.1207 84.3631C75.8792 84.2089 75.4642 83.7092 75.1095 83.5988C74.7548 83.4887 74.0605 82.6143 73.8341 82.3277C73.6077 82.0411 73.5474 81.7178 73.6606 81.5121C73.7738 81.3136 73.7209 81.1666 74.2266 81.0565C74.7246 80.9464 78.7997 84.1426 78.7997 84.1426L78.8072 84.1354Z" fill="#2E3442"/>
<path d="M70.8156 84.3925C70.6043 84.3485 67.9706 83.9148 67.7442 83.9738C67.5178 84.0324 67.2311 84.3925 67.2462 84.8482C67.2537 85.3036 67.3292 85.5902 67.6084 85.8694C67.8876 86.1488 68.5517 86.6337 69.2384 86.7512C69.9252 86.8762 71.7136 88.0224 72.2042 88.0518C72.6947 88.0813 73.2003 87.9489 73.3738 87.464C73.555 86.9789 73.3588 85.7738 73.3738 85.6931C73.3889 85.6122 70.8156 84.3925 70.8156 84.3925Z" fill="#40485C"/>
<path d="M78.8299 81.7767C78.8299 81.7767 78.8903 83.452 79.0488 83.7681C79.2072 84.0842 79.1846 84.8336 79.1544 84.9363C79.1242 85.0393 78.445 85.6491 77.3885 85.0907C76.332 84.5324 76.415 83.7901 75.668 83.3639C74.9133 82.9377 74.1813 82.313 73.9247 81.7767C73.6681 81.2404 74.1738 81.0052 74.1738 81.0052C74.1738 81.0052 75.5095 80.9904 75.668 81.1082C75.8264 81.2183 76.3396 81.4829 76.3396 81.4829L77.7055 81.0347L78.8375 81.7767H78.8299Z" fill="#40485C"/>
<path d="M78.9657 58.4029C79.011 59.2406 79.4865 60.3134 79.6374 62.6133C79.7808 64.9133 79.4487 66.3535 79.1997 67.3309C78.9506 68.308 79.011 72.2319 78.7997 73.1504C78.5884 74.0689 75.6 73.8191 75.2454 73.1504C74.8907 72.4816 73.7436 64.9499 73.6153 63.9508C73.487 62.9513 74.4077 57.5432 74.4077 57.5432L78.9657 58.3956V58.4029Z" fill="#4D5C85"/>
<path d="M78.0903 71.2617C78.611 72.1582 78.6563 72.6284 78.7997 73.1573C78.9431 73.6865 79.2978 74.5389 79.4713 76.3098C79.6374 78.0806 79.177 82.6144 78.928 83.4739C78.679 84.3263 76.1886 84.0618 76 82.82C75.8113 81.5783 75.0416 72.4373 75.0416 72.4373L78.0903 71.2689V71.2617Z" fill="#4D5C85"/>
<path d="M77.1319 59.0786C77.1772 59.7105 77.7206 64.406 77.3583 65.5301C77.0037 66.6471 75.6 67.3599 75.4113 67.7861C75.2227 68.2123 74.136 72.2683 73.9473 76.0232C70.7326 76.8387 70.0609 76.8976 69.7666 74.7446C69.4723 72.5842 69.2686 68.0504 69.4949 65.8093C69.7214 63.5682 69.578 59.4239 69.8949 58.9757C70.2119 58.5275 77.1244 59.0786 77.1244 59.0786H77.1319Z" fill="#516A87"/>
<path d="M73.721 71.6882C74.0002 73.2386 73.9172 73.415 73.9625 74.2306C74.0077 75.0463 74.2417 77.7723 74.2039 78.9774C74.1662 80.1825 73.6153 85.8993 73.4493 86.3106C73.2833 86.7148 71.0193 86.972 70.5816 86.3255C70.144 85.6716 70.227 84.268 70.227 84.268C70.227 84.268 69.7213 74.4142 69.7062 74.238C69.6912 74.0615 73.721 71.6954 73.721 71.6954V71.6882Z" fill="#516A87"/>
<path d="M71.2005 86.6781H71.3966C71.3966 86.6048 71.0721 79.8005 70.8458 75.8912C70.6194 71.9822 71.3891 62.5472 71.3966 62.4516L71.2005 62.437C71.1929 62.5325 70.4156 71.9822 70.6495 75.906C70.8759 79.8225 71.2005 86.6194 71.2005 86.6855V86.6781Z" fill="#5E7A9C"/>
<path d="M74.7344 68.0856C74.4778 68.0195 73.1799 67.6594 72.9987 67.4317C72.8176 67.2037 72.9384 65.2418 72.9761 64.6393V64.5512L76.8625 64.3381L76.8474 64.4483C76.8474 64.4483 76.6286 66.3662 76.6059 66.7629C76.5757 67.1965 75.0967 67.9311 74.8023 68.071L74.7721 68.0856H74.7344ZM73.1648 64.7275C73.0893 65.8959 73.0591 67.1597 73.1497 67.2992C73.2478 67.4168 74.0326 67.6814 74.7495 67.8725C75.557 67.4757 76.3946 66.9466 76.4097 66.7409C76.4324 66.3956 76.5909 64.9554 76.6437 64.5292L73.1723 64.72L73.1648 64.7275Z" fill="#5E7A9C"/>
<path d="M78.928 66.6543L77.547 66.2504V66.1254C77.5847 65.2876 77.6376 63.6492 77.6225 63.4947V63.3772L77.7281 63.3331C77.7658 63.3185 78.6488 62.973 79.4638 62.1941L79.7355 61.937V62.3045C79.7506 62.5542 79.8034 64.7587 79.6298 65.3906C79.4411 66.0665 78.9959 66.5588 78.9959 66.5662L78.928 66.6472V66.6543ZM77.6904 66.1549L78.8903 66.5076L78.9053 66.4927C78.9053 66.4927 79.3355 66.015 79.5166 65.3686C79.66 64.8614 79.6524 63.2156 79.6298 62.3191V62.2456L79.577 62.2971C78.7469 63.0906 77.8338 63.4433 77.796 63.4581H77.7734V63.4876C77.7885 63.6858 77.7055 66.0299 77.6979 66.1254V66.1475L77.6904 66.1549ZM78.8676 66.4341L77.7583 66.1106V66.0593C77.7658 65.8462 77.8338 63.9724 77.8338 63.5536V63.5096L77.8715 63.4947C78.0677 63.414 78.762 63.098 79.4487 62.4881L79.5543 62.3926V62.5322C79.5694 63.2081 79.5845 64.8394 79.4411 65.3465C79.2978 65.8462 79.011 66.243 78.8903 66.3972L78.8601 66.4341H78.8676ZM77.8941 66.015L78.8148 66.287C78.9431 66.1254 79.1921 65.7653 79.3129 65.3171C79.4412 64.8468 79.4336 63.3257 79.4261 62.6792C78.7997 63.2081 78.1884 63.4947 77.9545 63.5977C77.9545 64.0605 77.8941 65.6624 77.8866 66.015H77.8941Z" fill="#5E7A9C"/>
<path d="M79.3733 59.1377C79.3733 59.1377 79.5393 60.6661 79.4487 60.9453C79.3582 61.2172 77.9696 62.8411 75.0643 63.2158C72.1589 63.5905 69.8044 62.5104 69.661 62.2018C69.5101 61.8932 70.2723 60.3501 70.2723 60.3501L79.3733 59.1377Z" fill="#2E3442"/>
<path d="M78.5054 62.0986H79.1016C79.1016 62.0986 79.0035 59.5636 78.9431 59.2917L78.362 59.4093C78.3998 59.6224 78.4979 61.9076 78.5054 62.0914V62.0986Z" fill="#4D5C85"/>
<path d="M77.1298 60.9287L76.5349 60.9669L76.6976 63.3718L77.2925 63.3337L77.1298 60.9287Z" fill="#516A87"/>
<path d="M73.3361 61.4229H72.7399V63.8257H73.3361V61.4229Z" fill="#516A87"/>
<path d="M68.763 66.9632C68.763 67.1763 68.8158 68.0213 68.8158 68.0213C68.8158 68.0213 68.9969 68.1463 68.8762 68.2492C68.7554 68.3594 68.4762 68.2198 68.4762 68.2198L68.3102 67.9626L68.1668 68.4108C68.1668 68.4108 68.7705 68.6239 68.846 68.7415C68.9214 68.8591 68.8762 68.9252 68.8762 68.9252L69.1101 69.0281C69.1101 69.0281 69.2309 69.2778 69.0573 69.3882C68.8837 69.4984 68.4913 69.5058 68.3706 69.4763C68.2423 69.4543 67.6763 69.3293 67.5631 69.1677C67.4499 69.0061 67.0726 68.2787 67.0122 67.9406C66.9443 67.6099 67.4574 66.2212 67.4574 66.2212L68.7554 66.9632H68.763Z" fill="#FFA698"/>
<path d="M76.3849 61.6944C77.4867 61.2903 79.079 60.2542 79.2223 59.7766C79.3657 59.299 80.1732 55.3604 80.6939 53.2589C81.2146 51.15 80.9731 48.4606 80.5732 47.0571C80.1732 45.6537 78.9657 45.5949 78.7771 45.5728C78.5884 45.5508 76.5132 46.168 76.1208 46.2268C75.7208 46.2856 73.5248 47.4319 72.7098 47.983C71.8948 48.5341 69.5327 49.5261 69.4271 50.0551C69.3214 50.5842 69.6233 60.0044 69.6987 60.6069C69.7742 61.2168 72.3626 63.0905 76.3773 61.6944H76.3849Z" fill="#AC24FF"/>
<path d="M70.242 50.0187C71.2004 50.6726 71.9551 52.3627 72.023 53.6633C72.0834 54.9566 71.5929 60.9305 71.1325 61.5036C70.6722 62.0768 68.9365 61.2832 68.6875 60.4896C68.4385 59.696 68.4913 54.5157 68.6422 53.2665C68.7856 52.0173 68.9365 50.4008 69.3893 50.0113C69.6987 49.7468 70.242 50.026 70.242 50.026V50.0187Z" fill="#8800DB"/>
<path d="M70.5062 59.2773C71.1099 60.1517 71.4193 60.6367 71.2684 61.2393C71.1175 61.8418 69.3893 66.8311 69.0346 67.1103C68.68 67.3969 67.133 67.4776 67.1933 66.1109C67.2537 64.7442 68.6422 59.1304 68.6422 59.1304L70.5062 59.2773Z" fill="#8800DB"/>
<path d="M76.6339 44.1844C76.4075 44.9192 76.3472 45.9039 76.7924 46.5652C74.9209 47.4396 72.8079 47.5719 72.8079 47.5719C72.8079 47.5719 72.9211 46.3374 72.8079 46.117C72.6947 45.8965 71.9853 45.9406 71.6306 45.4262C71.276 44.9045 71.3439 42.105 71.3666 41.6273C71.3892 41.1497 71.3515 39.9814 71.8571 39.6728C72.3702 39.3715 76.6415 44.1844 76.6415 44.1844H76.6339Z" fill="#FFA698"/>
<path d="M75.9094 45.4481C74.9888 45.6245 74.1737 45.8523 73.7059 45.0073C73.238 44.1622 72.8908 43.0527 72.4456 42.9057C72.0004 42.7588 72.0683 43.8242 72.0607 43.8683C72.0607 43.8683 71.6834 43.6993 71.6608 43.5818C71.6381 43.4642 71.6683 42.5163 71.5928 42.193C71.5174 41.8697 71.3514 41.517 71.3589 41.3259C71.3589 41.1349 71.3514 40.04 71.4948 39.6652C71.6381 39.2905 72.9059 38.034 74.8001 38.2618C76.6943 38.4896 77.1697 39.4081 77.1697 39.4081C77.1697 39.4081 78.1733 39.6946 78.2186 41.1642C78.2639 42.6339 77.4036 43.8683 77.1546 44.1328C76.9055 44.3974 76.5735 45.1248 76.4452 45.2497C76.3169 45.3747 75.9019 45.4555 75.9019 45.4555L75.9094 45.4481Z" fill="#202459"/>
<path d="M72.008 42.9569C72.1966 42.8687 72.4306 43.1626 72.4457 43.5521C72.4608 43.9415 72.4306 44.5955 72.2872 44.7351C72.1438 44.8747 72.008 44.5294 71.9929 44.2722C71.9778 44.015 71.5854 43.2288 72.008 42.9642V42.9569Z" fill="#FFA698"/>
<path d="M75.2076 46.2124C76.1207 45.9258 76.4377 45.654 76.5282 45.6172C76.6188 45.5805 77.1622 46.5724 77.1622 46.5724C77.1622 46.5724 76.6867 46.9913 75.668 47.2926C74.6492 47.5938 73.6832 47.8804 73.3285 47.9686C72.9739 48.0568 72.5286 48.3213 72.5739 48.2992C72.6192 48.2699 72.5136 47.2485 72.6796 47.0207C72.8456 46.7929 73.9323 46.4328 75.2076 46.2271V46.2124Z" fill="#8800DB"/>
</g>
</g>
<defs>
<linearGradient id="paint0_linear_131_1535" x1="43.0709" y1="79.9773" x2="43.0709" y2="46.4192" gradientUnits="userSpaceOnUse">
<stop stop-color="#B9FF7C"/>
<stop offset="0.56" stop-color="#BDFF84"/>
<stop offset="1" stop-color="#99FA45"/>
</linearGradient>
<linearGradient id="paint1_linear_131_1535" x1="54.1486" y1="69.4885" x2="54.1486" y2="55.7535" gradientUnits="userSpaceOnUse">
<stop offset="0.12" stop-color="#D2D3E5"/>
<stop offset="0.28" stop-color="#EAE9F2"/>
</linearGradient>
<linearGradient id="paint2_linear_131_1535" x1="32.4988" y1="68.7205" x2="52.2656" y2="68.7205" gradientUnits="userSpaceOnUse">
<stop offset="0.37" stop-color="#CACCDE"/>
<stop offset="0.97" stop-color="#EAE9F2"/>
</linearGradient>
<linearGradient id="paint3_linear_131_1535" x1="38.8222" y1="67.5129" x2="46.3195" y2="54.5231" gradientUnits="userSpaceOnUse">
<stop stop-color="#CACCDE"/>
<stop offset="0.56" stop-color="#EAE9F2"/>
</linearGradient>
<linearGradient id="paint4_linear_131_1535" x1="40.8646" y1="58.7402" x2="56.1441" y2="58.7402" gradientUnits="userSpaceOnUse">
<stop offset="0.24" stop-color="#A8A4B5"/>
<stop offset="1" stop-color="#DBD3E2"/>
</linearGradient>
<linearGradient id="paint5_linear_131_1535" x1="33.0984" y1="71.623" x2="48.8964" y2="35.8882" gradientUnits="userSpaceOnUse">
<stop offset="0.37" stop-color="#CACCDE"/>
<stop offset="0.97" stop-color="#EAE9F2"/>
</linearGradient>
<linearGradient id="paint6_linear_131_1535" x1="38.4944" y1="54.6955" x2="46.6563" y2="40.5443" gradientUnits="userSpaceOnUse">
<stop stop-color="#CACCDE"/>
<stop offset="0.56" stop-color="#EAE9F2"/>
</linearGradient>
<linearGradient id="paint7_linear_131_1535" x1="31.5246" y1="68.4964" x2="36.2703" y2="61.1067" gradientUnits="userSpaceOnUse">
<stop stop-color="#CACCDE"/>
<stop offset="1" stop-color="#DFDEEE"/>
</linearGradient>
<linearGradient id="paint8_linear_131_1535" x1="29.2949" y1="67.0634" x2="34.0406" y2="59.6737" gradientUnits="userSpaceOnUse">
<stop stop-color="#CACCDE"/>
<stop offset="1" stop-color="#DFDEEE"/>
</linearGradient>
<linearGradient id="paint9_linear_131_1535" x1="29.5572" y1="67.2316" x2="34.2936" y2="59.8419" gradientUnits="userSpaceOnUse">
<stop stop-color="#CACCDE"/>
<stop offset="1" stop-color="#DFDEEE"/>
</linearGradient>
<linearGradient id="paint10_linear_131_1535" x1="35.4123" y1="70.9956" x2="40.158" y2="63.6058" gradientUnits="userSpaceOnUse">
<stop stop-color="#CACCDE"/>
<stop offset="1" stop-color="#DFDEEE"/>
</linearGradient>
<linearGradient id="paint11_linear_131_1535" x1="32.5456" y1="69.1512" x2="37.282" y2="61.7615" gradientUnits="userSpaceOnUse">
<stop stop-color="#CACCDE"/>
<stop offset="1" stop-color="#DFDEEE"/>
</linearGradient>
<linearGradient id="paint12_linear_131_1535" x1="40.3774" y1="74.1793" x2="45.1231" y2="66.7898" gradientUnits="userSpaceOnUse">
<stop stop-color="#CACCDE"/>
<stop offset="1" stop-color="#DFDEEE"/>
</linearGradient>
<linearGradient id="paint13_linear_131_1535" x1="42.8975" y1="75.7899" x2="47.6338" y2="68.4001" gradientUnits="userSpaceOnUse">
<stop stop-color="#CACCDE"/>
<stop offset="1" stop-color="#DFDEEE"/>
</linearGradient>
<linearGradient id="paint14_linear_131_1535" x1="38.6444" y1="73.065" x2="43.3901" y2="65.6752" gradientUnits="userSpaceOnUse">
<stop stop-color="#CACCDE"/>
<stop offset="1" stop-color="#DFDEEE"/>
</linearGradient>
<linearGradient id="paint15_linear_131_1535" x1="35.787" y1="71.23" x2="40.5234" y2="63.8403" gradientUnits="userSpaceOnUse">
<stop stop-color="#CACCDE"/>
<stop offset="1" stop-color="#DFDEEE"/>
</linearGradient>
<linearGradient id="paint16_linear_131_1535" x1="39.0939" y1="74.2632" x2="40.0297" y2="60.8184" gradientUnits="userSpaceOnUse">
<stop offset="0.12" stop-color="#D2D3E5"/>
<stop offset="0.3" stop-color="#EAE9F2"/>
</linearGradient>
<linearGradient id="paint17_linear_131_1535" x1="42.935" y1="75.8179" x2="47.6807" y2="68.4282" gradientUnits="userSpaceOnUse">
<stop stop-color="#CACCDE"/>
<stop offset="1" stop-color="#DFDEEE"/>
</linearGradient>
<clipPath id="clip0_131_1535">
<rect width="106" height="106" fill="white"/>
</clipPath>
<clipPath id="clip1_131_1535">
<rect width="24" height="43" fill="white" transform="translate(31 46)"/>
</clipPath>
<clipPath id="clip2_131_1535">
<rect width="23" height="27" fill="white" transform="translate(19 13)"/>
</clipPath>
<clipPath id="clip3_131_1535">
<rect width="29" height="36" fill="white" transform="translate(30 40)"/>
</clipPath>
<clipPath id="clip4_131_1535">
<rect width="12" height="20" fill="white" transform="translate(62 18)"/>
</clipPath>
<clipPath id="clip5_131_1535">
<rect width="15" height="51" fill="white" transform="translate(67 38)"/>
</clipPath>
</defs>
</svg>
