<svg width="54" height="54" viewBox="0 0 54 54" fill="none" xmlns="http://www.w3.org/2000/svg">
<rect x="0.5" y="0.5" width="53" height="25" rx="3.5" fill="#DDA3F8" stroke="#BB3CF6"/>
<rect x="0.5" y="28.5" width="53" height="25" rx="3.5" fill="#DDA3F8" stroke="#BB3CF6"/>
<path d="M0.5 4C0.5 2.067 2.067 0.5 4 0.5H50C51.933 0.5 53.5 2.067 53.5 4V7.5H0.5V4Z" fill="#E6D4EE" stroke="#BB3CF6"/>
<path d="M0.5 32C0.5 30.067 2.067 28.5 4 28.5H50C51.933 28.5 53.5 30.067 53.5 32V35.5H0.5V32Z" fill="#E6D4EE" stroke="#BB3CF6"/>
<path d="M15.182 12.0765C14.672 11.4237 13.7294 11.3079 13.0765 11.818C12.4237 12.328 12.3079 13.2706 12.818 13.9235L15.182 12.0765ZM38.8172 46.4888C39.6394 46.5898 40.3878 46.0051 40.4888 45.1828L42.1343 31.7835C42.2353 30.9612 41.6506 30.2128 40.8284 30.1118C40.0061 30.0109 39.2577 30.5956 39.1567 31.4178L37.694 43.3283L25.7835 41.8657C24.9612 41.7647 24.2128 42.3494 24.1118 43.1716C24.0109 43.9939 24.5956 44.7423 25.4178 44.8433L38.8172 46.4888ZM12.818 13.9235L37.818 45.9235L40.182 44.0765L15.182 12.0765L12.818 13.9235Z" fill="#AD00FF"/>
</svg>
