<svg width="591" height="990" viewBox="0 0 591 990" fill="none" xmlns="http://www.w3.org/2000/svg">
<g filter="url(#filter0_f_268_3441)">
<path d="M73.9986 144.615C74.4649 148.951 122.942 55.2679 123.72 59.287C124.83 65.0209 78.5248 168.904 80.0317 174.094C82.2283 181.66 85.4429 187.407 88.3885 193.046C91.7008 199.386 96.1348 199.924 99.4714 206.234C102.024 211.061 103.823 215.979 107.247 216.374C111.707 216.889 116.18 215.867 120.632 216.929C126.168 218.249 45.9383 512.134 51.0338 506.85C56.1256 501.57 146.553 199.173 151.221 191.937C156.688 183.464 162.26 176.365 168.024 169.218C170.838 165.73 151.436 60.1926 154.462 59.287C158.764 57.9994 184.404 160.393 188.671 158.579C193.233 156.639 197.64 154.331 202.323 155.697C204.475 156.325 206.736 158.871 208.714 161.017C210.418 162.866 212.233 163.391 213.875 165.782C217.351 170.842 220.885 175.76 224.422 180.522C226.13 182.822 227.808 185.18 229.517 187.504C231.668 190.43 234.012 190.826 236.242 192.99C240.084 196.718 242.501 207.448 245.918 212.994C249.763 219.236 212.356 206.234 257.045 232.888C259.702 238.301 172.609 274.36 175.934 276.285C182.219 279.921 278.73 244.358 285.155 244.358C289.211 244.358 301.046 97.4847 305.083 96.7376C309.31 95.9552 305.471 239.371 309.711 239.371C313.673 239.371 317.091 244.383 320.414 249.511C323.6 254.428 327.007 259.512 329.62 266.302C332.269 273.182 334.036 282.474 335.251 291.348C336.449 300.094 336.503 309.083 337.262 318.224C337.725 323.795 337.991 329.239 338.245 334.903C338.45 339.465 397.188 380.875 397.913 384.997C398.618 388.998 340.572 358.765 340.971 363.053C341.363 367.264 340.571 372.173 341.642 375.964C342.674 379.623 341.865 391.563 341.865 396.024C341.865 408.132 208.133 329.694 336.324 423.896C332.073 433.032 303.032 566.419 297.131 566.419C292.698 566.419 313.746 441.85 309.331 441.85C300.935 441.85 292.981 449.178 284.574 449.83C277.45 450.382 269.909 456.248 262.877 450.883C253.957 444.076 243.73 444.843 234.477 444.843C231.102 444.843 228.068 446.739 224.78 448.389C220.657 450.458 216.629 450.29 212.468 451.437C202.601 454.156 192.942 457.809 182.995 457.809C177.382 457.809 171.847 455.814 166.259 455.814C159.47 455.814 161.232 615.475 154.462 615.475C149.113 615.475 134.236 451.268 129.123 455.371C122.438 460.734 117.199 476.226 111.739 486.458C109.452 490.742 107.765 494.973 105.996 500.588C103.667 507.982 100.845 513.421 99.0245 521.867C93.4412 547.773 89.2707 579.615 91.3157 609.198C92.5396 626.904 75.1691 932.094 80.0317 944.153C88.3371 964.75 119.001 688.107 127.313 708.72C135.233 728.361 140.861 878.735 151.221 873.372C158.184 869.768 174.215 715.625 181.074 710.936C185.634 707.819 246.018 450.59 249.977 457.809C255.225 467.378 203.871 733.428 208.133 745.625C210.464 752.296 180.134 912.162 181.074 920.579C183.636 943.526 215.55 822.157 219.283 844.038C219.845 847.333 221.711 848.24 222.724 849.58C223.737 850.92 204.572 920.073 205.683 920.579C208.622 921.917 231.775 854.851 234.656 856.783C242.093 861.77 289.336 659.451 297.131 657.173C306.173 654.53 275.418 858.304 284.171 852.073C293.883 845.16 303.596 837.982 313.219 830.351C320.611 824.49 364.615 925.438 371.315 915.292C390.993 915.292 342.535 798.515 345.444 784.887C348.342 771.314 325.162 556.993 327.407 542.591C333.625 502.714 367.415 650.294 371.315 608.644C374.698 572.518 376.387 535.7 378.264 498.981C378.798 488.548 439.942 925.596 440.55 915.292C441.037 907.04 381.378 450.999 382.487 443.069C383.056 439.008 383.248 434.035 383.605 429.77C384.008 424.955 384.695 420.06 385.303 415.363C385.76 411.829 385.6 407.238 386.197 403.948C386.982 399.622 388.199 395.911 389.37 392.2C391.054 386.862 392.128 382.468 394.174 377.904C398.925 367.299 404.324 357.845 410.597 353.411C420.023 346.749 525.44 907.465 534.949 901.635C540.414 898.284 450.006 331.969 455.509 329.694C458.822 328.325 461.561 333.023 464.514 336.122C467.643 339.405 470.471 344.061 473.117 349.31C475.929 354.889 478.672 359.953 481.854 364.106C486.507 370.179 491.594 370.738 496.355 375.244C498.68 377.444 500.743 381.133 503.103 383.223C505.49 385.337 507.986 384.997 510.477 384.997C516.452 384.997 520.576 381.306 525.962 375.355C534.842 365.543 542.217 348.697 545.96 326.037C550.17 300.549 540.906 119.169 530.568 103.343C514.71 79.0672 501.903 227.365 484.959 237.376C473.463 244.169 461.816 251.602 450.102 255.662C445.15 257.378 439.464 102.602 434.473 103.343C430.51 103.931 426.865 260.405 422.931 258.655C416.253 255.683 395.351 117.328 389.37 109.951C372.356 88.9689 350.156 329.287 335.997 298.36C327.842 280.546 343.284 121.942 339.05 96.7376" stroke="#05FF00" stroke-width="2" stroke-linecap="round"/>
</g>
<g filter="url(#filter1_f_268_3441)">
<path d="M67.1979 129.372C67.6642 133.704 116.141 40.1103 116.919 44.1256C118.029 49.8541 71.724 153.639 73.2309 158.824C75.4275 166.383 78.6421 172.124 81.5877 177.757C84.9 184.092 89.334 184.629 92.6706 190.933C95.2233 195.755 97.0218 200.669 100.447 201.064C104.906 201.578 109.379 200.557 113.831 201.617C119.367 202.936 39.1375 496.543 44.233 491.263C49.3248 485.988 139.752 183.879 144.421 176.65C149.887 168.185 155.459 161.093 161.224 153.952C164.037 150.467 144.635 45.0304 147.661 44.1256C151.963 42.8393 177.603 145.135 181.87 143.323C186.432 141.385 190.839 139.079 195.523 140.444C197.674 141.071 199.935 143.615 201.913 145.759C203.618 147.606 205.432 148.131 207.075 150.52C210.55 155.574 214.084 160.488 217.621 165.246C219.33 167.543 221.007 169.899 222.716 172.221C224.867 175.144 227.211 175.539 229.442 177.702C233.283 181.426 235.7 192.146 239.117 197.687C242.962 203.922 205.555 190.933 250.244 217.561C252.902 222.969 165.808 258.995 169.134 260.917C175.418 264.55 271.929 229.021 278.354 229.021C282.41 229.021 294.245 82.2871 298.282 81.5407C302.509 80.759 298.67 224.038 302.91 224.038C306.872 224.038 310.29 229.046 313.613 234.169C316.799 239.081 320.206 244.16 322.819 250.944C325.468 257.818 327.235 267.1 328.45 275.966C329.648 284.704 329.702 293.684 330.461 302.816C330.924 308.382 331.191 313.821 331.444 319.48C331.649 324.038 390.387 365.408 391.113 369.526C391.817 373.523 333.771 343.319 334.17 347.603C334.562 351.81 333.771 356.714 334.841 360.502C335.873 364.157 335.064 376.086 335.064 380.542C335.064 392.639 201.332 314.276 329.523 408.389C325.273 417.515 296.231 550.775 290.33 550.775C285.897 550.775 306.945 426.325 302.531 426.325C294.134 426.325 286.18 433.646 277.773 434.297C270.65 434.849 263.108 440.71 256.076 435.349C247.156 428.549 236.929 429.315 227.676 429.315C224.301 429.315 221.267 431.209 217.979 432.858C213.856 434.925 209.828 434.757 205.667 435.903C195.8 438.619 186.141 442.269 176.195 442.269C170.581 442.269 165.046 440.276 159.458 440.276C152.669 440.276 154.432 599.785 147.661 599.785C142.312 599.785 127.435 435.734 122.322 439.833C115.637 445.191 110.398 460.668 104.938 470.89C102.652 475.17 100.964 479.398 99.1952 485.007C96.8659 492.394 94.0441 497.828 92.2238 506.266C86.6405 532.147 82.4699 563.959 84.5149 593.514C85.7389 611.203 68.3683 916.103 73.2309 928.151C81.5363 948.728 112.2 672.348 120.512 692.941C128.432 712.564 134.06 862.795 144.421 857.437C151.384 853.836 167.414 699.839 174.273 695.155C178.834 692.041 239.217 435.057 243.177 442.269C248.424 451.828 197.07 717.626 201.332 729.811C203.664 736.476 173.333 896.19 174.273 904.599C176.835 927.524 208.749 806.27 212.482 828.131C213.044 831.423 214.91 832.328 215.923 833.667C216.936 835.006 197.771 904.093 198.882 904.599C201.821 905.936 224.974 838.934 227.855 840.864C235.292 845.846 282.535 643.72 290.33 641.443C299.372 638.803 268.617 842.383 277.371 836.158C287.083 829.252 296.795 822.08 306.419 814.457C313.81 808.602 357.814 909.453 364.514 899.317C384.192 899.317 335.734 782.651 338.643 769.036C341.541 755.476 318.361 541.359 320.606 526.97C326.824 487.131 360.614 634.571 364.514 592.96C367.897 556.869 369.587 520.086 371.463 483.402C371.997 472.979 433.141 909.611 433.749 899.317C434.236 891.073 374.577 435.465 375.687 427.543C376.255 423.486 376.447 418.517 376.804 414.257C377.207 409.446 377.894 404.556 378.502 399.863C378.959 396.333 378.799 391.746 379.396 388.459C380.181 384.137 381.398 380.429 382.569 376.722C384.253 371.389 385.328 367 387.373 362.439C392.124 351.845 397.523 342.4 403.796 337.97C413.222 331.314 518.639 891.498 528.148 885.673C533.613 882.325 443.206 316.548 448.709 314.276C452.021 312.908 454.76 317.602 457.713 320.698C460.842 323.977 463.67 328.629 466.316 333.873C469.128 339.447 471.871 344.506 475.053 348.655C479.706 354.722 484.793 355.281 489.554 359.782C491.88 361.98 493.942 365.666 496.302 367.754C498.689 369.866 501.185 369.526 503.676 369.526C509.651 369.526 513.775 365.838 519.161 359.893C528.041 350.091 535.416 333.26 539.159 310.622C543.369 285.158 534.105 103.951 523.767 88.1396C507.909 63.8871 495.103 212.043 478.159 222.045C466.662 228.832 455.015 236.258 443.301 240.314C438.349 242.029 432.663 87.3992 427.672 88.1396C423.71 88.7275 420.064 245.053 416.13 243.304C409.452 240.335 388.551 102.112 382.569 94.7417C365.555 73.7793 343.355 313.869 329.197 282.971C321.041 265.175 336.484 106.721 332.249 81.5407" stroke="#B700F9" stroke-width="2" stroke-linecap="round"/>
</g>
<defs>
<filter id="filter0_f_268_3441" x="6.80078" y="15.1605" width="584.199" height="974.092" filterUnits="userSpaceOnUse" color-interpolation-filters="sRGB">
<feFlood flood-opacity="0" result="BackgroundImageFix"/>
<feBlend mode="normal" in="SourceGraphic" in2="BackgroundImageFix" result="shape"/>
<feGaussianBlur stdDeviation="21.5" result="effect1_foregroundBlur_268_3441"/>
</filter>
<filter id="filter1_f_268_3441" x="0" y="-0.000701904" width="584.199" height="973.25" filterUnits="userSpaceOnUse" color-interpolation-filters="sRGB">
<feFlood flood-opacity="0" result="BackgroundImageFix"/>
<feBlend mode="normal" in="SourceGraphic" in2="BackgroundImageFix" result="shape"/>
<feGaussianBlur stdDeviation="21.5" result="effect1_foregroundBlur_268_3441"/>
</filter>
</defs>
</svg>
