  <svg
    width="486"
    height="256"
    viewBox="0 0 486 256"
    fill="none"
    xmlns="http://www.w3.org/2000/svg"
    data-aos="fade-up"
  >
    <g clip-path="url(#clip0_144_91)">
      <g data-aos="fade-up" data-aos-duration="300">
        <rect
          y="181.208"
          width="97.1014"
          height="149.275"
          rx="7"
          transform="rotate(-21.5653 0 181.208)"
          fill="white"
        />
        <path
          d="M2.57293 187.718C1.15194 184.123 2.91462 180.056 6.50999 178.635L83.7943 148.09C87.3896 146.669 91.4562 148.432 92.8772 152.027L99.3601 168.43L9.05588 204.121L2.57293 187.718Z"
          fill="#9E00FF"
        />
      </g>

      <g data-aos="fade-up" data-aos-duration="600">

        <rect
          x="122.652"
          y="132.732"
          width="97.1014"
          height="115.942"
          rx="7"
          transform="rotate(-21.5653 122.652 132.732)"
          fill="white"
        />
        <path
          d="M125.225 139.242C123.804 135.647 125.567 131.58 129.162 130.159L206.446 99.6145C210.042 98.1936 214.108 99.9562 215.529 103.552L222.012 119.955L131.708 155.645L125.225 139.242Z"
          fill="#B53CFF"
        />
      </g>

      <g data-aos="fade-up" data-aos-duration="900">
      <rect
        x="245.304"
        y="84.2568"
        width="97.1014"
        height="200"
        rx="7"
        transform="rotate(-21.5653 245.304 84.2568)"
        fill="white"
      />
      <path
        d="M247.877 90.7668C246.456 87.1715 248.219 83.1049 251.814 81.6839L329.098 51.139C332.694 49.718 336.76 51.4807 338.181 55.076L344.664 71.4791L254.36 107.17L247.877 90.7668Z"
        fill="#C25FFF"
      />
      </g>

      <g data-aos="fade-up" data-aos-duration="1200">
        <rect
          x="367.956"
          y="35.7812"
          width="97.1014"
          height="163.768"
          rx="7"
          transform="rotate(-21.5653 367.956 35.7812)"
          fill="white"
        />
        <path
          d="M370.529 42.2912C369.108 38.6959 370.871 34.6293 374.466 33.2083L451.75 2.66338C455.346 1.24239 459.412 3.00507 460.833 6.60044L467.316 23.0035L377.012 58.6943L370.529 42.2912Z"
          fill="#CF82FF"
        />
      </g>

      <path
        d="M164.731 172.461C165.17 171.448 164.704 170.27 163.691 169.831L147.176 162.672C146.162 162.233 144.985 162.698 144.545 163.712C144.106 164.725 144.571 165.903 145.585 166.342L160.265 172.705L153.902 187.386C153.463 188.399 153.928 189.577 154.941 190.016C155.955 190.455 157.133 189.99 157.572 188.976L164.731 172.461ZM97.6007 199.623L163.631 173.526L162.16 169.806L96.1305 195.903L97.6007 199.623Z"
        fill="#C25FFF"
        data-aos="fade-right" data-aos-duration="600"
      />
      <path
        d="M287.49 123.943C287.93 122.93 287.464 121.752 286.451 121.313L269.936 114.154C268.922 113.715 267.744 114.18 267.305 115.194C266.866 116.207 267.331 117.385 268.345 117.824L283.025 124.187L276.662 138.868C276.222 139.881 276.688 141.059 277.701 141.498C278.715 141.937 279.892 141.472 280.332 140.458L287.49 123.943ZM220.361 151.105L286.39 125.008L284.92 121.288L218.89 147.385L220.361 151.105Z"
        fill="#C25FFF"
        data-aos="fade-right" data-aos-duration="900"
      />
      <path
        d="M408.39 76.1599C408.83 75.1465 408.364 73.9688 407.351 73.5295L390.835 66.3708C389.822 65.9315 388.644 66.397 388.205 67.4105C387.766 68.4239 388.231 69.6016 389.245 70.0409L403.925 76.4041L397.562 91.0844C397.122 92.0978 397.588 93.2755 398.601 93.7148C399.615 94.1541 400.792 93.6886 401.232 92.6752L408.39 76.1599ZM341.26 103.321L407.29 77.2245L405.82 73.5045L339.79 99.6014L341.26 103.321Z"
        fill="#C25FFF"
        data-aos="fade-right" data-aos-duration="1200"
      />
    </g>
    <defs>
      <clipPath id="clip0_144_91">
        <rect
          width="493"
          height="200"
          fill="white"
          transform="translate(0 181.208) rotate(-21.5653)"
        />
      </clipPath>
    </defs>
  </svg>